<?xml version="1.0" encoding="utf-8"?>
<!-- Generator: Adobe Illustrator 16.0.0, SVG Export Plug-In . SVG Version: 6.00 Build 0)  -->
<!DOCTYPE svg PUBLIC "-//W3C//DTD SVG 1.1//EN" "http://www.w3.org/Graphics/SVG/1.1/DTD/svg11.dtd">
<svg version="1.1" id="Layer_1" xmlns="http://www.w3.org/2000/svg" xmlns:xlink="http://www.w3.org/1999/xlink" x="0px" y="0px"
	 width="255.381px" height="100px" viewBox="0 0 255.381 100" enable-background="new 0 0 255.381 100" xml:space="preserve">
<g>
	<rect x="41.442" y="81.064" fill="#221F20" width="175.693" height="0.514"/>
	<g>
		<path fill="#D71F84" d="M224.049,99.308c-1.377-0.903-1.997-2.254-2.346-3.802c-0.097-0.43-0.396-0.855-0.707-1.185
			c-0.668-0.705-0.986-1.454-0.752-2.438c0.394-1.648,1.292-2.99,2.646-3.925c1.297-0.894,2.754-1.55,4.124-2.341
			c0.737-0.425,1.44-0.914,2.159-1.371c-0.04-0.104-0.08-0.209-0.12-0.313c-0.313,0.021-0.658-0.029-0.935,0.084
			c-0.633,0.258-1.247,0.572-1.846,0.908c-1.482,0.832-2.998,1.592-4.722,1.744c-1.316,0.117-2.612,0.072-3.493-1.164
			c-0.091-0.127-0.242-0.251-0.26-0.391c-0.148-1.117-1.019-1.748-1.673-2.521c-1.257-1.496-0.829-4.415,0.795-5.533
			c0.564-0.389,1.167-0.771,1.598-1.287c0.401-0.48,0.723-1.105,0.858-1.715c0.31-1.378,0.526-1.611,1.979-1.656
			c0.25-0.009,0.563-0.08,0.73-0.24c1.013-0.987,2.194-0.807,3.346-0.459c1.829,0.555,3.459,1.453,4.546,3.117
			c0.056,0.086,0.146,0.15,0.229,0.212c0.036,0.027,0.098,0.021,0.398,0.077c-0.279-0.673-0.44-1.268-0.751-1.77
			c-0.792-1.279-1.668-2.506-2.478-3.774c-0.325-0.509-0.63-1.05-0.833-1.614c-0.761-2.111,0.481-3.915,2.722-3.857
			c0.819,0.021,1.403-0.176,1.951-0.752c1.171-1.23,2.697-1.537,4.296-1.391c0.641,0.06,1.337,0.348,1.859,0.733
			c1.478,1.092,2.75,2.405,3.558,4.089c1.004,2.085,1.131,3.946-1.126,5.775c-0.511,0.414-0.862,1.067-1.177,1.668
			c-0.478,0.913-1.236,1.467-2.203,2.057c0.389-2.25,0.932-4.365,0.087-6.557c-0.418,1.369-0.813,2.662-1.241,4.06
			c-0.982-1.243-1.819-2.301-2.656-3.36c-0.107,0.052-0.216,0.105-0.322,0.156c0.935,3.493,1.936,6.98,1.204,10.828
			c-2.13-2.604-4.547-4.238-7.986-3.588c1.341,0.626,2.392,1.545,3.148,2.908c-1.578,0.286-3.15,0.492-4.363,1.916
			c1.563-0.238,2.967-0.709,4.317-0.588c1.364,0.12,2.676,0.825,4.299,1.367c-0.521,0.619-0.822,1.094-1.231,1.438
			c-1.315,1.104-2.706,2.12-3.999,3.246c-1.197,1.043-1.965,2.385-2.396,4.082c2.315-0.695,3.622-2.542,5.382-3.975
			c-0.198,1.067-0.374,2.02-0.55,2.975c0.103,0.029,0.203,0.061,0.306,0.092c1.149-0.691,1.043-2.012,1.469-3.306
			c0.379,0.864,0.696,1.589,1.057,2.412c0.632-0.767,0.656-1.675,0.83-2.517c0.174-0.843,0.255-1.706,0.449-2.563
			c1.209,3.42,2.384,6.863,1.376,10.541c-0.281,1.022-0.972,1.968-1.602,2.857c-0.666,0.94-1.759,0.975-2.653,0.535
			c-1.064-0.521-2.037-0.359-3.071-0.133c-0.895,0.195-1.789,0.381-2.684,0.571C225.078,99.551,224.563,99.428,224.049,99.308z"/>
		<path fill="#D71F84" d="M236.795,87.376c1.724,1.099,2.91,2.445,3.801,4.224c0.56-0.857,0.265-1.529,0.062-2.178
			c-0.204-0.647-0.479-1.271-0.722-1.906c0.06-0.07,0.119-0.142,0.178-0.213c1.323,0.865,2.645,1.73,3.932,2.574
			c0.025-1.297-1.268-2.521-5.089-4.753c-0.001-0.075-0.003-0.149-0.003-0.224c1.154,0.017,2.335-0.113,3.458,0.086
			c1.629,0.287,3.264,0.687,4.81,1.265c2.582,0.965,4.054,3.278,4.022,5.987c-0.013,0.924-0.289,1.723-0.955,2.438
			c-0.336,0.362-0.534,0.972-0.562,1.483c-0.128,2.418-1.831,3.689-4.142,2.996c-0.881-0.267-1.66-0.229-2.491,0.273
			c-2.55,1.539-5.625-0.211-5.65-3.179c-0.003-0.472-0.021-0.967,0.094-1.418c0.583-2.272,0.177-4.456-0.505-6.628
			C236.961,87.982,236.903,87.756,236.795,87.376z"/>
		<path fill="#D71F84" d="M238.564,82.563c1.917-1.456,3.802-2.398,5.979-2.708c0.784-0.11,1.567-0.235,2.339-0.404
			c0.365-0.082,0.703-0.284,1.115-0.458c-0.464-0.717-1.104-0.778-1.677-0.747c-1.499,0.083-2.992,0.256-4.487,0.407
			c-0.357,0.035-0.711,0.123-1.23,0.215c0.19-0.302,0.272-0.482,0.398-0.624c2.764-3.115,6.178-4.462,10.296-3.565
			c1.949,0.426,3.319,1.648,3.966,3.621c0.266,0.814,0.072,1.479-0.468,2.038c-0.722,0.747-0.924,1.618-0.871,2.614
			c0.056,1.043-0.04,2.055-0.787,2.9c-0.698,0.793-1.348,1.042-2.308,0.61c-1.001-0.448-2.005-0.938-2.898-1.564
			c-1.984-1.39-4.239-1.851-6.563-2.128C240.509,82.666,239.64,82.639,238.564,82.563z"/>
		<path fill="#D71F84" d="M244.819,71.282c-0.168,0.187-0.332,0.378-0.508,0.558c-2.599,2.693-4.933,5.564-6.392,9.075
			c-0.315,0.761-0.859,1.447-1.387,2.097c-0.38,0.469-0.96,0.73-1.556,0.363c-0.558-0.346-0.427-0.91-0.285-1.432
			c0.062-0.229,0.132-0.464,0.245-0.668c1.636-2.983,3.583-5.748,6.185-7.959c1.059-0.898,2.348-1.523,3.533-2.272
			C244.709,71.123,244.766,71.202,244.819,71.282z"/>
		<path fill="#D71F84" d="M247.456,66.729c0.6,0.141,1.002,0.685,0.893,1.205c-0.11,0.523-0.703,0.848-1.313,0.721
			c-0.642-0.135-1.063-0.709-0.917-1.254C246.255,66.885,246.849,66.588,247.456,66.729z"/>
		<path fill="#D71F84" d="M250.631,70.615c-0.122,0.587-0.652,0.92-1.249,0.791c-0.608-0.133-0.955-0.645-0.832-1.223
			c0.123-0.572,0.667-0.92,1.252-0.799C250.393,69.508,250.75,70.039,250.631,70.615z"/>
		<path fill="#D71F84" d="M246.102,68.809c0.533,0.163,0.756,0.598,0.662,1.188c-0.094,0.584-0.677,0.959-1.231,0.793
			c-0.588-0.174-0.845-0.595-0.735-1.201C244.9,69.006,245.464,68.654,246.102,68.809z"/>
		<path fill="#D71F84" d="M248.323,71.705c-0.226,0.557-0.591,0.88-1.213,0.76c-0.566-0.109-0.897-0.689-0.751-1.263
			c0.147-0.578,0.704-0.903,1.271-0.728C248.247,70.666,248.384,71.135,248.323,71.705z"/>
		<path fill="#D71F84" d="M250.99,68.385c-0.203,0.643-0.652,0.834-1.234,0.736c-0.6-0.101-0.971-0.667-0.835-1.207
			c0.135-0.538,0.728-0.863,1.301-0.689C250.806,67.4,251.062,67.807,250.99,68.385z"/>
	</g>
	<g>
		<path fill="#D71F84" d="M33.778,50.986c2.022-0.73,3.218-2.26,4.129-4.127c0.251-0.516,0.761-0.969,1.255-1.291
			c1.063-0.694,1.692-1.551,1.689-2.875c-0.002-2.215-0.74-4.19-2.18-5.785c-1.379-1.527-3.034-2.801-4.537-4.22
			c-0.811-0.763-1.557-1.595-2.332-2.396c0.082-0.119,0.164-0.24,0.246-0.359c0.392,0.123,0.845,0.162,1.164,0.389
			c0.727,0.519,1.413,1.104,2.07,1.709c1.636,1.508,3.334,2.926,5.48,3.644c1.638,0.546,3.298,0.876,4.791-0.429
			c0.156-0.135,0.384-0.246,0.449-0.42c0.525-1.375,1.823-1.912,2.886-2.701c2.049-1.521,2.387-5.361,0.658-7.273
			c-0.6-0.664-1.251-1.332-1.643-2.117c-0.366-0.732-0.586-1.623-0.576-2.441c0.023-1.844-0.184-2.204-2.017-2.702
			c-0.315-0.085-0.691-0.27-0.854-0.524c-0.991-1.559-2.549-1.688-4.116-1.59c-2.493,0.154-4.836,0.803-6.72,2.592
			c-0.096,0.092-0.232,0.147-0.357,0.201c-0.054,0.023-0.13-0.003-0.528-0.022c0.557-0.771,0.94-1.481,1.488-2.024
			c1.392-1.387,2.875-2.684,4.287-4.051c0.567-0.551,1.117-1.145,1.545-1.802c1.604-2.456,0.568-5.124-2.298-5.726
			c-1.048-0.218-1.73-0.646-2.254-1.547c-1.117-1.914-2.966-2.764-5.042-3.059c-0.834-0.117-1.805,0.037-2.585,0.371
			c-2.208,0.943-4.221,2.232-5.757,4.126c-1.904,2.349-2.627,4.678-0.309,7.687c0.524,0.678,0.776,1.613,0.995,2.471
			c0.333,1.305,1.129,2.239,2.182,3.279c0.184-2.977,0.132-5.831,1.865-8.361c0.119,1.865,0.232,3.631,0.354,5.533
			c1.624-1.283,3.007-2.376,4.391-3.469c0.121,0.099,0.242,0.197,0.363,0.295c-2.242,4.159-4.564,8.291-4.793,13.404
			c3.491-2.67,7.058-4.02,11.235-2.156c-1.894,0.393-3.506,1.246-4.88,2.749c1.919,0.841,3.857,1.574,4.97,3.751
			c-1.916-0.775-3.557-1.794-5.311-2.049c-1.771-0.259-3.652,0.242-5.879,0.445c0.478,0.943,0.716,1.637,1.134,2.197
			c1.339,1.801,2.8,3.51,4.105,5.333c1.208,1.687,1.78,3.622,1.815,5.909c-2.733-1.58-3.84-4.321-5.644-6.674
			c-0.072,1.416-0.135,2.682-0.199,3.948c-0.139,0.007-0.277,0.017-0.416,0.024c-1.254-1.225-0.721-2.873-0.872-4.646
			c-0.743,0.987-1.363,1.811-2.07,2.748c-0.572-1.164-0.331-2.328-0.297-3.449c0.034-1.124,0.189-2.244,0.201-3.392
			c-2.568,3.981-5.099,8.006-4.925,12.985c0.049,1.388,0.641,2.795,1.175,4.116c0.564,1.396,1.943,1.77,3.212,1.48
			c1.509-0.343,2.698,0.155,3.946,0.757c1.077,0.518,2.158,1.023,3.239,1.533C32.396,50.986,33.087,50.986,33.778,50.986z"/>
		<path fill="#D71F84" d="M21.167,31.978c-2.521,0.878-4.435,2.233-6.104,4.226c-0.453-1.26,0.124-2.025,0.579-2.789
			c0.453-0.761,0.99-1.473,1.49-2.206c-0.053-0.108-0.107-0.216-0.162-0.324c-1.94,0.702-3.882,1.403-5.773,2.087
			c0.358-1.654,2.371-2.824,7.903-4.509c0.023-0.095,0.047-0.188,0.071-0.282c-1.473-0.326-2.935-0.847-4.423-0.934
			c-2.158-0.125-4.356-0.111-6.497,0.158c-3.573,0.449-6.14,2.948-6.916,6.398c-0.265,1.181-0.153,2.281,0.476,3.391
			c0.319,0.563,0.387,1.396,0.268,2.054c-0.566,3.115,1.216,5.245,4.363,5.058c1.2-0.07,2.18,0.211,3.086,1.1
			c2.777,2.727,7.215,1.427,8.14-2.338c0.148-0.603,0.321-1.223,0.309-1.832c-0.057-3.066,1.12-5.72,2.64-8.273
			C20.773,32.699,20.916,32.429,21.167,31.978z"/>
		<path fill="#D71F84" d="M20.369,25.325c-2-2.43-4.112-4.196-6.786-5.244c-0.963-0.376-1.922-0.772-2.853-1.221
			c-0.439-0.214-0.808-0.573-1.278-0.917c0.805-0.771,1.638-0.657,2.357-0.445c1.88,0.557,3.727,1.229,5.582,1.869
			c0.444,0.154,0.867,0.371,1.5,0.645c-0.15-0.44-0.2-0.695-0.317-0.914c-2.576-4.791-6.51-7.534-12.017-7.635
			c-2.607-0.048-4.717,1.096-6.132,3.409c-0.583,0.954-0.539,1.856-0.02,2.729c0.694,1.17,0.687,2.338,0.32,3.588
			C0.339,22.5,0.156,23.814,0.85,25.114c0.649,1.22,1.4,1.731,2.751,1.472c1.407-0.268,2.832-0.589,4.158-1.116
			c2.94-1.165,5.946-1.075,8.982-0.729C17.865,24.87,18.978,25.098,20.369,25.325z"/>
		<path fill="#D71F84" d="M15.813,9.096c0.159,0.289,0.31,0.582,0.477,0.865c2.494,4.206,4.598,8.561,5.393,13.461
			c0.173,1.065,0.657,2.102,1.131,3.084c0.343,0.712,1.002,1.219,1.87,0.932c0.812-0.271,0.817-1.027,0.794-1.734
			c-0.01-0.311-0.029-0.627-0.111-0.923c-1.181-4.286-2.823-8.386-5.465-11.98c-1.075-1.462-2.526-2.646-3.806-3.956
			C16.002,8.928,15.908,9.012,15.813,9.096z"/>
		<path fill="#D71F84" d="M13.834,2.514c-0.804-0.003-1.481,0.568-1.497,1.262c-0.018,0.7,0.637,1.292,1.451,1.312
			c0.857,0.022,1.564-0.581,1.545-1.317C15.315,3.075,14.65,2.518,13.834,2.514z"/>
		<path fill="#D71F84" d="M8.627,6.5c-0.021,0.779,0.55,1.364,1.35,1.379c0.813,0.014,1.408-0.529,1.425-1.305
			c0.018-0.762-0.569-1.369-1.349-1.391C9.264,5.162,8.649,5.729,8.627,6.5z"/>
		<path fill="#D71F84" d="M14.93,5.566c-0.727,0.047-1.14,0.532-1.199,1.309c-0.059,0.773,0.571,1.424,1.325,1.381
			c0.802-0.045,1.255-0.503,1.3-1.306C16.398,6.18,15.788,5.563,14.93,5.566z"/>
		<path fill="#D71F84" d="M11.232,8.58c0.121,0.775,0.486,1.297,1.314,1.33c0.752,0.031,1.35-0.605,1.335-1.379
			c-0.014-0.78-0.625-1.36-1.397-1.308C11.641,7.281,11.327,7.835,11.232,8.58z"/>
		<path fill="#D71F84" d="M8.843,3.554c0.063,0.88,0.577,1.258,1.348,1.309c0.792,0.052,1.435-0.554,1.425-1.286
			c-0.008-0.723-0.666-1.314-1.447-1.266C9.374,2.357,8.926,2.797,8.843,3.554z"/>
	</g>
	<g>
		<path fill="#040000" stroke="#221F20" stroke-miterlimit="10" d="M126.728,17.709c0.063,0,0.117,0.043,0.163,0.129
			c0.046,0.084,0.068,0.162,0.068,0.234c0,0.125-0.041,0.27-0.124,0.437c-0.083,0.169-0.196,0.337-0.337,0.507
			c-0.143,0.172-0.312,0.336-0.505,0.498c-0.193,0.16-0.399,0.295-0.616,0.407c-0.313,0.155-0.661,0.308-1.043,0.451
			c-0.381,0.146-0.785,0.272-1.209,0.385c-0.425,0.111-0.867,0.208-1.326,0.289c-0.459,0.081-0.918,0.142-1.381,0.181
			c-0.029,0-0.058,0.063-0.089,0.188c-0.032,0.125-0.065,0.283-0.099,0.472c-0.035,0.19-0.067,0.401-0.099,0.634
			c-0.032,0.233-0.061,0.46-0.089,0.681c-0.029,0.22-0.054,0.416-0.077,0.593c-0.023,0.179-0.039,0.306-0.051,0.383
			c-0.051,0.354-0.096,0.668-0.133,0.939c-0.037,0.272-0.068,0.528-0.094,0.768c-0.026,0.238-0.047,0.47-0.064,0.692
			c-0.017,0.224-0.028,0.458-0.035,0.708c-0.006,0.139-0.007,0.261-0.004,0.369c0.003,0.107,0.004,0.213,0.004,0.318
			s-0.001,0.212-0.004,0.32c-0.002,0.107-0.009,0.23-0.021,0.369c-0.006,0.038-0.042,0.094-0.107,0.165
			c-0.065,0.073-0.141,0.145-0.228,0.212c-0.084,0.07-0.169,0.129-0.251,0.184c-0.083,0.049-0.142,0.076-0.176,0.076
			c-0.143,0-0.259-0.052-0.351-0.161c-0.091-0.108-0.163-0.231-0.213-0.369c-0.052-0.138-0.086-0.272-0.103-0.403
			c-0.017-0.131-0.026-0.219-0.026-0.264c0-0.531,0.031-1.042,0.093-1.535c0.063-0.49,0.139-0.99,0.228-1.498
			s0.18-1.037,0.273-1.582c0.093-0.547,0.175-1.145,0.243-1.794c-0.046-0.118-0.114-0.193-0.209-0.228
			c-0.094-0.032-0.189-0.049-0.287-0.049c-0.034,0-0.067,0.002-0.099,0.005c-0.031,0.005-0.061,0.005-0.089,0.005
			c-0.029,0-0.103,0.007-0.223,0.016c-0.12,0.01-0.262,0.018-0.428,0.029c-0.164,0.01-0.34,0.023-0.526,0.039
			c-0.186,0.016-0.36,0.029-0.521,0.039c-0.162,0.01-0.303,0.02-0.423,0.029c-0.12,0.01-0.193,0.015-0.223,0.015
			c-0.09,0-0.181-0.031-0.27-0.099c-0.088-0.064-0.167-0.141-0.235-0.23c-0.068-0.087-0.124-0.18-0.167-0.273
			c-0.042-0.096-0.063-0.176-0.063-0.242c0-0.132,0.021-0.245,0.063-0.339c0.043-0.096,0.098-0.173,0.163-0.233
			c0.065-0.058,0.139-0.102,0.222-0.131c0.083-0.029,0.164-0.043,0.243-0.043c0.086,0,0.211-0.004,0.376-0.011
			c0.166-0.006,0.348-0.015,0.548-0.024c0.2-0.011,0.408-0.021,0.624-0.035c0.216-0.012,0.419-0.029,0.607-0.049
			c0.189-0.021,0.354-0.04,0.496-0.058c0.143-0.021,0.243-0.04,0.299-0.059c0.12-0.046,0.245-0.192,0.376-0.435
			c0.131-0.241,0.248-0.611,0.351-1.11c0.022-0.11,0.052-0.269,0.085-0.472c0.035-0.202,0.071-0.429,0.111-0.678
			c0.041-0.25,0.08-0.507,0.12-0.771c0.041-0.267,0.078-0.518,0.111-0.758c0.034-0.238,0.061-0.451,0.082-0.639
			c0.021-0.187,0.033-0.326,0.038-0.418c0-0.084,0.03-0.18,0.09-0.285c0.06-0.105,0.13-0.201,0.209-0.29
			c0.081-0.087,0.16-0.162,0.24-0.22c0.08-0.061,0.139-0.09,0.18-0.09c0.085,0,0.168,0.033,0.247,0.1
			c0.081,0.064,0.15,0.141,0.21,0.229c0.06,0.089,0.107,0.179,0.141,0.271c0.034,0.092,0.051,0.161,0.051,0.207
			c0,0.033-0.007,0.105-0.021,0.221c-0.014,0.113-0.033,0.254-0.055,0.418c-0.022,0.164-0.05,0.341-0.081,0.531
			c-0.032,0.189-0.061,0.371-0.085,0.539c-0.026,0.172-0.051,0.324-0.073,0.457c-0.023,0.136-0.04,0.229-0.052,0.281
			c-0.08,0.399-0.147,0.73-0.201,0.993c-0.055,0.263-0.097,0.481-0.128,0.659c-0.031,0.176-0.055,0.316-0.068,0.428
			c-0.014,0.106-0.021,0.203-0.021,0.289c0,0.151,0.017,0.251,0.05,0.305c0.035,0.053,0.092,0.082,0.172,0.088
			c0.023,0,0.114-0.01,0.273-0.029c0.16-0.019,0.364-0.05,0.612-0.088c0.248-0.04,0.522-0.089,0.824-0.146
			c0.303-0.061,0.608-0.127,0.916-0.202c0.308-0.075,0.604-0.16,0.889-0.251c0.284-0.092,0.533-0.193,0.745-0.305
			c0.205-0.111,0.395-0.221,0.568-0.324c0.174-0.105,0.328-0.201,0.462-0.285c0.134-0.087,0.245-0.152,0.333-0.201
			C126.615,17.733,126.683,17.709,126.728,17.709z"/>
		<path fill="#040000" stroke="#221F20" stroke-miterlimit="10" d="M138.103,24.099c0,0.073-0.005,0.155-0.014,0.255
			c-0.009,0.099-0.025,0.2-0.051,0.305c-0.026,0.104-0.062,0.207-0.106,0.31c-0.047,0.102-0.103,0.192-0.172,0.271
			c-0.342,0.374-0.697,0.713-1.065,1.018s-0.734,0.564-1.098,0.777c-0.366,0.213-0.722,0.378-1.069,0.495
			c-0.348,0.118-0.674,0.178-0.975,0.178c-0.416,0-0.763-0.091-1.04-0.271c-0.276-0.18-0.497-0.416-0.662-0.709
			c-0.166-0.289-0.283-0.625-0.351-1.001c-0.068-0.378-0.102-0.763-0.102-1.155c0-0.131,0.004-0.283,0.012-0.459
			c0.009-0.172,0.017-0.352,0.03-0.539c0.011-0.188,0.021-0.368,0.029-0.546c0.009-0.177,0.013-0.337,0.013-0.481
			c0-0.203-0.013-0.379-0.039-0.525c-0.024-0.148-0.072-0.252-0.14-0.311c-0.12,0.072-0.269,0.215-0.445,0.424
			s-0.372,0.475-0.585,0.795c-0.215,0.322-0.442,0.692-0.686,1.111c-0.241,0.419-0.485,0.873-0.731,1.357
			c-0.153,0.3-0.313,0.615-0.479,0.943c-0.166,0.326-0.33,0.646-0.492,0.958c-0.162,0.311-0.323,0.608-0.483,0.889
			c-0.16,0.282-0.311,0.53-0.453,0.743c-0.143,0.213-0.274,0.381-0.394,0.507c-0.12,0.124-0.22,0.187-0.299,0.187
			c-0.103,0-0.187-0.01-0.253-0.031c-0.065-0.018-0.122-0.039-0.17-0.059c-0.049-0.02-0.091-0.039-0.129-0.059
			c-0.037-0.02-0.075-0.029-0.114-0.029c-0.047-0.184-0.081-0.402-0.104-0.658c-0.023-0.256-0.04-0.514-0.051-0.771
			c-0.012-0.26-0.02-0.498-0.022-0.718s-0.004-0.385-0.004-0.498c0-0.876,0.055-1.801,0.166-2.771
			c0.112-0.97,0.244-1.987,0.399-3.053c0.153-1.064,0.313-2.178,0.479-3.342c0.165-1.162,0.302-2.381,0.41-3.652
			c0.035-0.183,0.086-0.333,0.154-0.451c0.069-0.118,0.146-0.209,0.231-0.275c0.086-0.064,0.171-0.109,0.257-0.133
			c0.085-0.023,0.162-0.035,0.23-0.035c0.171,0,0.308,0.104,0.411,0.305c0.102,0.205,0.153,0.477,0.153,0.818
			c0,0.09-0.01,0.23-0.029,0.421c-0.02,0.19-0.049,0.405-0.086,0.644c-0.037,0.239-0.077,0.494-0.12,0.768
			c-0.043,0.271-0.088,0.541-0.137,0.811c-0.048,0.269-0.094,0.526-0.137,0.772c-0.043,0.245-0.081,0.456-0.116,0.634
			c-0.137,0.707-0.261,1.428-0.372,2.158c-0.112,0.729-0.208,1.414-0.291,2.055c-0.083,0.639-0.146,1.208-0.193,1.709
			c-0.046,0.502-0.069,0.877-0.069,1.126c0,0.065,0,0.157,0,0.275c0,0.116,0.002,0.239,0.005,0.362
			c0.002,0.125,0.007,0.242,0.013,0.35c0.005,0.107,0.013,0.182,0.025,0.221c0.21-0.183,0.415-0.414,0.612-0.697
			c0.196-0.281,0.398-0.604,0.606-0.969c0.208-0.362,0.432-0.76,0.672-1.188c0.239-0.431,0.51-0.885,0.812-1.362
			c0.159-0.263,0.35-0.545,0.569-0.847c0.219-0.301,0.455-0.581,0.707-0.84c0.249-0.258,0.514-0.475,0.79-0.645
			s0.551-0.256,0.824-0.256c0.126,0,0.228,0.123,0.304,0.363c0.078,0.244,0.115,0.559,0.115,0.945c0,0.105-0.012,0.264-0.037,0.477
			c-0.027,0.213-0.054,0.448-0.082,0.708c-0.028,0.259-0.056,0.524-0.08,0.801c-0.027,0.275-0.04,0.531-0.04,0.767
			c0,0.189,0.011,0.418,0.03,0.684c0.021,0.266,0.071,0.518,0.153,0.762c0.083,0.242,0.206,0.449,0.369,0.62
			c0.162,0.169,0.389,0.255,0.679,0.255c0.479,0,1.021-0.131,1.626-0.395c0.604-0.262,1.241-0.684,1.915-1.268
			c0.069-0.059,0.133-0.119,0.191-0.18c0.061-0.064,0.114-0.121,0.162-0.172c0.05-0.053,0.094-0.098,0.135-0.133
			c0.039-0.038,0.07-0.056,0.093-0.056c0.006,0,0.019,0.009,0.039,0.028c0.02,0.021,0.039,0.043,0.061,0.066
			c0.02,0.021,0.037,0.043,0.055,0.067S138.103,24.092,138.103,24.099z"/>
		<path fill="#040000" stroke="#221F20" stroke-miterlimit="10" d="M145.585,24.139c0,0.229-0.074,0.478-0.224,0.746
			c-0.147,0.268-0.358,0.569-0.632,0.904c-0.314,0.379-0.658,0.732-1.034,1.057c-0.377,0.324-0.765,0.605-1.163,0.846
			c-0.4,0.239-0.805,0.427-1.215,0.564c-0.411,0.139-0.808,0.207-1.188,0.207c-0.896,0-1.588-0.332-2.079-0.994
			c-0.489-0.66-0.734-1.63-0.734-2.908c0-0.406,0.03-0.82,0.095-1.244c0.062-0.422,0.153-0.84,0.277-1.253
			c0.122-0.413,0.275-0.812,0.462-1.198c0.185-0.387,0.399-0.749,0.646-1.082c0.153-0.203,0.324-0.409,0.514-0.619
			c0.187-0.211,0.396-0.399,0.624-0.566c0.228-0.166,0.478-0.303,0.748-0.408c0.271-0.104,0.565-0.156,0.885-0.156
			c0.228,0,0.434,0.051,0.616,0.153c0.182,0.101,0.335,0.229,0.461,0.387c0.126,0.158,0.222,0.335,0.286,0.53
			c0.065,0.197,0.1,0.391,0.1,0.58c0,0.401-0.095,0.805-0.283,1.216c-0.188,0.408-0.453,0.822-0.795,1.238
			c-0.342,0.415-0.753,0.831-1.232,1.247c-0.478,0.416-1.01,0.83-1.599,1.244c-0.079,0.053-0.159,0.109-0.239,0.172
			c-0.079,0.063-0.12,0.14-0.12,0.231c0,0.195,0.022,0.403,0.068,0.618c0.046,0.218,0.129,0.415,0.249,0.596
			c0.12,0.18,0.28,0.329,0.482,0.447c0.203,0.119,0.461,0.177,0.773,0.177c0.399,0,0.808-0.073,1.219-0.222
			c0.414-0.146,0.818-0.352,1.215-0.614c0.396-0.262,0.781-0.573,1.154-0.934c0.374-0.36,0.724-0.751,1.048-1.169
			c0.183-0.23,0.328-0.345,0.437-0.345c0.063,0,0.108,0.044,0.137,0.128C145.57,23.8,145.585,23.94,145.585,24.139z M141.616,19.939
			c0-0.07-0.017-0.137-0.051-0.195c-0.034-0.061-0.076-0.109-0.124-0.148c-0.049-0.04-0.1-0.07-0.153-0.093
			c-0.056-0.022-0.102-0.036-0.142-0.036c-0.251,0-0.508,0.104-0.77,0.311c-0.263,0.208-0.507,0.494-0.736,0.861
			c-0.228,0.367-0.427,0.803-0.598,1.307c-0.171,0.506-0.288,1.051-0.351,1.642c0.079-0.058,0.185-0.145,0.316-0.256
			c0.131-0.111,0.272-0.235,0.422-0.368c0.152-0.135,0.304-0.27,0.454-0.407c0.151-0.139,0.286-0.267,0.406-0.385
			c0.263-0.256,0.479-0.482,0.649-0.683c0.172-0.199,0.307-0.385,0.408-0.551c0.098-0.168,0.169-0.33,0.209-0.49
			C141.596,20.285,141.616,20.116,141.616,19.939z"/>
	</g>
	<path d="M78.162,78.047c0,0,6.564,1.487,11.421,0.701l2.757-6.875C92.34,71.873,82.975,72.445,78.162,78.047z"/>
	<path d="M175.505,84.248c-2.901-1.903-8.761-1.605-8.761-1.605l-4.01,4.871c0,0,5.995-0.2,9.396-0.691
		C175.532,86.331,177.071,85.272,175.505,84.248z"/>
	<path d="M77.926,78.488c5.256,1.262,10.453,1.162,15.607,0.869c7.057-0.401,14.113-0.994,21.13-1.834
		c12.923-1.545,25.794-3.558,38.735-4.938c9.253-0.985,18.581-1.067,27.825,0.524c1.192,0.207,2.39,0.566,3.494,1.057
		c1.69,0.75,1.942,1.967,0.665,3.293c-0.998,1.037-2.195,1.882-3.296,2.82c-0.19,0.162-0.349,0.363-0.771,0.813
		c0,0-1.704,1.586-2.76,2.724c-0.331,0.357-0.669,0.728-1.057,1.137c-4.434-3.574-9.646-2.883-14.606-2.386
		c-11.976,1.198-23.913,2.771-35.862,4.224c-11.116,1.354-22.208,3.002-33.451,2.783c-1.772-0.035-3.546-0.3-5.311-0.529
		c-3.493-0.455-5.728-2.502-7.439-5.52C79.562,81.285,77.926,78.488,77.926,78.488z"/>
	<g>
		<path fill="#040000" d="M48.768,50.877c1.76,0.81,2.996,1.801,3.707,2.981c0.711,1.179,1.067,2.722,1.067,4.626
			c0,2.15-0.772,3.959-2.314,5.43c-1.543,1.47-3.437,2.203-5.683,2.203h-10.83V35.855h9.279c2.617,0,4.761,0.723,6.434,2.169
			c1.672,1.445,2.507,3.284,2.507,5.511c0,1.811-0.332,3.28-0.994,4.412C51.28,49.076,50.222,50.055,48.768,50.877z M41.257,48.649
			h1.339c1.104,0,1.984-0.353,2.642-1.054c0.657-0.703,0.986-1.645,0.986-2.823c0-2.715-1.372-4.071-4.115-4.071h-0.853V48.649z
			 M41.257,61.199l1.899-0.047c1.119-0.018,1.987-0.364,2.604-1.044c0.617-0.679,0.925-1.639,0.925-2.882c0-2.666-1.364-4-4.089-4
			h-1.339V61.199z"/>
		<path fill="#040000" d="M58.799,35.855h6.542v30.262h-6.542V35.855z"/>
		<path fill="#040000" d="M92.842,53.906c0,1.293-0.308,2.951-0.921,4.979c-0.614,2.028-1.797,3.842-3.55,5.439
			c-1.752,1.6-3.824,2.4-6.214,2.4c-7.415,0-11.122-5.332-11.122-15.992c0-5.039,0.965-8.896,2.896-11.568
			c1.93-2.674,4.672-4.012,8.226-4.012c5.12,0,8.214,2.512,9.28,7.536l-5.743,2.495c-0.113-2.713-1.341-4.071-3.682-4.071
			c-1.019,0-1.846,0.32-2.484,0.958c-0.638,0.639-1.054,1.523-1.248,2.652c-0.194,1.132-0.29,3.068-0.29,5.816
			c0,3.23,0.104,5.447,0.314,6.652c0.21,1.201,0.638,2.105,1.285,2.712c0.646,0.606,1.486,0.909,2.52,0.909
			c2.423,0,3.715-2.004,3.877-6.009h-4.022v-5.864h10.879V53.906z"/>
		<path fill="#040000" d="M108.979,35.855h6.542v30.262h-6.542V35.855z"/>
		<path fill="#040000" d="M135.122,44.385c-1.728-2.02-3.384-3.029-4.968-3.029c-0.709,0-1.344,0.234-1.9,0.702
			c-0.558,0.469-0.837,0.993-0.837,1.575c0,1.051,0.881,2.295,2.642,3.732c1.841,1.471,3.149,2.629,3.925,3.477
			s1.397,1.846,1.867,2.992c0.467,1.146,0.701,2.398,0.701,3.756c0,2.664-0.853,4.854-2.557,6.564
			c-1.704,1.714-3.896,2.57-6.578,2.57c-2.197,0-4.345-0.783-6.444-2.351v-7.147c2.019,2.195,4.038,3.293,6.057,3.293
			c0.905,0,1.661-0.249,2.266-0.75c0.606-0.5,0.909-1.113,0.909-1.841c0-1.083-0.776-2.285-2.327-3.61
			c-2.471-2.133-4.09-3.719-4.857-4.762c-0.768-1.043-1.341-2.092-1.721-3.15c-0.379-1.057-0.569-2.127-0.569-3.211
			c0-2.324,0.816-4.248,2.447-5.766c1.63-1.518,3.707-2.277,6.227-2.277c1.906,0,3.812,0.549,5.718,1.648V44.385z"/>
		<path fill="#040000" d="M155.112,66.117h-14.15V35.855h6.494v24.302h7.656V66.117z"/>
		<path fill="#040000" d="M180.067,66.117h-6.395l-1.008-4.725h-7.97l-1.099,4.725h-6.401l8.649-30.262h6.639L180.067,66.117z
			 M171.737,56.5l-2.667-13.238l-0.101-0.002l-3.078,13.24H171.737z"/>
		<path fill="#040000" d="M205.001,66.117h-6.906l-7.705-19.092h-0.097v19.092h-6.348v-30.31h7.147l7.584,18.802h0.12V35.808h6.204
			V66.117z"/>
		<path fill="#040000" d="M210.839,35.855h7.245c4.038,0,7.249,1.291,9.632,3.877c2.383,2.584,3.573,6.3,3.573,11.145
			c0,4.896-1.163,8.659-3.488,11.292c-2.326,2.632-5.646,3.948-9.959,3.948h-7.003V35.855z M217.455,41.309v19.309h0.774
			c1.308,0,2.67-0.531,4.083-1.599s2.12-3.61,2.12-7.633c0-2.972-0.264-5.087-0.787-6.347c-0.525-1.261-1.297-2.197-2.314-2.813
			c-1.018-0.613-2.068-0.918-3.149-0.918H217.455z"/>
	</g>
	<rect x="153.218" y="22.693" fill="#221F20" width="63.918" height="0.511"/>
	<rect x="41.442" y="22.693" fill="#221F20" width="63.919" height="0.511"/>
	<polygon fill="#FFFFFF" points="87.952,82.649 87.981,82.992 87.474,83.036 87.584,84.308 89.077,84.178 88.966,82.907 
		88.458,82.951 88.428,82.607 89.822,82.487 89.851,82.829 89.345,82.874 89.604,85.855 90.111,85.811 90.141,86.154 88.748,86.275 
		88.718,85.933 89.226,85.889 89.106,84.52 87.615,84.65 87.733,86.02 88.241,85.975 88.271,86.316 86.877,86.438 86.848,86.096 
		87.354,86.053 87.096,83.069 86.588,83.113 86.558,82.771 	"/>
	<path fill="#FFFFFF" d="M93.558,85.512l0.306-0.025l0.029,0.342l-1.234,0.107l-0.03-0.344l0.526-0.046l-0.362-0.763l-1.455,0.129
		l-0.219,0.813l0.532-0.047l0.03,0.342l-1.223,0.107l-0.029-0.343l0.306-0.028l1.067-3.785L93.558,85.512z M91.877,82.826
		l-0.453,1.732l1.216-0.106L91.877,82.826z"/>
	<path fill="#FFFFFF" d="M94.723,82.061l1.951,2.816h0.013l-0.229-2.621l-0.574,0.049l-0.03-0.342l1.339-0.116l0.029,0.341
		l-0.385,0.033l0.289,3.325l-0.391,0.033l-1.997-2.849l0.231,2.66l0.562-0.051l0.03,0.344l-1.394,0.118l-0.029-0.341l0.452-0.039
		l-0.259-2.982l-0.453,0.039l-0.029-0.342L94.723,82.061z"/>
	<path fill="#FFFFFF" d="M97.991,85.52l-0.083-0.338l0.497-0.094l-0.255-2.932l-0.492-0.063l-0.013-0.287
		c0.197,0.007,0.392,0.04,0.587,0.023c0.238-0.021,0.464-0.114,0.746-0.139c0.886-0.078,1.681,0.432,1.793,1.715
		c0.117,1.344-0.515,1.867-1.333,1.938c-0.275,0.025-0.555-0.006-0.821,0.049L97.991,85.52z M98.783,85.057l0.612-0.053
		c0.66-0.058,1.074-0.463,0.984-1.489c-0.106-1.224-0.883-1.587-1.415-1.479l-0.436,0.087L98.783,85.057z"/>
	<path fill="#FFFFFF" d="M103.932,81.186l0.352,0.081c-0.068,0.208-0.086,0.431-0.055,0.649l0.071,0.463l-0.355,0.092
		c-0.073-0.56-0.247-0.922-0.881-0.865c-0.851,0.074-1.063,0.948-1.001,1.657c0.06,0.69,0.442,1.545,1.261,1.474
		c0.624-0.055,0.82-0.49,0.769-1.066l0.379-0.031l0.068,0.782c-0.313,0.358-0.722,0.616-1.205,0.658
		c-0.66,0.058-1.547-0.376-1.672-1.812c-0.122-1.398,0.68-1.945,1.353-2.003c0.288-0.024,0.594,0.028,0.855,0.135L103.932,81.186z"
		/>
	<path fill="#FFFFFF" d="M108.066,84.248l0.439-0.037l0.03,0.342l-0.672,0.06l-1.257-1.573l-0.593,0.053l0.116,1.325l0.58-0.05
		l0.029,0.342l-1.46,0.128l-0.029-0.343l0.5-0.044l-0.255-2.939l-0.507-0.017l-0.028-0.325c0.193,0.026,0.36,0.044,0.568,0.024
		c0.313-0.025,0.623-0.127,0.935-0.153c0.605-0.054,1.191,0.173,1.25,0.845c0.045,0.52-0.238,0.877-0.709,1.058L108.066,84.248z
		 M105.985,82.762l0.317-0.021c0.778-0.056,1.051-0.381,1.017-0.777c-0.041-0.465-0.393-0.621-0.82-0.582
		c-0.202,0.019-0.408,0.055-0.626,0.098L105.985,82.762z"/>
	<path fill="#FFFFFF" d="M111.892,83.916l0.305-0.027l0.03,0.344l-1.234,0.106l-0.03-0.342l0.526-0.046l-0.362-0.764l-1.455,0.127
		l-0.219,0.813l0.532-0.046l0.03,0.342l-1.223,0.106l-0.03-0.343l0.306-0.026l1.068-3.786L111.892,83.916z M110.21,81.229
		l-0.452,1.734l1.216-0.105L110.21,81.229z"/>
	<path fill="#FFFFFF" d="M115.25,80.273l0.093,1.064l-0.378,0.033l-0.014-0.16c-0.042-0.489-0.073-0.561-0.556-0.518l-1.026,0.089
		l0.109,1.254l0.836-0.073l-0.045-0.52l0.379-0.033l0.125,1.436l-0.379,0.033l-0.049-0.572l-0.838,0.07l0.121,1.389l1.076-0.096
		l0.03,0.344l-2.054,0.179l-0.029-0.343l0.599-0.051l-0.26-2.983l-0.599,0.052l-0.029-0.342L115.25,80.273z"/>
	<path fill="#FFFFFF" d="M119.046,79.943l0.113,1.29l-0.38,0.033l-0.04-0.466c-0.037-0.428-0.08-0.479-0.5-0.441l-0.494,0.043
		l0.259,2.982l0.8-0.07l0.03,0.342l-1.98,0.174l-0.03-0.343l0.801-0.071l-0.259-2.981l-0.495,0.043
		c-0.422,0.038-0.454,0.096-0.417,0.522l0.041,0.464l-0.378,0.034l-0.112-1.29L119.046,79.943z"/>
	<path fill="#FFFFFF" d="M120.628,80.15l0.101,1.156l0.837-0.073l-0.044-0.514l0.378-0.033l0.125,1.431l-0.379,0.033l-0.05-0.574
		l-0.837,0.07l0.129,1.486l1.143-0.099c0.465-0.042,0.501-0.101,0.443-0.778l-0.009-0.115l0.377-0.034l0.104,1.192l-3.02,0.262
		l-0.03-0.342l0.61-0.052l-0.259-2.983l-0.611,0.054l-0.029-0.343l2.903-0.252l0.093,1.063l-0.379,0.032l-0.014-0.158
		c-0.044-0.508-0.067-0.561-0.55-0.52L120.628,80.15z"/>
	<path fill="#FFFFFF" d="M123.66,83.285l-0.085-0.336l0.498-0.094l-0.256-2.932l-0.492-0.063l-0.013-0.289
		c0.197,0.008,0.392,0.039,0.587,0.022c0.238-0.021,0.463-0.114,0.745-0.138c0.886-0.076,1.682,0.432,1.793,1.716
		c0.117,1.343-0.515,1.866-1.333,1.938c-0.275,0.024-0.556-0.006-0.822,0.047L123.66,83.285z M124.451,82.822l0.61-0.053
		c0.661-0.057,1.075-0.463,0.986-1.49c-0.107-1.221-0.883-1.585-1.417-1.477l-0.435,0.088L124.451,82.822z"/>
	<path fill="#FFFFFF" d="M131.953,78.821l0.029,0.341l-0.508,0.043l0.111,1.272l1.491-0.129l-0.11-1.272l-0.506,0.047l-0.031-0.344
		l1.393-0.123l0.03,0.344l-0.507,0.043l0.259,2.983l0.507-0.044l0.031,0.342l-1.393,0.121l-0.03-0.342l0.506-0.045l-0.118-1.369
		l-1.491,0.13l0.119,1.37l0.507-0.045l0.03,0.343l-1.394,0.12l-0.03-0.342l0.508-0.045l-0.26-2.979l-0.508,0.044l-0.03-0.344
		L131.953,78.821z"/>
	<path fill="#FFFFFF" d="M137.56,81.683l0.306-0.027l0.029,0.343l-1.234,0.107l-0.03-0.343l0.526-0.046l-0.362-0.762l-1.454,0.127
		l-0.22,0.812l0.532-0.046l0.03,0.342l-1.223,0.107l-0.03-0.342l0.306-0.027l1.069-3.787L137.56,81.683z M135.878,78.996
		l-0.452,1.732l1.217-0.106L135.878,78.996z"/>
	<path fill="#FFFFFF" d="M138.926,78.214l0.03,0.341l-0.478,0.042l0.615,2.62l0.014-0.002l0.513-1.959l0.845,1.84h0.012l0.154-2.686
		l-0.478,0.041l-0.03-0.342l1.106-0.098l0.03,0.344l-0.263,0.023l-0.199,3.439l-0.366,0.033l-0.72-1.546l-0.441,1.646l-0.368,0.033
		l-0.79-3.354l-0.263,0.022l-0.03-0.343L138.926,78.214z"/>
	<path fill="#FFFFFF" d="M144.893,81.044l0.306-0.026l0.03,0.342l-1.235,0.107l-0.029-0.342l0.525-0.045l-0.362-0.764l-1.454,0.127
		l-0.219,0.813l0.531-0.047l0.03,0.342l-1.223,0.107l-0.029-0.342l0.306-0.027l1.068-3.787L144.893,81.044z M143.212,78.357
		l-0.453,1.733l1.217-0.104L143.212,78.357z"/>
	<path fill="#FFFFFF" d="M148.025,77.422l0.03,0.341l-0.979,0.085l0.26,2.984l0.979-0.086l0.03,0.342l-2.335,0.203l-0.03-0.343
		l0.979-0.084l-0.261-2.983l-0.977,0.086l-0.029-0.342L148.025,77.422z"/>
	<path fill="#FFFFFF" d="M151.692,77.103l0.03,0.342l-0.979,0.085l0.26,2.982l0.979-0.086l0.029,0.344l-2.334,0.203l-0.03-0.342
		l0.978-0.086l-0.261-2.982l-0.977,0.086l-0.029-0.344L151.692,77.103z"/>
	<path fill="#FFFFFF" d="M155.894,80.088l0.305-0.027l0.03,0.342l-1.235,0.107l-0.028-0.342l0.524-0.047l-0.361-0.764l-1.455,0.127
		l-0.218,0.814l0.532-0.047l0.029,0.343l-1.223,0.106l-0.029-0.342l0.306-0.027l1.067-3.788L155.894,80.088z M154.212,77.4
		l-0.453,1.732l1.217-0.105L154.212,77.4z"/>
	<path fill="#FFFFFF" d="M157.059,76.636l1.95,2.816l0.013-0.002l-0.229-2.621l-0.575,0.05l-0.029-0.342l1.339-0.117l0.029,0.342
		l-0.386,0.034l0.29,3.323l-0.391,0.036l-1.997-2.851l0.232,2.658l0.562-0.048l0.029,0.342l-1.394,0.122l-0.029-0.342l0.452-0.041
		l-0.261-2.98l-0.451,0.037l-0.03-0.342L157.059,76.636z"/>
	<path fill="#FFFFFF" d="M166.585,75.807l0.093,1.063l-0.378,0.033l-0.014-0.158c-0.043-0.49-0.074-0.563-0.557-0.518l-1.027,0.088
		l0.109,1.253l0.837-0.073l-0.046-0.52l0.38-0.031l0.126,1.436l-0.379,0.033l-0.051-0.574l-0.838,0.072l0.12,1.387l1.076-0.094
		l0.03,0.343l-2.053,0.179l-0.029-0.342l0.599-0.053l-0.26-2.983l-0.599,0.053l-0.03-0.342L166.585,75.807z"/>
	<path fill="#FFFFFF" d="M170.485,77.313c0.081,0.93-0.286,1.946-1.302,2.034c-1.014,0.089-1.55-0.85-1.632-1.778
		c-0.082-0.93,0.286-1.946,1.302-2.034C169.867,75.447,170.404,76.385,170.485,77.313z M170.088,77.35
		c-0.06-0.698-0.417-1.541-1.206-1.473c-0.788,0.068-0.994,0.961-0.934,1.658c0.061,0.695,0.418,1.539,1.206,1.471
		S170.149,78.045,170.088,77.35z"/>
	<path fill="#FFFFFF" d="M174.152,76.996c0.08,0.928-0.287,1.943-1.302,2.033c-1.014,0.087-1.55-0.851-1.631-1.779
		c-0.081-0.928,0.286-1.945,1.3-2.035C173.534,75.128,174.071,76.066,174.152,76.996z M173.754,77.029
		c-0.06-0.697-0.415-1.539-1.206-1.471c-0.788,0.068-0.992,0.961-0.933,1.657c0.062,0.696,0.418,1.538,1.206,1.47
		C173.609,78.618,173.815,77.725,173.754,77.029z"/>
	<path fill="#FFFFFF" d="M174.993,78.816l-0.083-0.336l0.495-0.092l-0.254-2.934l-0.492-0.063l-0.013-0.289
		c0.197,0.008,0.391,0.041,0.587,0.024c0.238-0.021,0.464-0.114,0.746-0.14c0.886-0.078,1.681,0.434,1.793,1.716
		c0.118,1.346-0.516,1.868-1.334,1.938c-0.275,0.025-0.555-0.006-0.821,0.047L174.993,78.816z M175.785,78.355l0.611-0.055
		c0.66-0.057,1.074-0.463,0.984-1.488c-0.106-1.223-0.883-1.586-1.415-1.479l-0.436,0.088L175.785,78.355z"/>
</g>
</svg>
