<?xml version="1.0" encoding="utf-8"?>
<!-- Generator: Adobe Illustrator 21.0.0, SVG Export Plug-In . SVG Version: 6.00 Build 0)  -->
<svg version="1.1" id="레이어_1" xmlns="http://www.w3.org/2000/svg" xmlns:xlink="http://www.w3.org/1999/xlink" x="0px"
	 y="0px" viewBox="0 0 112.8 32.6" style="enable-background:new 0 0 112.8 32.6;" xml:space="preserve">
<g id="XMLID_10_">
	<g id="XMLID_28_">
		<g>
			<path d="M37.1,32.6H16.3C7.3,32.6,0,25.3,0,16.3C0,7.3,7.3,0,16.3,0h20.8c9,0,16.3,7.3,16.3,16.3h-5.8c0-5.8-4.7-10.5-10.5-10.5
				H16.3c-5.8,0-10.5,4.7-10.5,10.5c0,5.8,4.7,10.5,10.5,10.5h20.8c3.5,0,6.7-1.7,8.7-4.6l4.8,3.3C47.6,29.9,42.5,32.6,37.1,32.6z"
				/>
		</g>
		<path id="XMLID_61_" d="M66.2,6.8"/>
		<g>
			<path d="M96.5,32.6H75.7c-9,0-16.3-7.3-16.3-16.3h5.8c0,5.8,4.7,10.5,10.5,10.5h20.8c5.8,0,10.5-4.7,10.5-10.5
				c0-5.8-4.7-10.5-10.5-10.5H75.7c-2.8,0-5.4,1.1-7.4,3.1l-4.1-4.1C67.2,1.7,71.3,0,75.7,0h20.8c9,0,16.3,7.3,16.3,16.3
				C112.8,25.3,105.5,32.6,96.5,32.6z"/>
		</g>
	</g>
	<g>
		<rect x="32.5" y="13.4" width="47.8" height="5.8"/>
	</g>
</g>
</svg>
