<?xml version="1.0" encoding="utf-8"?>
<!-- Generator: Adobe Illustrator 21.0.0, SVG Export Plug-In . SVG Version: 6.00 Build 0)  -->
<svg version="1.1" id="레이어_1" xmlns="http://www.w3.org/2000/svg" xmlns:xlink="http://www.w3.org/1999/xlink" x="0px"
	 y="0px" viewBox="0 0 346.5 35.4" style="enable-background:new 0 0 346.5 35.4;" xml:space="preserve">
<g>
	<g>
		<g>
			<path d="M35,1.1c0-0.3,0.2-0.5,0.5-0.5h12.8c6,0,10.2,2.6,11.8,7.7c0.6,1.9,0.9,3.8,0.9,9.4c0,5.6-0.3,7.5-0.9,9.4
				c-1.7,5.1-5.8,7.7-11.8,7.7H35.5c-0.3,0-0.5-0.2-0.5-0.5V1.1z M42.7,28.2h3.9c3.4,0,5.5-1,6.4-3.8c0.4-1,0.6-2.3,0.6-6.8
				s-0.2-5.7-0.6-6.8c-0.9-2.8-2.9-3.8-6.4-3.8h-3.9c-0.2,0-0.3,0.1-0.3,0.3v20.5C42.4,28.1,42.5,28.2,42.7,28.2z"/>
		</g>
		<g>
			<path d="M85.7,34.8c-0.5,0-0.6-0.2-0.8-0.5l-5.9-12.6h-4.6c-0.2,0-0.3,0.1-0.3,0.3v12.3c0,0.3-0.2,0.5-0.5,0.5h-6.4
				c-0.3,0-0.5-0.2-0.5-0.5V1.1c0-0.3,0.2-0.5,0.5-0.5h13.7c7,0,11.6,4.4,11.6,10.6c0,4.4-2.3,7.9-6.1,9.5l6.8,13.5
				c0.2,0.3,0,0.6-0.4,0.6H85.7z M85.2,11.2c0-2.6-1.8-4.2-4.6-4.2h-6.1c-0.2,0-0.3,0.1-0.3,0.3v7.9c0,0.2,0.1,0.3,0.3,0.3h6.1
				C83.3,15.5,85.2,13.8,85.2,11.2z"/>
		</g>
		<g>
			<path d="M98.2,1.1c0-0.3,0.2-0.5,0.5-0.5h22c0.3,0,0.5,0.2,0.5,0.5v5.4c0,0.3-0.2,0.5-0.5,0.5h-14.8c-0.2,0-0.3,0.1-0.3,0.3v6.8
				c0,0.2,0.1,0.3,0.3,0.3h12.3c0.3,0,0.5,0.2,0.5,0.5v5.3c0,0.3-0.2,0.5-0.5,0.5h-12.3c-0.2,0-0.3,0.1-0.3,0.3v7.1
				c0,0.2,0.1,0.3,0.3,0.3h14.8c0.3,0,0.5,0.2,0.5,0.5v5.4c0,0.3-0.2,0.5-0.5,0.5h-22c-0.3,0-0.5-0.2-0.5-0.5V1.1z"/>
		</g>
		<g>
			<path d="M135.9,1.1c0.1-0.3,0.3-0.5,0.7-0.5h6.4c0.4,0,0.6,0.2,0.7,0.5l11.6,33.3c0.1,0.3,0,0.5-0.4,0.5h-6.6
				c-0.4,0-0.6-0.2-0.7-0.5l-2-6h-12l-1.9,6c-0.1,0.4-0.3,0.5-0.7,0.5h-6.6c-0.4,0-0.5-0.2-0.4-0.5L135.9,1.1z M143.6,22l-3.9-12
				h-0.2l-3.9,12H143.6z"/>
		</g>
		<g>
			<path d="M159.2,1.1c0-0.3,0.2-0.5,0.5-0.5h6c0.4,0,0.7,0.2,0.8,0.5l8.7,19.6h0.2l8.5-19.6c0.2-0.4,0.4-0.5,0.8-0.5h5.9
				c0.3,0,0.5,0.2,0.5,0.5v33.3c0,0.3-0.2,0.5-0.5,0.5h-5.7c-0.3,0-0.5-0.2-0.5-0.5V15h-0.2l-6.4,14.5c-0.2,0.5-0.5,0.7-1,0.7h-3.5
				c-0.5,0-0.8-0.2-1-0.7L166.1,15h-0.2v19.3c0,0.3-0.2,0.5-0.5,0.5h-5.7c-0.3,0-0.5-0.2-0.5-0.5V1.1z"/>
		</g>
		<g>
			<path d="M207.9,30.7c-0.2-0.2-0.3-0.6-0.1-0.9l3.8-4.4c0.2-0.3,0.5-0.3,0.8-0.1c2.3,1.8,5.3,3.5,9,3.5c3.6,0,5.6-1.7,5.6-4.1
				c0-2-1.2-3.3-5.3-3.8l-1.8-0.3c-7-1-10.8-4.2-10.8-10.3C209,4.2,213.8,0,221.2,0c4.5,0,8.8,1.4,11.6,3.6c0.3,0.2,0.4,0.4,0.1,0.8
				l-3.1,4.6c-0.2,0.3-0.5,0.3-0.7,0.2c-2.6-1.7-5.1-2.6-8-2.6c-3,0-4.6,1.6-4.6,3.7c0,2,1.4,3.2,5.3,3.8l1.8,0.3
				c7.1,1,10.8,4.2,10.8,10.4c0,6.2-4.6,10.8-13.5,10.8C215.8,35.4,210.6,33.3,207.9,30.7z"/>
		</g>
		<g>
			<path d="M246.5,34.8c-0.3,0-0.5-0.2-0.5-0.5V7.5c0-0.2-0.1-0.3-0.3-0.3H237c-0.3,0-0.5-0.2-0.5-0.5V1.1c0-0.3,0.2-0.5,0.5-0.5
				h25.4c0.3,0,0.5,0.2,0.5,0.5v5.6c0,0.3-0.2,0.5-0.5,0.5h-8.7c-0.2,0-0.3,0.1-0.3,0.3v26.9c0,0.3-0.2,0.5-0.5,0.5H246.5z"/>
		</g>
		<g>
			<path d="M267,1.1c0-0.3,0.2-0.5,0.5-0.5h22c0.3,0,0.5,0.2,0.5,0.5v5.4c0,0.3-0.2,0.5-0.5,0.5h-14.8c-0.2,0-0.3,0.1-0.3,0.3v6.8
				c0,0.2,0.1,0.3,0.3,0.3H287c0.3,0,0.5,0.2,0.5,0.5v5.3c0,0.3-0.2,0.5-0.5,0.5h-12.3c-0.2,0-0.3,0.1-0.3,0.3v7.1
				c0,0.2,0.1,0.3,0.3,0.3h14.8c0.3,0,0.5,0.2,0.5,0.5v5.4c0,0.3-0.2,0.5-0.5,0.5h-22c-0.3,0-0.5-0.2-0.5-0.5V1.1z"/>
		</g>
		<g>
			<path d="M296,34.8c-0.3,0-0.5-0.2-0.5-0.5V1.1c0-0.3,0.2-0.5,0.5-0.5h13.3c7.5,0,11.9,4.5,11.9,11c0,6.5-4.5,11-11.9,11h-6.1
				c-0.2,0-0.3,0.1-0.3,0.3v11.4c0,0.3-0.2,0.5-0.5,0.5H296z M313.9,11.6c0-2.8-1.9-4.6-5-4.6h-5.6c-0.2,0-0.3,0.1-0.3,0.3v8.6
				c0,0.2,0.1,0.3,0.3,0.3h5.6C312,16.2,313.9,14.4,313.9,11.6z"/>
		</g>
	</g>
	<g>
		<g>
			<path d="M330.2,11.3c-0.1,0-0.2-0.1-0.2-0.2V2.8c0-0.1,0-0.1-0.1-0.1h-2.7c-0.1,0-0.2-0.1-0.2-0.2V0.9c0-0.1,0.1-0.2,0.2-0.2h7.8
				c0.1,0,0.2,0.1,0.2,0.2v1.7c0,0.1-0.1,0.2-0.2,0.2h-2.7c-0.1,0-0.1,0-0.1,0.1v8.3c0,0.1-0.1,0.2-0.2,0.2H330.2z"/>
		</g>
		<g>
			<path d="M336.6,0.9c0-0.1,0.1-0.2,0.2-0.2h1.9c0.1,0,0.2,0,0.3,0.2l2.7,6.1h0.1l2.6-6.1c0-0.1,0.1-0.2,0.2-0.2h1.8
				c0.1,0,0.2,0.1,0.2,0.2v10.3c0,0.1-0.1,0.2-0.2,0.2h-1.8c-0.1,0-0.2-0.1-0.2-0.2v-6h-0.1l-2,4.5c-0.1,0.1-0.2,0.2-0.3,0.2H341
				c-0.1,0-0.2-0.1-0.3-0.2l-2-4.5h-0.1v6c0,0.1-0.1,0.2-0.2,0.2h-1.8c-0.1,0-0.2-0.1-0.2-0.2V0.9z"/>
		</g>
	</g>
	<g>
		<g>
			<path d="M27.7,8.4L27.7,8.4l-5.4,3.7c-0.3,0.2-0.5,0.1-0.5-0.3V5.7c0-0.3,0.1-0.5,0.3-0.7l6.1-4.3H0v33.5h27.7v-0.3V8.4z"/>
		</g>
	</g>
</g>
</svg>
