<?xml version="1.0" encoding="utf-8"?>
<!-- Generator: Adobe Illustrator 21.0.0, SVG Export Plug-In . SVG Version: 6.00 Build 0)  -->
<svg version="1.1" id="레이어_1" xmlns="http://www.w3.org/2000/svg" xmlns:xlink="http://www.w3.org/1999/xlink" x="0px"
	 y="0px" viewBox="0 0 56.9 91.3" style="enable-background:new 0 0 56.9 91.3;" xml:space="preserve">
<g id="XMLID_2488_">
	<g id="XMLID_2502_">
		<path id="XMLID_2503_" d="M34,6.4"/>
	</g>
	<g id="XMLID_2500_">
		<path id="XMLID_2501_" d="M33.3,26.6c0,2.7-2.2,4.9-4.9,4.9c-2.7,0-4.9-2.2-4.9-4.9"/>
	</g>
	<g id="XMLID_2498_">
		<g id="XMLID_2499_">
			<path d="M28.4,38.6c-9.7,0-17.6-7.9-17.6-17.6c0-8.6,6.2-15.9,14.7-17.4c0.1,0,3.9-0.8,4.1-3.7l4.2,0.2c-0.3,5-5,7.1-7.5,7.6
				C19.7,8.9,15,14.4,15,21c0,7.4,6,13.4,13.4,13.4c7.4,0,13.4-6,13.4-13.4c0-5.6-3.5-10.6-8.7-12.6l1.5-3.9
				c6.8,2.6,11.4,9.2,11.4,16.5C46.1,30.7,38.2,38.6,28.4,38.6z"/>
		</g>
	</g>
	<g id="XMLID_2493_">
		<g id="XMLID_2496_">
			<g id="XMLID_2497_">
				<path d="M19.4,58.3h-4.2l0-8.7c-0.1-3.4-0.4-5.6-2.8-7.2C-2,32.4,0.1,19.7,0.2,19.2l4.1,0.7l-2.1-0.4l2.1,0.3
					c-0.1,0.4-1.6,10.6,10.5,19c4.3,2.8,4.5,7.2,4.7,10.5l0,0.8V58.3z"/>
			</g>
		</g>
		<g id="XMLID_2494_">
			<g id="XMLID_2495_">
				<path d="M41.6,91.3h-4.2l0-41.9c0.1-3.3,0.3-7.7,4.8-10.5c12.1-8.4,10.4-18.9,10.4-19l4.1-0.7c0.1,0.5,2.2,13.2-12.2,23.2
					c-2.5,1.6-2.7,3.8-2.9,7.2l0,0.9L41.6,91.3z"/>
			</g>
		</g>
	</g>
	<g id="XMLID_2491_">
		<g id="XMLID_2492_">
			<path d="M14.8,67.8l-2.7-3.2c4.6-3.9,10.4-6,16.4-6s11.8,2.1,16.4,6l-2.7,3.2c-3.8-3.2-8.6-5-13.7-5
				C23.4,62.7,18.6,64.5,14.8,67.8z"/>
		</g>
	</g>
	<g id="XMLID_2489_">
		<g id="XMLID_2490_">
			<rect x="15.3" y="63.5" width="4.2" height="27.8"/>
		</g>
	</g>
</g>
</svg>
