<?xml version="1.0" encoding="utf-8"?>
<!-- Generator: Adobe Illustrator 21.0.0, SVG Export Plug-In . SVG Version: 6.00 Build 0)  -->
<svg version="1.1" id="레이어_1" xmlns="http://www.w3.org/2000/svg" xmlns:xlink="http://www.w3.org/1999/xlink" x="0px"
	 y="0px" viewBox="0 0 55.4 83" style="enable-background:new 0 0 55.4 83;" xml:space="preserve">
<g id="XMLID_1952_">
	<g>
		<path d="M37.7,65.2h-20v-2.9c0-10.1-7.1-17.1-9-18.8l-0.1,0L8,42.9c-5.2-4.7-8-11-8-17.7C0,11.3,12.4,0,27.7,0
			C43,0,55.4,11.3,55.4,25.2c0,6.7-2.8,13-8,17.7l-1.8,1.7c-2.7,2.8-7.8,9.2-7.8,17.7V65.2z M23.4,59.4H32
			c1.3-12.7,11.1-20.6,11.6-20.9l0,0c3.8-3.6,5.9-8.3,5.9-13.2c0-10.7-9.8-19.4-21.9-19.4c-12.1,0-21.9,8.7-21.9,19.4
			c0,5,2.1,9.6,5.9,13.3l0,0C12.2,38.8,22,46.6,23.4,59.4z"/>
	</g>
	<g>
		<rect x="17.7" y="68.9" width="19.9" height="5.8"/>
	</g>
	<g>
		<rect x="17.7" y="77.2" width="19.9" height="5.8"/>
	</g>
	<g>
		<path d="M9.6,24.6c-0.2-7,6.1-11.9,6.4-12.1c0.3-0.2,3.5-2.7,6.9-2.7v5.8c-1,0-2.6,0.9-3.3,1.5c-0.1,0.1-4.3,3.3-4.1,7.3L9.6,24.6
			z"/>
	</g>
</g>
</svg>
