<?xml version="1.0" encoding="utf-8"?>
<!-- Generator: Adobe Illustrator 21.0.0, SVG Export Plug-In . SVG Version: 6.00 Build 0)  -->
<svg version="1.1" id="레이어_1" xmlns="http://www.w3.org/2000/svg" xmlns:xlink="http://www.w3.org/1999/xlink" x="0px"
	 y="0px" viewBox="0 0 111.8 94" style="enable-background:new 0 0 111.8 94;" xml:space="preserve">
<g>
	<g>
		<path d="M17.2,73c0.9,0.8,1.9,1.4,3.2,1.8s2.5,0.6,3.8,0.6s2.6-0.2,3.8-0.6c1.2-0.4,2.3-1,3.2-1.8c0.9-0.8,1.6-1.8,2.1-3.1
			c0.5-1.3,0.8-2.9,0.8-4.7v-3.9c0-1.8-0.3-3.4-0.8-4.6s-1.3-2.3-2.2-3.1c-0.9-0.8-2-1.4-3.2-1.8s-2.5-0.6-3.8-0.6s-2.6,0.2-3.8,0.6
			c-1.2,0.4-2.3,1-3.2,1.8c-0.9,0.8-1.6,1.9-2.2,3.1s-0.8,2.8-0.8,4.6v3.9c0,1.8,0.3,3.4,0.8,4.7C15.6,71.1,16.3,72.2,17.2,73z
			 M18.5,61.8c0-1.3,0.2-2.5,0.5-3.3c0.3-0.9,0.7-1.6,1.2-2.1c0.5-0.5,1.1-0.9,1.8-1.1s1.4-0.3,2.2-0.3c0.8,0,1.5,0.1,2.2,0.3
			s1.3,0.6,1.8,1.1c0.5,0.5,0.9,1.2,1.2,2.1c0.3,0.9,0.4,2,0.4,3.3v2.8c0,1.3-0.1,2.5-0.4,3.3c-0.3,0.9-0.7,1.6-1.2,2.1
			c-0.5,0.5-1.1,0.9-1.8,1.1c-0.7,0.2-1.4,0.3-2.2,0.3c-0.8,0-1.5-0.1-2.2-0.3c-0.7-0.2-1.3-0.6-1.8-1.1c-0.5-0.5-0.9-1.2-1.2-2.1
			c-0.3-0.9-0.5-2-0.5-3.3V61.8z"/>
	</g>
	<g>
		<path d="M42.7,65.9h4.7c1.4,0,2.5-0.2,3.5-0.6c1-0.4,1.8-0.9,2.5-1.5s1.2-1.4,1.5-2.2c0.3-0.9,0.5-1.8,0.5-2.7v-0.7
			c0-1-0.2-1.8-0.5-2.7c-0.3-0.8-0.8-1.5-1.4-2.1C52.8,52.8,52,52.3,51,52c-1-0.3-2.2-0.5-3.6-0.5h-8.8v23.4h4.2V65.9z M42.7,55h4.5
			c0.6,0,1.1,0,1.6,0.1s0.9,0.3,1.3,0.5s0.6,0.6,0.8,1c0.2,0.4,0.3,0.9,0.3,1.6v0.6c0,1.4-0.4,2.3-1.2,2.8c-0.8,0.5-1.9,0.8-3.2,0.8
			h-4.1V55z"/>
	</g>
	<g>
		<polygon points="74.5,71.5 63.3,71.5 63.3,64.6 73.6,64.6 73.6,61.2 63.3,61.2 63.3,54.9 74.3,54.9 74.3,51.5 59.2,51.5 
			59.2,74.9 74.5,74.9 		"/>
	</g>
	<g>
		<path d="M82.9,57.1c0.2,0.7,0.4,1.3,0.6,1.9c0.3,0.6,0.5,1.2,0.8,1.7l8,14.2h4.8V51.5h-3.9v17.9c-0.2-0.8-0.4-1.5-0.7-2.1
			c-0.3-0.6-0.6-1.2-0.8-1.6l-8-14.2H79v23.4h3.9V57.1z"/>
	</g>
	<g>
		<path d="M97.6,33.5L55.9,0L14.2,33.5H0V94h111.8V33.5H97.6z M55.9,6.4l33.7,27.1H22.1L55.9,6.4z M106.9,89.2H4.9V38.4h102.1V89.2z
			"/>
	</g>
</g>
</svg>
