<?xml version="1.0" encoding="utf-8"?>
<!-- Generator: Adobe Illustrator 16.0.0, SVG Export Plug-In . SVG Version: 6.00 Build 0)  -->
<!DOCTYPE svg PUBLIC "-//W3C//DTD SVG 1.1//EN" "http://www.w3.org/Graphics/SVG/1.1/DTD/svg11.dtd">
<svg version="1.1" id="Layer_1" xmlns="http://www.w3.org/2000/svg" xmlns:xlink="http://www.w3.org/1999/xlink" x="0px" y="0px"
	 width="175.631px" height="99.999px" viewBox="0 0 175.631 99.999" enable-background="new 0 0 175.631 99.999"
	 xml:space="preserve">
<g>
	<path id="XMLID_125_" fill="#DC4E20" d="M34.777,59.36c-0.214,2.032-0.856,3.317-1.926,3.745c-1.177,0.533-2.675,0.643-4.387,0.214
		c-4.494-0.857-8.454-1.283-12.093-1.07c-3.637,0.213-7.276,0.429-10.807,0.535c-1.391,0.106-2.675-0.106-3.746-0.535
		C0.534,61.928,0,60.964,0,59.36c0-1.499,0.321-2.676,0.962-3.424c0.643-0.644,1.712-1.072,3.425-1.392
		c1.07-0.108,2.247-0.216,3.531-0.429c1.069-0.106,2.247-0.215,3.531-0.429c0-1.177,0-2.354,0.107-3.531
		c0-1.069,0.106-2.14,0.428-3.425c0.321-1.604,0.346-1.448,1.16-2.581c0.819-1.14,2.158-1.425,3.87-1.425
		c2.14,0,3.72,0.291,4.851,0.944c0.995,0.575,1.462,0.708,1.784,2.42c0.214,1.499,0.107,2.783-0.107,3.746
		c-0.321,1.069-0.642,1.927-0.962,2.568c-0.108,0.213-0.108,0.535-0.108,0.962c1.177,0.108,2.355,0.215,3.638,0.215
		c1.07,0.213,2.247,0.32,3.425,0.535c2.033,0.429,3.531,0.962,4.387,1.712C34.67,56.685,34.992,57.861,34.777,59.36z"/>
	<path id="XMLID_124_" fill="#DC4E20" d="M10.337,18.752c-0.642,0.214-1.284,0.428-1.82,0.536c-0.642,0.214-1.283,0.214-1.712,0
		c-0.642,0-1.069-0.322-1.498-0.75c-0.428-0.427-0.856-1.069-1.07-2.139c-0.214-0.856-0.321-1.712-0.107-2.354
		c0-0.535,0.322-1.07,0.75-1.499c0.428-0.428,0.963-0.749,1.605-1.178c0.643-0.213,1.391-0.535,2.247-0.962
		c0.535-0.214,1.284-0.428,2.14-0.642c0.856-0.107,1.82-0.214,2.89-0.429c-0.856-1.391-1.391-2.675-1.391-3.959
		c-0.214-0.963-0.107-1.819,0.106-2.675c0.214-0.749,0.749-1.391,1.605-2.033c0.75-0.536,1.605-0.749,2.568-0.643
		c0.856,0.213,1.605,0.643,2.462,1.178c0.962,0.856,1.925,1.818,2.781,3.103c0.749,1.39,1.392,2.675,1.926,3.959
		c1.178-0.107,2.248-0.213,3.318-0.213h2.674c1.926,0.106,3.21,0.534,4.066,1.283c0.643,0.856,0.963,1.82,0.963,3.104
		c-0.106,1.07-0.643,1.818-1.499,2.461c-0.962,0.642-2.247,0.962-3.852,0.962c-1.498,0-2.997,0.106-4.602,0.214
		c-1.712,0.214-3.317,0.321-5.029,0.535l-5.029,0.962C13.12,18.004,11.622,18.325,10.337,18.752z"/>
	<path id="XMLID_123_" fill="#DC4E20" d="M19.804,23.623c-0.643-0.321-1.07-0.643-1.285-1.07c-0.214-0.214-0.321-0.75-0.106-1.392
		c0.106-0.642,0.321-1.07,0.749-1.391c0.214-0.214,0.749-0.321,1.605-0.321c1.926,0.107,3.425,0.535,4.495,1.392
		c0.962,0.962,1.605,2.14,1.818,3.53c0.214,1.712,0,3.318-0.535,4.922c-0.642,1.712-1.391,3.211-2.354,4.388
		c-0.857,0.963-1.713,1.819-2.675,2.675c-1.07,0.963-2.141,1.712-3.21,2.14c-1.177,0.642-2.354,0.963-3.424,0.963
		c-1.177,0.107-2.247-0.214-3.21-0.963c-1.285-0.856-2.034-1.926-2.141-3.424c-0.214-1.284-0.106-2.676,0.321-4.174
		c0.429-1.284,1.071-2.568,1.927-3.852c0.856-1.178,1.712-2.033,2.568-2.676c0.75-0.535,1.391-0.856,1.818-0.856
		c0.321,0.108,0.75,0.321,1.285,0.535c0.321,0.214,0.643,0.642,0.856,1.177c0.214,0.642,0.107,1.177-0.321,1.605
		c-0.856,1.071-1.391,1.927-1.605,2.783c-0.321,0.856-0.321,1.39,0,1.39c0.428,0.214,0.856,0,1.391-0.427
		c0.428-0.321,0.963-0.856,1.391-1.498c0.428-0.642,0.749-1.286,1.07-2.141c0.214-0.749,0.429-1.499,0.429-2.248
		c0-0.321-0.107-0.535-0.107-0.748C20.339,23.943,20.125,23.836,19.804,23.623z"/>
	<path id="XMLID_122_" fill="#DC4E20" d="M63.193,72.392c-0.213,2.034-0.856,3.317-1.926,3.746
		c-1.178,0.533-2.675,0.642-4.387,0.213c-4.495-0.856-8.454-1.283-12.092-1.069c-3.638,0.213-7.277,0.428-10.808,0.534
		c-1.392,0.107-2.675-0.106-3.746-0.534c-1.284-0.322-1.819-1.284-1.819-2.89c0-1.498,0.321-2.675,0.963-3.423
		c0.643-0.645,1.712-1.07,3.424-1.393c1.07-0.106,2.247-0.213,3.532-0.429c1.07-0.106,3.589-0.111,4.874-0.325
		c0-1.177,0-2.355,0.107-3.532c0-1.07,0.106-2.14,0.428-3.424c0.321-1.605,0.856-2.997,1.605-4.174
		c0.642-1.07,0.834-1.444,2.082-1.706c2.094-0.439,3.746,0.428,4.816,1.177c0.856,0.856,1.498,2.247,1.818,3.959
		c0.214,1.498,0.107,2.783-0.106,3.745c-0.321,1.07-0.642,1.927-0.963,2.568c-0.107,0.214-0.107,0.535-0.107,0.964
		c1.177,0.106,2.354,0.214,3.639,0.214c1.069,0.215,2.246,0.321,3.424,0.534c2.034,0.429,3.532,0.964,4.388,1.712
		C63.086,69.717,63.407,70.894,63.193,72.392z"/>
	<path id="XMLID_120_" fill="#DC4E20" d="M51.315,93.045c-0.963,1.07-2.034,2.247-3.104,3.317c-1.285,0.962-2.461,1.818-3.745,2.46
		c-1.285,0.642-2.569,0.964-3.853,1.177c-1.284,0-2.461-0.319-3.532-1.177c-1.283-1.07-2.033-2.247-2.139-3.745
		c-0.214-1.497-0.107-3.104,0.535-4.601c0.427-1.499,1.177-2.997,2.247-4.388c0.856-1.285,1.819-2.355,2.782-3.104
		c0.75-0.535,1.391-0.855,1.926-1.07c0.428,0,0.963,0.106,1.499,0.429c1.283,0.963,1.391,2.033,0.535,3.316
		c-1.07,1.393-1.713,2.569-2.034,3.424c-0.428,1.07-0.428,1.605,0,1.712c0.428,0.107,0.963,0,1.605-0.428
		c0.642-0.427,1.177-0.962,1.82-1.712c0.427-0.642,0.856-1.497,1.284-2.567c0.321-0.856,0.427-1.82,0.427-2.782
		c0-0.535-0.427-0.963-1.178-1.177c-0.642-0.108-1.069-0.428-1.283-0.963c-0.321-0.429-0.321-0.964-0.106-1.819
		c0.106-0.644,0.321-1.071,0.748-1.285c0.321-0.213,0.856-0.321,1.713-0.321c2.247,0.108,3.959,0.642,5.029,1.606
		c0.962,1.07,1.605,2.247,1.926,3.744c0.214,1.712,0.107,3.426-0.427,5.138C53.348,90.048,52.492,91.547,51.315,93.045z"/>
	<path id="XMLID_119_" fill="#DC4E20" d="M47.569,35.436c-0.643-0.321-1.07-0.643-1.284-1.07c-0.214-0.214-0.321-0.75-0.106-1.391
		c0.106-0.642,0.321-1.07,0.748-1.391c0.215-0.214,0.75-0.322,1.606-0.322c1.926,0.107,3.424,0.536,4.494,1.392
		c0.964,0.962,1.605,2.139,1.82,3.53c0.213,1.713,0,3.318-0.535,4.922c-0.642,1.712-1.392,3.211-2.354,4.388
		c-0.856,0.963-1.712,1.819-2.676,2.675c-1.07,0.963-2.139,1.712-3.21,2.141c-1.177,0.643-2.354,0.962-3.424,0.962
		c-1.177,0.106-2.248-0.213-3.21-0.962c-1.283-0.857-2.033-1.927-2.139-3.425c-0.215-1.284-0.107-2.675,0.32-4.174
		c0.429-1.284,1.07-2.568,1.926-3.852c0.856-1.178,1.713-2.033,2.569-2.676c0.749-0.535,1.391-0.856,1.819-0.856
		c0.321,0.107,0.749,0.321,1.283,0.535c0.321,0.214,0.643,0.642,0.856,1.178c0.214,0.642,0.108,1.177-0.321,1.605
		c-0.856,1.07-1.391,1.926-1.604,2.782c-0.322,0.856-0.322,1.39,0,1.39c0.427,0.214,0.856,0,1.39-0.427
		c0.428-0.321,0.963-0.856,1.391-1.498c0.429-0.642,0.75-1.284,1.071-2.14c0.213-0.749,0.428-1.499,0.428-2.248
		c0-0.321-0.107-0.535-0.107-0.748C48.104,35.757,47.891,35.649,47.569,35.436z"/>
	<g id="XMLID_89_">
		<path id="XMLID_118_" fill="#DC4E20" d="M166.128,65.59c-0.039-0.065-0.071-0.127-0.1-0.188c-0.162,0.093-0.321,0.19-0.476,0.295
			c0.054-0.017,0.112-0.032,0.178-0.049C165.849,65.633,165.98,65.618,166.128,65.59z"/>
		<path id="XMLID_90_" fill="#DC4E20" d="M175.631,71c0-3.554-2.881-6.436-6.436-6.436c-0.687,0-1.347,0.11-1.967,0.31
			c0.007,0.009,0.013,0.015,0.02,0.023c0.103,0.191,0.19,0.367,0.265,0.544c0.162-0.015,0.309-0.029,0.456-0.029h0.368
			c0.265,0.015,0.442,0.074,0.56,0.178c0.089,0.117,0.133,0.249,0.133,0.427c-0.015,0.146-0.089,0.249-0.206,0.338
			c-0.133,0.089-0.31,0.134-0.53,0.134c-0.206,0-0.412,0.015-0.633,0.028c-0.236,0.029-0.457,0.044-0.692,0.074l-0.692,0.132
			c-0.235,0.061-0.441,0.104-0.618,0.163c-0.089,0.029-0.178,0.058-0.251,0.072c-0.088,0.031-0.177,0.031-0.235,0
			c-0.089,0-0.147-0.043-0.206-0.103c-0.059-0.059-0.117-0.146-0.147-0.295c-0.021-0.089-0.029-0.172-0.021-0.248
			c-1.251,1.174-2.036,2.838-2.036,4.688c0,3.554,2.881,6.436,6.436,6.436c0.315,0,0.623-0.029,0.927-0.074
			c-0.007-0.032-0.017-0.065-0.019-0.1c-0.03-0.206-0.015-0.428,0.073-0.634c0.06-0.206,0.162-0.413,0.31-0.604
			c0.117-0.177,0.25-0.323,0.383-0.427c0.103-0.073,0.191-0.117,0.266-0.146c0.059,0,0.132,0.014,0.206,0.058
			c0.176,0.132,0.191,0.28,0.073,0.457c-0.147,0.191-0.236,0.353-0.279,0.47c-0.06,0.148-0.06,0.223,0,0.237
			c0.059,0.015,0.132,0,0.22-0.06c0.089-0.059,0.162-0.132,0.251-0.235c0.059-0.089,0.117-0.206,0.176-0.354
			c0.045-0.117,0.06-0.249,0.06-0.383c0-0.072-0.06-0.132-0.162-0.161c-0.088-0.015-0.146-0.06-0.177-0.134
			c-0.044-0.058-0.044-0.132-0.015-0.249c0.015-0.089,0.045-0.146,0.104-0.178c0.044-0.028,0.117-0.043,0.235-0.043
			c0.31,0.015,0.545,0.089,0.692,0.221c0.133,0.147,0.221,0.309,0.265,0.515c0.029,0.235,0.016,0.472-0.059,0.707
			c-0.011,0.031-0.026,0.055-0.037,0.083C174.457,75.256,175.631,73.267,175.631,71z M165.657,68.534
			c0.059-0.177,0.147-0.354,0.265-0.529c0.118-0.163,0.236-0.28,0.354-0.369c0.103-0.074,0.191-0.117,0.25-0.117
			c0.045,0.015,0.104,0.043,0.178,0.074c0.044,0.028,0.087,0.087,0.117,0.161c0.03,0.088,0.016,0.162-0.044,0.22
			c-0.118,0.148-0.192,0.267-0.221,0.384c-0.045,0.117-0.045,0.191,0,0.191c0.059,0.029,0.117,0,0.191-0.06
			c0.059-0.043,0.132-0.117,0.19-0.206c0.06-0.087,0.104-0.176,0.147-0.295c0.03-0.101,0.06-0.206,0.06-0.309
			c0-0.044-0.015-0.072-0.015-0.104c-0.029,0-0.06-0.015-0.104-0.043c-0.089-0.044-0.147-0.089-0.176-0.148
			c-0.03-0.029-0.045-0.104-0.015-0.189c0.015-0.089,0.043-0.148,0.102-0.192c0.03-0.03,0.104-0.045,0.222-0.045
			c0.265,0.015,0.471,0.074,0.618,0.191c0.133,0.132,0.221,0.295,0.251,0.486c0.029,0.235,0,0.458-0.073,0.678
			c-0.089,0.235-0.192,0.441-0.325,0.604c-0.117,0.132-0.235,0.249-0.367,0.366c-0.147,0.134-0.295,0.237-0.442,0.295
			c-0.162,0.089-0.323,0.134-0.471,0.134c-0.163,0.015-0.31-0.03-0.442-0.134c-0.177-0.117-0.28-0.264-0.295-0.47
			C165.583,68.932,165.599,68.74,165.657,68.534z M169.177,72.618c-0.03,0.28-0.117,0.457-0.265,0.517
			c-0.163,0.072-0.369,0.087-0.604,0.029c-0.619-0.117-1.163-0.178-1.663-0.148c-0.501,0.031-1.002,0.06-1.488,0.074
			c-0.191,0.015-0.369-0.015-0.515-0.074c-0.178-0.043-0.251-0.175-0.251-0.397c0-0.206,0.044-0.367,0.132-0.47
			c0.089-0.089,0.236-0.148,0.472-0.192c0.147-0.014,0.31-0.028,0.485-0.06c0.147-0.015,0.31-0.028,0.486-0.058
			c0-0.163,0-0.325,0.015-0.486c0-0.148,0.016-0.295,0.06-0.472c0.044-0.221,0.118-0.412,0.221-0.575
			c0.089-0.146,0.236-0.221,0.471-0.221c0.295,0,0.517,0.061,0.663,0.163c0.118,0.117,0.206,0.31,0.251,0.544
			c0.029,0.206,0.015,0.384-0.016,0.516c-0.044,0.148-0.088,0.266-0.132,0.354c-0.016,0.028-0.016,0.074-0.016,0.132
			c0.163,0.015,0.325,0.028,0.501,0.028c0.147,0.031,0.31,0.046,0.472,0.074c0.279,0.06,0.485,0.132,0.604,0.237
			C169.162,72.251,169.206,72.412,169.177,72.618z M171.369,70.069c0.06,0.028,0.118,0,0.191-0.058
			c0.06-0.046,0.134-0.12,0.192-0.206c0.059-0.089,0.103-0.178,0.147-0.295c0.028-0.104,0.059-0.206,0.059-0.31
			c0-0.045-0.015-0.074-0.015-0.103c-0.03,0-0.06-0.017-0.104-0.046c-0.088-0.043-0.146-0.088-0.177-0.146
			c-0.029-0.031-0.044-0.104-0.015-0.192c0.015-0.088,0.045-0.147,0.104-0.191c0.028-0.029,0.103-0.045,0.221-0.045
			c0.266,0.016,0.472,0.074,0.618,0.191c0.133,0.134,0.221,0.295,0.251,0.486c0.029,0.235,0,0.457-0.074,0.678
			c-0.089,0.235-0.191,0.441-0.323,0.604c-0.119,0.133-0.236,0.25-0.369,0.367c-0.147,0.134-0.295,0.237-0.441,0.295
			c-0.162,0.089-0.324,0.134-0.472,0.134c-0.161,0.015-0.309-0.031-0.441-0.134c-0.177-0.117-0.279-0.264-0.294-0.47
			c-0.03-0.178-0.016-0.369,0.043-0.575c0.06-0.177,0.147-0.353,0.266-0.529c0.118-0.163,0.235-0.28,0.354-0.369
			c0.104-0.074,0.191-0.117,0.251-0.117c0.044,0.014,0.103,0.043,0.176,0.074c0.044,0.028,0.089,0.088,0.118,0.16
			c0.029,0.089,0.015,0.163-0.044,0.221c-0.118,0.148-0.191,0.266-0.222,0.384C171.325,69.995,171.325,70.069,171.369,70.069z
			 M173.122,74.685c-0.618-0.118-1.163-0.178-1.664-0.148c-0.501,0.03-1.002,0.06-1.487,0.074c-0.191,0.015-0.368-0.015-0.516-0.074
			c-0.177-0.044-0.25-0.176-0.25-0.396c0-0.207,0.044-0.368,0.133-0.472c0.088-0.088,0.234-0.147,0.471-0.191
			c0.147-0.015,0.309-0.029,0.486-0.06c0.147-0.015,0.309-0.029,0.485-0.058c0-0.163,0-0.325,0.016-0.486
			c0-0.148,0.014-0.295,0.059-0.472c0.044-0.221,0.117-0.412,0.221-0.573c0.088-0.148,0.235-0.223,0.472-0.223
			c0.294,0,0.515,0.06,0.662,0.163c0.117,0.117,0.206,0.309,0.25,0.544c0.029,0.206,0.015,0.383-0.014,0.516
			c-0.045,0.147-0.089,0.266-0.133,0.354c-0.015,0.029-0.015,0.074-0.015,0.133c0.161,0.014,0.323,0.03,0.501,0.03
			c0.146,0.029,0.309,0.043,0.471,0.072c0.28,0.06,0.486,0.134,0.604,0.237c0.104,0.117,0.147,0.278,0.117,0.485
			c-0.028,0.279-0.117,0.456-0.265,0.516C173.563,74.728,173.357,74.744,173.122,74.685z"/>
	</g>
	<path id="XMLID_84_" fill="#DC4E20" d="M63.258,42.533c0-0.604,0.228-0.982,0.681-1.209c0.454-0.151,0.832-0.302,1.285-0.377
		c0.529,0,0.982-0.076,1.436-0.151h1.209c0.303,0,0.757,0.075,1.209,0.075c0.378,0.076,0.907,0.152,1.512,0.152
		c0.681,0.151,1.209,0.302,1.663,0.454c0.303,0.226,0.53,0.605,0.53,1.209c0,0.605-0.227,0.982-0.605,1.285
		c-0.454,0.303-0.983,0.455-1.664,0.378c-0.302,0-0.604,0-0.831-0.076h-0.756c-0.151,0.906-0.151,1.588-0.151,2.192
		c0,0.68,0,1.36,0.151,2.116c0,0.303,0.076,0.53,0.227,0.53c0.076,0.151,0.302,0.151,0.756,0.151c0.076,0,0.227,0,0.378-0.076
		c0.152,0,0.378,0,0.832-0.151c0.378-0.076,0.756,0,1.134,0.227c0.303,0.302,0.53,0.832,0.681,1.436
		c0.076,0.604,0.076,0.984,0,1.286c-0.151,0.378-0.454,0.755-0.982,1.058c-0.681,0.453-1.438,0.681-2.268,0.755
		c-0.907,0.152-1.512,0.152-1.739,0.152c-0.908,0-1.512-0.152-1.965-0.605c-0.529-0.378-0.907-0.906-1.134-1.588
		c-0.151-0.377-0.303-0.905-0.303-1.662c-0.151-0.605-0.151-1.361-0.151-2.117c-0.076-0.68-0.076-1.361,0-2.116
		c0-0.682,0.075-1.286,0.151-1.815C63.636,44.045,63.258,43.592,63.258,42.533z M73.388,40.795c0-0.605,0.151-0.983,0.529-1.209
		c0.303-0.152,0.681-0.303,1.134-0.379c1.059-0.076,2.116-0.151,3.099-0.151c0.907,0.075,1.966,0.151,3.175,0.227
		c0.68,0.151,1.209,0.303,1.663,0.454c0.302,0.227,0.529,0.604,0.529,1.209c0,0.604-0.227,0.982-0.604,1.285
		c-0.454,0.302-0.982,0.454-1.663,0.378c-0.454,0-0.832,0-1.209-0.076c-0.454,0-0.832-0.075-1.209-0.075
		c-0.152,0.982-0.152,1.966-0.152,2.872c-0.075,0.982-0.075,1.89,0.076,2.646c0,0.303,0.076,0.53,0.227,0.53
		c0.075,0.151,0.303,0.151,0.756,0.151c0.303,0,0.53,0,0.756-0.076c0.151,0,0.378,0,0.68-0.151c0.832-0.151,1.437,0.302,1.815,1.436
		c0.151,0.604,0.151,0.984,0.075,1.286c-0.151,0.378-0.529,0.756-1.059,1.058c-0.302,0.228-0.68,0.378-1.133,0.529
		c-0.454,0.152-0.908,0.303-1.285,0.303c-0.454,0.151-0.756,0.228-1.059,0.228c-0.378,0.074-0.604,0.074-0.756,0.074
		c-0.907,0-1.511-0.15-1.965-0.604c-0.528-0.377-0.907-0.907-1.133-1.587c-0.152-0.378-0.303-0.983-0.303-1.814
		c-0.151-0.756-0.151-1.588-0.151-2.495c-0.076-0.832-0.076-1.664,0-2.57c0-0.756,0.075-1.437,0.151-1.966
		C73.69,42.306,73.388,41.853,73.388,40.795z M84.047,71.712c0.075-0.451,0.151-1.057,0.302-1.738
		c0.076-0.604,0.151-1.21,0.227-1.89c0-0.604,0.076-1.285,0.151-1.889v-1.438v-0.68c-0.075-0.075-0.227-0.151-0.453-0.228
		c-0.605-0.074-1.512,0-2.57,0.152l-3.326,0.68c-1.059,0.304-1.89,0.228-2.646-0.076c-0.756-0.227-1.209-0.83-1.284-1.89
		c-0.152-0.983,0.075-1.738,0.604-2.192c0.454-0.454,1.059-0.756,1.814-1.058c1.36-0.529,2.948-0.983,4.687-1.285
		c1.663-0.228,3.175-0.378,4.688-0.454c1.058,0,1.966,0.076,2.721,0.227c0.605,0.151,1.134,0.453,1.436,0.831
		c0.303,0.454,0.454,0.983,0.454,1.663c0,0.758-0.076,1.589-0.227,2.646c-0.303,1.892-0.681,3.555-0.982,5.065
		c-0.454,1.512-0.832,2.872-1.21,4.006c-0.529,1.663-1.437,2.345-2.722,2.192c-0.604-0.075-1.133-0.302-1.436-0.755
		C83.896,73.226,83.82,72.62,84.047,71.712z M82.686,45.405c0-0.377,0.227-0.756,0.529-1.209c0.303-0.378,0.833-0.604,1.739-0.604
		c0.755,0,1.436,0,1.966-0.076c0.454,0,1.058-0.076,1.663-0.227c0-1.286,0.075-2.571,0.151-3.856c0-1.209,0.076-2.495,0.227-3.855
		c0.151-2.117,0.605-3.629,1.512-4.385c0.756-0.681,1.663-0.982,2.569-0.982c1.286,0.151,2.193,0.453,2.798,1.058
		c0.528,0.604,0.831,1.891,0.831,3.78v2.344c-0.075,0.908-0.151,1.965-0.151,3.174c-0.075,1.286-0.151,2.874-0.151,4.688
		c-0.15,1.965-0.227,4.308-0.302,7.181c0,0.604-0.075,1.134-0.075,1.588c-0.151,0.604-0.303,1.057-0.529,1.435
		c-0.303,0.454-0.757,0.758-1.209,0.983c-0.53,0.302-1.211,0.454-2.042,0.454c-1.512,0-2.419-0.302-2.872-1.06
		c-0.529-0.604-0.756-1.737-0.756-3.25v-4.006c-1.437,0-2.798-0.227-4.083-0.756c-0.604-0.227-1.058-0.529-1.36-0.832
		C82.686,46.767,82.535,46.238,82.686,45.405z"/>
	<path id="XMLID_83_" fill="#DC4E20" d="M107.015,81.318c0-0.604,0-1.133,0.151-1.737c0-0.682,0-1.209-0.076-1.587
		c-0.15-0.304-0.227-0.605-0.302-0.758c-0.15-0.149-0.379-0.226-0.604-0.377c-0.529-0.15-1.285-0.227-2.192-0.076
		c-0.982,0.151-1.739,0.076-2.192-0.227c-0.604-0.302-0.983-0.983-1.134-2.041c-0.228-1.059-0.075-1.891,0.453-2.494
		c0.454-0.605,1.134-0.907,2.041-1.06c1.663-0.149,3.326-0.226,4.838-0.226c0.907,0,1.739,0.076,2.344,0.226
		c0.529,0.228,0.983,0.53,1.285,0.907c0.303,0.454,0.453,1.06,0.604,1.664c0.076,0.681,0.151,1.513,0.151,2.494
		c0,1.814-0.303,3.63-0.831,5.595c-0.303,0.983-0.681,1.663-1.135,1.965c-0.452,0.228-1.059,0.302-1.738,0.152
		c-0.378-0.152-0.756-0.378-1.059-0.682C107.166,82.68,107.015,82.076,107.015,81.318z"/>
	<path id="XMLID_82_" fill="#DC4E20" d="M126.141,64.84c-0.151,1.437-0.605,2.343-1.361,2.646c-0.831,0.377-1.89,0.453-3.1,0.149
		c-3.175-0.604-5.972-0.905-8.542-0.756c-2.569,0.152-5.141,0.303-7.635,0.378c-0.982,0.076-1.89-0.075-2.646-0.378
		c-0.907-0.226-1.285-0.907-1.285-2.04c0-1.058,0.227-1.89,0.68-2.419c0.453-0.454,1.209-0.756,2.419-0.983
		c0.756-0.076,1.588-0.15,2.495-0.302c0.756-0.076,1.587-0.152,2.495-0.302c0-0.832,0-1.663,0.075-2.495
		c0-0.756,0.075-1.513,0.302-2.421c0.228-1.133,0.605-2.114,1.135-2.946c0.453-0.757,1.209-1.135,2.419-1.135
		c1.512,0,2.646,0.302,3.401,0.831c0.605,0.605,1.058,1.589,1.285,2.799c0.151,1.058,0.075,1.965-0.075,2.645
		c-0.227,0.757-0.454,1.361-0.681,1.814c-0.075,0.152-0.075,0.378-0.075,0.68c0.831,0.076,1.662,0.152,2.569,0.152
		c0.757,0.151,1.588,0.226,2.42,0.378c1.437,0.302,2.494,0.68,3.099,1.209C126.064,62.95,126.292,63.782,126.141,64.84z"/>
	<path id="XMLID_81_" fill="#DC4E20" d="M114.045,42.009c0.076-0.302,0.151-0.68,0.227-0.982c0-0.302,0.075-0.604,0.228-0.983
		c-0.604,0.152-1.059,0.228-1.512,0.379c-0.53,0.151-1.059,0.303-1.513,0.378c-0.831,0.227-1.511,0.151-1.965-0.302
		c-0.529-0.303-0.832-0.907-0.832-1.664c-0.075-0.832,0.227-1.437,0.832-1.889c0.604-0.302,1.134-0.605,1.738-0.832
		c0.303-0.076,0.831-0.227,1.588-0.379c0.756-0.075,1.587-0.151,2.494-0.226c0-0.303,0.075-0.604,0.151-0.983v-0.906
		c0-1.437,0.378-2.419,1.135-3.024c0.604-0.454,1.435-0.681,2.493-0.604c1.21,0.151,1.89,0.604,2.193,1.36
		c0.227,0.907,0.302,1.739,0.227,2.57c-0.227,1.966-0.454,3.78-0.681,5.595c-0.302,1.889-0.681,3.703-1.209,5.442
		c-0.304,0.832-0.53,1.436-0.681,1.89c-0.303,0.53-0.529,0.908-0.832,1.209c-0.302,0.303-0.68,0.53-1.134,0.681
		c-0.529,0.227-1.134,0.379-1.738,0.529c-1.36,0.378-2.646,0.682-3.78,0.832c-1.209,0.303-2.343,0.455-3.402,0.529
		c-0.755,0.076-1.284,0-1.663-0.15c-0.452-0.076-0.755-0.303-0.982-0.757c-0.302-0.378-0.528-0.982-0.681-1.738
		c-0.226-0.68-0.452-1.588-0.755-2.721c-0.303-0.832-0.53-1.815-0.681-2.873c-0.227-0.983-0.378-1.966-0.529-2.873
		c-0.15-0.832-0.227-1.588-0.15-2.269c0-0.604,0.453-1.059,1.284-1.436c0.831-0.303,1.588-0.378,2.192-0.228
		c0.604,0.303,0.982,0.907,1.21,1.89c0.075,0.604,0.227,1.436,0.529,2.419c0.15,1.058,0.378,1.965,0.604,2.646
		c0.075,0.454,0.227,0.757,0.453,0.832c0.151,0.151,0.379,0.227,0.681,0.227c0.303,0,0.681,0,1.285-0.152
		c0.528-0.075,1.059-0.227,1.663-0.453c0.303-0.076,0.681-0.227,0.982-0.378C113.742,42.463,113.895,42.313,114.045,42.009z"/>
	<path id="XMLID_80_" fill="#DC4E20" d="M120.622,81.318c0-0.604,0-1.133,0.151-1.737c0-0.682,0-1.209-0.076-1.587
		c-0.15-0.304-0.227-0.605-0.303-0.758c-0.15-0.149-0.378-0.226-0.604-0.377c-0.528-0.15-1.285-0.227-2.191-0.076
		c-0.982,0.151-1.739,0.076-2.193-0.227c-0.604-0.302-0.982-0.983-1.134-2.041c-0.227-1.059-0.075-1.891,0.453-2.494
		c0.455-0.605,1.135-0.907,2.042-1.06c1.663-0.149,3.326-0.226,4.838-0.226c0.907,0,1.738,0.076,2.344,0.226
		c0.529,0.228,0.982,0.53,1.285,0.907c0.302,0.454,0.453,1.06,0.604,1.664c0.076,0.681,0.151,1.513,0.151,2.494
		c0,1.814-0.303,3.63-0.832,5.595c-0.302,0.983-0.68,1.663-1.134,1.965c-0.453,0.228-1.058,0.302-1.738,0.152
		c-0.378-0.152-0.756-0.378-1.058-0.682C120.773,82.68,120.622,82.076,120.622,81.318z"/>
	<path id="XMLID_79_" fill="#DC4E20" d="M144.282,54.973c-0.771,0.898-1.606,1.864-2.571,2.763c-1.028,1.028-2.12,1.8-3.277,2.442
		c-1.221,0.644-2.441,1.028-3.662,1.092c-1.286,0.13-2.442-0.192-3.535-0.964c-1.285-0.9-2.056-2.056-2.185-3.469
		c-0.192-1.414,0-2.827,0.515-4.306c0.449-1.414,1.156-2.828,2.056-4.113c0.899-1.286,1.8-2.249,2.699-2.892
		c0.643-0.514,1.221-0.771,1.734-0.9c0.45,0,0.9,0.129,1.35,0.45c0.708,0.579,1.093,1.221,1.093,1.864
		c0,0.771-0.321,1.414-0.835,1.992c-0.515,0.513-0.899,1.093-1.285,1.735c-0.45,0.642-0.771,1.285-1.029,1.799
		c-0.256,0.644-0.449,1.157-0.449,1.544c-0.063,0.448,0,0.707,0.257,0.77c0.45,0.193,1.029,0.129,1.672-0.193
		c0.643-0.257,1.285-0.707,1.928-1.413c0.577-0.642,1.156-1.478,1.67-2.571c0.45-1.027,0.771-2.248,0.965-3.662
		c0.128-1.157-0.322-1.864-1.285-1.992c-0.707-0.064-1.157-0.386-1.414-0.964c-0.321-0.514-0.386-1.092-0.193-1.863
		c0.128-0.708,0.45-1.157,0.9-1.285c0.385-0.064,1.027-0.129,1.799-0.129c1.928,0,3.342,0.514,4.306,1.415
		c0.899,1.028,1.478,2.185,1.734,3.534c0.258,1.607,0.129,3.213-0.449,4.884C146.146,52.274,145.31,53.751,144.282,54.973z"/>
	<path id="XMLID_78_" fill="#DC4E20" d="M158.62,33.512c0.064,2.249,0.064,4.37,0,6.427l-0.386,6.104l-0.578,6.041l-0.771,6.168
		c-0.45,3.534-0.559,4.668-1.072,7.816c-0.579,3.149-0.842,3.224-1.469,5.203c-0.129,0.387-0.321,0.771-0.45,1.156
		c-0.192,0.386-0.386,0.707-0.642,1.094c-0.258,0.257-0.579,0.514-0.965,0.707c-0.386,0.129-0.835,0.191-1.35,0.129
		c-0.514-0.129-0.899-0.259-1.156-0.516c-0.321-0.257-0.515-0.578-0.579-0.9c-0.128-0.385-0.192-0.705-0.128-1.026
		c0-0.387,0-0.772,0.063-1.028c0.515-3.472,0.377-2.697,0.955-6.297c0.515-3.534,0.687-4.924,1.137-8.587
		c0.385-3.597,0.771-7.196,1.028-10.86c0.256-3.598,0.386-7.132,0.386-10.731c0-1.799,0.192-3.084,0.643-3.856
		c0.385-0.707,1.157-1.092,2.442-1.092c0.578,0,1.092,0.193,1.478,0.449c0.32,0.322,0.578,0.643,0.835,1.029
		c0.192,0.45,0.322,0.9,0.45,1.349C158.557,32.806,158.62,33.191,158.62,33.512z"/>
</g>
</svg>
