<?xml version="1.0" encoding="utf-8"?>
<!-- Generator: Adobe Illustrator 16.0.0, SVG Export Plug-In . SVG Version: 6.00 Build 0)  -->
<!DOCTYPE svg PUBLIC "-//W3C//DTD SVG 1.1//EN" "http://www.w3.org/Graphics/SVG/1.1/DTD/svg11.dtd">
<svg version="1.1" id="Layer_1" xmlns="http://www.w3.org/2000/svg" xmlns:xlink="http://www.w3.org/1999/xlink" x="0px" y="0px"
	 width="413.474px" height="100.002px" viewBox="0 0 413.474 100.002" enable-background="new 0 0 413.474 100.002"
	 xml:space="preserve">
<path fill="#C32329" d="M58.699,70.346c0,6.663-1.314,12.235-3.943,16.717c-2.815,4.887-6.886,7.957-12.217,9.215
	c-6.035,1.447-9.7,2.169-10.996,2.169c-3.555,0-5.98-0.596-7.274-1.776c-1.592-1.335-2.685-2.448-3.278-3.332
	c-0.813-1.298-1.222-2.564-1.222-3.805s0.047-2.354,0.14-3.332c0.093-0.982,0.14-1.668,0.14-2.056s-0.057-0.951-0.167-1.695
	c-0.113-0.739,0.09-1.37,0.608-1.889c0.519-0.519,1.24-1.163,2.167-1.943c1.889-1.74,2.98-3.277,3.277-4.607
	c0.814,0.257,1.684,0.563,2.608,0.915c0.926,0.352,1.871,0.816,2.833,1.389c0.962,0.573,1.907,0.861,2.833,0.861
	c2.256,0,4.276-1.109,6.052-3.332c1.037-1.298,1.758-3.868,2.166-7.718c0.406-4.666,0.611-8.737,0.611-12.218
	c0-3.925-0.167-6.59-0.5-7.999c-0.704-2.813-2.315-4.22-4.831-4.22h-0.5l-0.557,1.943c-0.444,1.889-1.219,4.684-2.331,8.387
	c-2.556,7.664-5.795,14.088-9.718,19.269c-1.52,2.002-4.592,4.314-9.22,6.942c-0.629,0.334-1.406,0.537-2.333,0.609
	c-0.742,0.112-2.008,0.234-3.803,0.36c-1.796,0.131-3.749-0.6-5.861-2.191C1.129,75.269,0,73.42,0,71.455
	c0-0.555,0.128-1.389,0.388-2.498c0.259-1.113,0.39-1.889,0.39-2.331c0-0.446-0.047-0.974-0.14-1.587
	C0.545,64.431,0.5,63.885,0.5,63.403c0-0.482,0.185-1.258,0.555-2.331c0.519-1.222,0.805-2.056,0.861-2.502
	c0.057-0.442,0.158-0.979,0.304-1.609c4.258-0.222,7.665-1.313,10.218-3.278c2.074-1.591,4.13-4.105,6.165-7.55
	c0.37-0.667,0.704-1.314,0.999-1.945c-0.852,0-1.646-0.239-2.387-0.719c-1.333-0.816-2.944-3.537-4.831-8.165
	c-1.889-4.443-2.833-7.644-2.833-9.607c0-1.481,1.075-3.036,3.221-4.664c2-1.519,3.684-2.279,5.054-2.279
	c0.962,0,2.017,0.593,3.165,1.779c1.666,1.666,2.786,2.685,3.359,3.054c0.575,0.37,1.231,0.665,1.975,0.888
	c0.406,0.149,1.053,0.223,1.943,0.223c0.74-2.074,1.258-3.704,1.553-4.887c0.333-1.37,0.667-2.905,1.001-4.609
	c0.37-2.074,0.942-3.611,1.72-4.61c1.186-1.591,2.056-2.39,2.61-2.39c0.557,0,1.538,1.15,2.944,3.444
	c1.556,2.408,2.333,6.517,2.333,12.328l-0.057,1.779c1.481,0.775,3.201,1.869,5.167,3.275c3.293,2.333,5.848,6.035,7.662,11.106
	c0.813,2.297,1.925,6.961,3.334,13.995C57.977,60.905,58.699,66.311,58.699,70.346z M91.74,61.739c0,3.219-0.832,5.144-2.498,5.775
	c-1.853,0.293-3.287,0.536-4.304,0.721c-1.021,0.186-1.855,0.424-2.5,0.722c-0.649,0.298-1.269,0.441-1.86,0.441
	c-0.89,0-1.647-0.117-2.279-0.36c-0.631-0.239-1.109-0.757-1.443-1.551c-0.333-0.798-2.52-5.252-6.553-13.358
	c-0.926-2.001-3.009-5.285-6.249-9.856s-4.875-7.089-4.914-7.554c-0.036-0.462-0.131-1.174-0.277-2.137
	c-0.149-0.962,0.036-1.851,0.555-2.667c0.742-1.037,1.278-1.943,1.612-2.721c0.999-1.666,2.387-2.5,4.163-2.5
	c1.296,0,2.39,0.277,3.278,0.834c2.628,1.371,4.458,2.241,5.498,2.61c1.035,0.37,2.701,1.353,4.998,2.942
	c5.072,3.444,8.699,8.275,10.885,14.494c0.519,1.445,0.981,4.313,1.387,8.61C91.573,59.26,91.74,61.108,91.74,61.739z"/>
<path fill="#C32329" d="M177.608,75.62c0,3.444-0.814,6.776-2.443,9.995c-1.774,3.629-4.777,6.925-8.997,9.887
	c-4.407,2.998-8.552,4.5-12.438,4.5c-5.441,0-9.828-1.223-13.162-3.666c-0.888-0.631-1.537-1.131-1.945-1.501
	c-0.406-0.37-0.683-0.775-0.83-1.222c-0.151-0.441-0.223-1.168-0.223-2.164c0-1.001-0.261-2.231-0.778-3.692
	c-0.518-1.465-0.777-2.66-0.777-3.584c0-0.925-0.138-1.785-0.417-2.583c-0.277-0.794-0.307-1.583-0.081-2.358
	c2.664-0.333,5.281-0.031,7.855,0.915c2.574,0.942,4.804,1.416,6.693,1.416c3.775,0,6.848-0.87,9.217-2.61
	c2.667-1.925,3.999-4.738,3.999-8.439c0-5-2.518-7.497-7.551-7.497c-1.743,0-3.74,0.369-5.999,1.108
	c-1.629,0.555-3.719,1.592-6.275,3.111c-2.554,1.519-5.036,3.646-7.441,6.388c-1.814,2.033-3.055,3.296-3.722,3.773
	c-1.479,1.113-3.129,1.668-4.941,1.668c-0.964,0-2.222-0.185-3.775-0.555c-2.076-0.481-3.704-0.807-4.89-0.974
	c-1.186-0.166-2.441-0.824-3.773-1.97c-1.332-1.149-2.63-2.335-3.888-3.557c-1.296-1.109-1.943-2.813-1.943-5.108
	c0-5.369,0.582-9.68,1.749-12.938c1.166-3.259,2.507-6.904,4.026-10.941c0.888-2.185,2.813-5.257,5.775-9.217
	c3.516-4.443,6.163-6.666,7.941-6.666c0.999,0,1.499,0.649,1.499,1.945c0,1.296-0.14,2.721-0.417,4.276
	c-0.277,1.553-0.417,2.712-0.417,3.469c0,0.76,0.048,1.853,0.14,3.278c0.092,1.424,0.137,2.563,0.137,3.415
	s-0.072,2.286-0.221,4.303c-0.149,2.017-0.221,3.462-0.221,4.333c0,0.87-0.224,3.138-0.667,6.803c3.48-3.331,7.247-5.766,11.3-7.304
	c4.055-1.536,7.822-2.304,11.302-2.304c11.363,0,19.214,5.145,23.544,15.437C176.589,69.643,177.608,73.254,177.608,75.62z
	 M161.392,21.253c0,2.074-0.954,3.981-2.861,5.719c-1.905,1.74-3.913,2.61-6.023,2.61c-1.296,0-2.509-0.406-3.638-1.222
	c-1.129-0.814-3.212-2.072-6.247-3.776c-1.853-0.852-3.916-1.916-6.192-3.194c-2.277-1.276-4.285-2.471-6.025-3.58
	c-1.111-0.408-2.482-1.037-4.109-1.889c-1.26-1.186-1.889-3.201-1.889-6.052c0-1.073,0.381-1.797,1.139-2.167
	s2.434-0.76,5.024-1.167c2.446-0.406,4.093-0.611,4.946-0.611c3.663,0,7.569,0.444,11.715,1.334c5.331,1.037,8.85,2.479,10.552,4.33
	c0.888,0.926,1.713,2.435,2.47,4.526C161.015,18.208,161.392,19.921,161.392,21.253z"/>
<path fill="#C32329" d="M260.98,23.253c0.146,1.406,0.194,2.685,0.141,3.832c-0.057,1.147-0.277,2.396-0.668,3.749
	c-0.39,1.35-1.027,2.36-1.916,3.027c-2.33,2.405-7.385,3.609-15.161,3.609c-1.035,0-1.907-0.148-2.61-0.444
	c-0.11-0.039-0.277-0.092-0.498-0.167c-0.632,1.556-1.225,3.147-1.776,4.777l-0.226,0.665c3.703,0.074,7.943,0.795,12.718,2.166
	c0.262-0.742,0.686-2.018,1.278-3.832c0.739-2.295,1.573-3.442,2.5-3.442s1.74,1.166,2.443,3.499
	c0.444,1.63,0.703,3.257,0.775,4.885c0.038,0.408,0.131,0.945,0.279,1.612c4.998,2.185,9.089,4.517,12.271,6.996
	c3.74,3.038,6.923,6.906,9.554,11.608c0.777,1.258,1.722,3.273,2.833,6.051c0.48,2.628,0.72,5.112,0.72,7.443
	c0,6.145-2.052,10.757-6.163,13.826c-2.813,2.074-4.628,3.351-5.441,3.833c-0.816,0.482-2.277,0.721-4.389,0.721
	c-1.481,0-2.739-0.405-3.776-1.222c-1.222-0.888-2.184-1.406-2.888-1.556c-1.555-0.333-2.776-0.793-3.665-1.384
	c-0.555-0.667-1.287-1.393-2.193-2.168c-0.908-0.776-1.952-1.74-3.138-2.886c1.073-1.52,2.173-2.696,3.305-3.53
	c1.127-0.834,2.137-1.727,3.025-2.691c0.891-0.96,2.259-3.183,4.109-6.663c2.037-3.851,3.054-6.794,3.054-8.832
	c0-2.7-1.647-4.828-4.94-6.384c-0.408-0.185-1.204-0.482-2.388-0.893c-0.41,1.263-0.927,2.557-1.558,3.891
	c-3.699,8.07-7.736,14.106-12.104,18.101l1.275,0.727c0.742,0.441,1.481,2.2,2.223,5.274c0.257,0.853,0.391,1.609,0.391,2.276
	c0,1.52-1.056,2.886-3.167,4.107c-1.815,1.073-3.573,1.614-5.275,1.614c-1.927,0-3.442-0.667-4.554-2.002
	c-0.813-1.001-1.796-2.056-2.943-3.165c-3.111,1.776-5.09,2.85-5.942,3.224c-0.888,0.442-2.276,0.663-4.163,0.663
	c-3.963,0-6.909-0.645-8.832-1.943c-1.925-1.294-3.322-2.331-4.192-3.11c-0.87-0.775-2.027-2.903-3.472-6.384
	c-0.962-2.444-1.907-4.905-2.831-7.39c-0.334-0.703-0.694-1.393-1.084-2.083c-0.388-0.681-0.76-1.208-1.109-1.578
	c-0.352-0.374-0.805-0.938-1.361-1.694c-0.555-0.758-0.832-1.714-0.832-2.863c0-2.443,0.721-4.864,2.164-7.271
	c1.224-2.11,3.814-4.63,7.774-7.557c3.444-2.552,6.591-4.552,9.44-5.995c1.037-0.48,1.964-0.888,2.777-1.222l0.834-2.5
	c0.85-2.369,2.498-6.145,4.941-11.327c-1.997-1.409-3.201-2.612-3.609-3.611c-0.444-1.443-1.037-2.84-1.776-4.193
	c-0.741-1.35-1.425-2.554-2.056-3.609c-0.631-1.055-0.944-1.842-0.944-2.36c0-1.406,0.694-2.944,2.083-4.609
	c1.391-1.666,2.452-2.498,3.191-2.498c0.742,0,1.964,0.406,3.668,1.22c1.889,0.888,3.09,1.4,3.608,1.528
	c0.519,0.131,1.979,0.62,4.39,1.472c0.367,0.147,0.757,0.277,1.165,0.388c0.519-0.554,1.055-1.091,1.611-1.609
	c1.109-0.89,2.739-2.258,4.885-4.109c2.331-2.148,4.24-3.221,5.719-3.221c1.854,0,2.777,2.054,2.777,6.163
	c0,0.667-0.033,1.334-0.108,2c-0.038,0.297-0.15,0.667-0.333,1.111c1.814-0.221,3.198-0.334,4.163-0.334
	c0.927,0,2.146,1.147,3.665,3.445C260.054,20.606,260.832,22.216,260.98,23.253z M214.608,65.733
	c-0.26,1.704-0.386,4.306-0.386,7.804c0,3.499,2.313,5.248,6.94,5.248h0.057c-2.038-4.666-3.075-10.216-3.11-16.658
	C215.96,63.421,214.794,64.625,214.608,65.733z M235.546,66.18c0,0.703,0.019,1.371,0.055,1.997
	c1.591-1.663,2.924-3.291,3.998-4.887c1.962-2.885,3.535-5.252,4.721-7.104c-1.814-0.222-3.684-0.37-5.608-0.447
	c-0.927,0-1.797,0.019-2.61,0.059C235.729,59.904,235.546,63.367,235.546,66.18z"/>
<path fill="#C32329" d="M371.47,53.331c0,2.484-0.428,4.594-1.278,6.334c-4.256,7.958-8.552,12.421-12.885,13.381
	c-1.406,0.37-2.497,0.56-3.274,0.56c-1.409,0-2.536-0.393-3.387-1.168c-0.852-0.775-1.704-1.627-2.556-2.557
	c-0.372-0.369-1.064-1.267-2.083-2.691c-1.017-1.424-1.973-3.358-2.86-5.802c-0.185-0.853-0.239-1.704-0.167-2.557
	c2.407-0.482,3.98-0.946,4.721-1.388c1.999-1.146,3.295-2.557,3.888-4.221c0.48-1.37,0.832-2.629,1.056-3.776
	c-1.964,0.11-3.871,0.203-5.719,0.277c-4.481,0.331-10.313,0.539-17.495,0.611c-0.962,3.705-1.499,6.017-1.609,6.942
	c-0.188,1.149-0.521,2.943-1.001,5.387c-0.739,3.256-1.111,5.934-1.111,8.025s2.908,3.989,8.722,5.694
	c3.886,1.145,8.272,1.717,13.159,1.717c11.292,0,19.066-2.092,23.326-6.275c2.146-2.033,3.589-3.052,4.331-3.052
	c1.74,0.185,2.988,0.581,3.748,1.194c0.758,0.608,1.229,1.416,1.418,2.412c0.367,1.816,0.746,3.048,1.136,3.692
	c0.389,0.649,0.916,1.456,1.583,2.416c1.406,2.998,1.204,6.109-0.611,9.333c-1.072,2.259-5.664,3.998-13.772,5.221
	c-6.294,0.96-11.477,1.442-15.55,1.442c-5.995,0-12.532-1.461-19.602-4.387c-6.258-2.557-12.144-5.924-17.659-10.107
	c-4.554-3.368-6.83-8.35-6.83-14.94c0-3.368,0.555-7.385,1.666-12.047c0.333-1.447,0.646-2.853,0.944-4.223
	c-1.261-0.554-2.667-1.332-4.223-2.333c-2.147-1.368-4.275-2.739-6.386-4.109c-0.631-0.37-1.868-1.388-3.722-3.054
	c-1.073-0.999-1.609-2.072-1.609-3.219c0-1.407,0.647-2.769,1.943-4.083s2.342-1.972,3.138-1.972s2.638,0.39,5.527,1.165
	c2.366,0.631,5.626,1.055,9.773,1.28c0.517-1.224,1.092-2.518,1.721-3.888c2.702-5.96,5.09-8.94,7.163-8.94
	c1.964,0,3.406,1.702,4.333,5.105c0.516,2.038,1.053,4.094,1.609,6.165l0.223,1.224c2.519-0.223,4.924-0.408,7.218-0.557
	c2.629-0.149,6.389-0.611,11.273-1.389c0.777-0.11,1.573-0.257,2.39-0.444c-0.26-1.147-0.557-2.518-0.891-4.109
	c-0.146-0.963-0.812-2.777-1.997-5.441c-1.001-2.297-1.501-4.074-1.501-5.332c0-2.222,1.241-3.332,3.722-3.332
	c0.852,0,1.737,0.221,2.664,0.665c2.445,0.927,4.442,2.982,5.998,6.163c1.445,3.075,2.759,5.832,3.945,8.277
	c4.181-1.407,6.792-2.092,7.828-2.056c1.035,0.075,1.943,0.757,2.721,2.056c0.629,1.258,1.278,2.498,1.945,3.719
	c1.738,2.888,2.608,5.185,2.608,6.886c0,3.221-2.423,5.906-7.274,8.052c-0.443,0.188-0.942,0.37-1.499,0.557
	C371.098,48.648,371.47,51.148,371.47,53.331z M385.742,18.292c0.298,1.037,0.092,2.277-0.608,3.719
	c-0.78,1.371-1.743,2.094-2.891,2.167c-1.072,0.187-2.601-0.627-4.58-2.444c-1.981-1.812-3.593-3.665-4.833-5.552
	c-1.239-1.889-1.897-3.118-1.97-3.692c-0.077-0.575,0.479-1.231,1.665-1.973c0.889-0.667,1.831-1.075,2.832-1.222
	c1.925-0.221,3.787,0.14,5.581,1.082c1.797,0.944,3.045,2.326,3.749,4.139C384.982,15.07,385.333,16.33,385.742,18.292z
	 M399.014,9.405c0.593,2.554,0.307,4.304-0.861,5.248c-1.165,0.944-3.174,1.066-6.025,0.36c-2.849-0.701-4.635-1.729-5.358-3.081
	c-0.721-1.351-1.194-2.378-1.415-3.082c-0.262-0.888-0.465-1.49-0.611-1.806c-0.15-0.313-0.39-0.728-0.721-1.249
	c-0.334-0.519-0.796-1.323-1.392-2.415c-0.59-1.093-0.035-2.083,1.669-2.973c0.479-0.221,1.055-0.352,1.72-0.388
	c2.112-0.146,3.87,0.464,5.274,1.833c1.63,1.591,3.28,2.962,4.943,4.109C397.348,6.962,398.273,8.109,399.014,9.405z"/>
<g>
	<path fill="#C32329" d="M397.673,27.125h6.008c0.946,0,1.74,0.257,2.378,0.767c0.643,0.512,0.963,1.233,0.963,2.159
		c0,0.563-0.133,1.086-0.395,1.569c-0.264,0.482-0.643,0.816-1.141,0.997c0.431,0.162,0.773,0.466,1.032,0.911
		c0.259,0.444,0.415,0.992,0.474,1.641c0.009,0.077,0.021,0.191,0.029,0.342c0.018,0.442,0.05,0.816,0.092,1.127
		c0.043,0.311,0.117,0.55,0.222,0.724h-3.154c-0.112-0.393-0.2-0.917-0.257-1.578V35.77c-0.029-0.324-0.061-0.59-0.092-0.795
		c-0.034-0.205-0.1-0.399-0.196-0.58c-0.095-0.183-0.232-0.329-0.415-0.439c-0.181-0.108-0.419-0.162-0.717-0.162h-1.677v3.568
		h-3.154V27.125z M400.828,31.598h1.649c0.181,0,0.348-0.011,0.501-0.034c0.153-0.025,0.297-0.07,0.431-0.138
		c0.133-0.065,0.243-0.169,0.329-0.309c0.085-0.138,0.128-0.315,0.128-0.537c0-0.345-0.117-0.6-0.35-0.767
		c-0.234-0.169-0.638-0.252-1.21-0.252h-1.479V31.598z"/>
</g>
<path fill="#C32329" d="M401.922,42.859c-5.817,0-10.552-4.733-10.552-10.552c0-5.82,4.734-10.552,10.552-10.552
	c5.818,0,10.552,4.731,10.552,10.552C412.474,38.126,407.741,42.859,401.922,42.859z M401.922,23.83
	c-4.673,0-8.476,3.803-8.476,8.478c0,4.673,3.803,8.476,8.476,8.476s8.476-3.803,8.476-8.476
	C410.398,27.633,406.595,23.83,401.922,23.83z"/>
</svg>
