<?xml version="1.0" encoding="utf-8"?>
<!-- Generator: Adobe Illustrator 16.0.0, SVG Export Plug-In . SVG Version: 6.00 Build 0)  -->
<!DOCTYPE svg PUBLIC "-//W3C//DTD SVG 1.1//EN" "http://www.w3.org/Graphics/SVG/1.1/DTD/svg11.dtd">
<svg version="1.1" id="Layer_1" xmlns="http://www.w3.org/2000/svg" xmlns:xlink="http://www.w3.org/1999/xlink" x="0px" y="0px"
	 width="263.059px" height="101px" viewBox="0 0 263.059 101" enable-background="new 0 0 263.059 101" xml:space="preserve">
<g>
	<path stroke="#FFFFFF" stroke-miterlimit="10" d="M108.564,98.314c-0.862,0-1.438-0.577-1.438-1.433V2.199
		c0-0.866,0.576-1.443,1.438-1.443h37.872c21.238,0,34.002,12.769,34.002,31.424c0,18.359-12.904,31.278-34.002,31.278h-17.357
		c-0.567,0-0.862,0.285-0.862,0.862v32.562c0,0.855-0.565,1.433-1.434,1.433H108.564L108.564,98.314z M159.349,32.18
		c0-7.894-5.308-13.205-14.204-13.205h-16.066c-0.567,0-0.862,0.293-0.862,0.86v24.537c0,0.579,0.295,0.862,0.862,0.862h16.066
		C154.042,45.234,159.349,40.066,159.349,32.18L159.349,32.18z"/>
	<path stroke="#FFFFFF" stroke-miterlimit="10" d="M213.899,98.314c-0.859,0-1.438-0.577-1.438-1.433V59.435L183.625,2.199
		c-0.284-0.727,0-1.443,1.002-1.443h18.652c1.009,0,1.721,0.434,2.149,1.443l17.652,35.572h0.43l17.653-35.572
		c0.418-1.01,1.142-1.443,2.142-1.443h18.081c1.006,0,1.436,0.716,1.006,1.443l-28.834,57.235v37.447
		c0,0.855-0.579,1.433-1.442,1.433H213.899L213.899,98.314z"/>
	<path stroke="#FFFFFF" stroke-miterlimit="10" d="M83.295,23.812h-0.294L67.038,34.746c-0.885,0.582-1.626,0.294-1.626-0.89V15.53
		c0-0.884,0.296-1.477,1.037-2.068L84.534,0.5H0.5v100h82.795v-1.03V23.812L83.295,23.812z"/>
</g>
</svg>
