<?xml version="1.0" encoding="utf-8"?>
<!-- Generator: Adobe Illustrator 21.0.0, SVG Export Plug-In . SVG Version: 6.00 Build 0)  -->
<svg version="1.1" id="레이어_1" xmlns="http://www.w3.org/2000/svg" xmlns:xlink="http://www.w3.org/1999/xlink" x="0px"
	 y="0px" viewBox="0 0 305.4 35.9" style="enable-background:new 0 0 305.4 35.9;" xml:space="preserve">
<g>
	<g>
		<g>
			<g>
				<path d="M29,8.5h-0.1l-5.6,3.8c-0.3,0.2-0.6,0.1-0.6-0.3V5.6c0-0.3,0.1-0.5,0.4-0.7l6.3-4.5H0v35h29v-0.4V8.5z"/>
			</g>
		</g>
	</g>
	<g>
		<g>
			<path d="M36.9,35.3c-0.3,0-0.5-0.2-0.5-0.5V1.1c0-0.3,0.2-0.5,0.5-0.5h13.5c7.6,0,12.1,4.5,12.1,11.2c0,6.5-4.6,11.1-12.1,11.1
				h-6.2c-0.2,0-0.3,0.1-0.3,0.3v11.6c0,0.3-0.2,0.5-0.5,0.5H36.9z M55,11.8C55,8.9,53.1,7,49.9,7h-5.7c-0.2,0-0.3,0.1-0.3,0.3v8.7
				c0,0.2,0.1,0.3,0.3,0.3h5.7C53.1,16.4,55,14.6,55,11.8z"/>
		</g>
		<g>
			<path d="M67.3,1.1c0-0.3,0.2-0.5,0.5-0.5h6.5c0.3,0,0.5,0.2,0.5,0.5v27.2c0,0.2,0.1,0.3,0.3,0.3h15.3c0.3,0,0.5,0.2,0.5,0.5v5.7
				c0,0.3-0.2,0.5-0.5,0.5H67.8c-0.3,0-0.5-0.2-0.5-0.5V1.1z"/>
		</g>
		<g>
			<path d="M104.8,1.1c0.1-0.3,0.3-0.5,0.7-0.5h6.4c0.4,0,0.6,0.2,0.7,0.5l11.7,33.7c0.1,0.3,0,0.5-0.4,0.5h-6.6
				c-0.4,0-0.6-0.2-0.7-0.5l-2-6.1h-12.2l-1.9,6.1c-0.1,0.4-0.3,0.5-0.7,0.5h-6.7c-0.4,0-0.5-0.2-0.4-0.5L104.8,1.1z M112.6,22.3
				l-3.9-12.2h-0.2l-3.9,12.2H112.6z"/>
		</g>
		<g>
			<path d="M132.7,35.3c-0.3,0-0.5-0.2-0.5-0.5V7.6c0-0.2-0.1-0.3-0.3-0.3h-8.8c-0.3,0-0.5-0.2-0.5-0.5V1.1c0-0.3,0.2-0.5,0.5-0.5
				h25.7c0.3,0,0.5,0.2,0.5,0.5v5.7c0,0.3-0.2,0.5-0.5,0.5H140c-0.2,0-0.3,0.1-0.3,0.3v27.2c0,0.3-0.2,0.5-0.5,0.5H132.7z"/>
		</g>
		<g>
			<path d="M153.5,1.1c0-0.3,0.2-0.5,0.5-0.5h22.3c0.3,0,0.5,0.2,0.5,0.5v5.5c0,0.3-0.2,0.5-0.5,0.5h-15c-0.2,0-0.3,0.1-0.3,0.3v7.3
				c0,0.2,0.1,0.3,0.3,0.3h12.5c0.3,0,0.5,0.2,0.5,0.5v5.4c0,0.3-0.2,0.5-0.5,0.5h-12.5c-0.2,0-0.3,0.1-0.3,0.3v13.1
				c0,0.3-0.2,0.5-0.5,0.5H154c-0.3,0-0.5-0.2-0.5-0.5V1.1z"/>
		</g>
		<g>
			<path d="M182,27.4c-0.8-2.4-1-4.3-1-9.5c0-5.2,0.2-7.1,1-9.5c1.8-5.6,6.6-8.4,12.7-8.4c6.1,0,10.9,2.8,12.7,8.4
				c0.8,2.4,1,4.3,1,9.5c0,5.2-0.2,7.1-1,9.5c-1.8,5.6-6.6,8.4-12.7,8.4C188.6,35.9,183.8,33.1,182,27.4z M200.1,25.4
				c0.4-1.2,0.6-2.9,0.6-7.5c0-4.5-0.2-6.2-0.6-7.5c-0.8-2.4-2.6-3.8-5.5-3.8c-2.9,0-4.7,1.4-5.5,3.8c-0.4,1.2-0.6,2.9-0.6,7.5
				c0,4.5,0.2,6.2,0.6,7.5c0.8,2.4,2.6,3.8,5.5,3.8C197.5,29.2,199.4,27.8,200.1,25.4z"/>
		</g>
		<g>
			<path d="M233.2,35.3c-0.5,0-0.6-0.2-0.8-0.5l-6-12.7h-4.6c-0.2,0-0.3,0.1-0.3,0.3v12.4c0,0.3-0.2,0.5-0.5,0.5h-6.5
				c-0.3,0-0.5-0.2-0.5-0.5V1.1c0-0.3,0.2-0.5,0.5-0.5h13.8c7.1,0,11.8,4.4,11.8,10.8c0,4.4-2.3,8-6.2,9.7l6.8,13.7
				c0.2,0.3,0,0.6-0.4,0.6H233.2z M232.7,11.3c0-2.6-1.8-4.3-4.7-4.3h-6.1c-0.2,0-0.3,0.1-0.3,0.3v8c0,0.2,0.1,0.3,0.3,0.3h6.1
				C230.8,15.7,232.7,14,232.7,11.3z"/>
		</g>
		<g>
			<path d="M245.9,1.1c0-0.3,0.2-0.5,0.5-0.5h6.1c0.4,0,0.7,0.2,0.8,0.5l8.8,19.8h0.2L271,1.1c0.2-0.4,0.4-0.5,0.8-0.5h6
				c0.3,0,0.5,0.2,0.5,0.5v33.7c0,0.3-0.2,0.5-0.5,0.5H272c-0.3,0-0.5-0.2-0.5-0.5V15.2h-0.2l-6.4,14.7c-0.2,0.5-0.5,0.7-1,0.7h-3.5
				c-0.5,0-0.8-0.2-1-0.7l-6.4-14.7h-0.2v19.6c0,0.3-0.2,0.5-0.5,0.5h-5.8c-0.3,0-0.5-0.2-0.5-0.5V1.1z"/>
		</g>
	</g>
	<g>
		<g>
			<path d="M288.5,11.4c-0.1,0-0.2-0.1-0.2-0.2V2.5c0-0.1,0-0.1-0.1-0.1h-2.8c-0.1,0-0.2-0.1-0.2-0.2V0.5c0-0.1,0.1-0.2,0.2-0.2h8.2
				c0.1,0,0.2,0.1,0.2,0.2v1.8c0,0.1-0.1,0.2-0.2,0.2h-2.8c-0.1,0-0.1,0-0.1,0.1v8.7c0,0.1-0.1,0.2-0.2,0.2H288.5z"/>
		</g>
		<g>
			<path d="M295.1,0.5c0-0.1,0.1-0.2,0.2-0.2h1.9c0.1,0,0.2,0.1,0.3,0.2l2.8,6.3h0.1l2.8-6.3c0-0.1,0.1-0.2,0.3-0.2h1.9
				c0.1,0,0.2,0.1,0.2,0.2v10.8c0,0.1-0.1,0.2-0.2,0.2h-1.8c-0.1,0-0.2-0.1-0.2-0.2V5h-0.1l-2.1,4.7c-0.1,0.1-0.2,0.2-0.3,0.2h-1.1
				c-0.1,0-0.2-0.1-0.3-0.2L297.3,5h-0.1v6.2c0,0.1-0.1,0.2-0.2,0.2h-1.8c-0.1,0-0.2-0.1-0.2-0.2V0.5z"/>
		</g>
	</g>
</g>
</svg>
