<?xml version="1.0" encoding="utf-8"?>
<!-- Generator: Adobe Illustrator 16.0.0, SVG Export Plug-In . SVG Version: 6.00 Build 0)  -->
<!DOCTYPE svg PUBLIC "-//W3C//DTD SVG 1.1//EN" "http://www.w3.org/Graphics/SVG/1.1/DTD/svg11.dtd">
<svg version="1.1" id="Layer_1" xmlns="http://www.w3.org/2000/svg" xmlns:xlink="http://www.w3.org/1999/xlink" x="0px" y="0px"
	 width="276.311px" height="100px" viewBox="0 0 276.311 100" enable-background="new 0 0 276.311 100" xml:space="preserve">
<g>
	<g id="XMLID_69_">
		<g id="XMLID_70_">
			<path id="XMLID_83_" fill="#003A54" d="M11.704,99.744V82.685h1.656v8.155c0.604-0.015,1.103-0.051,1.491-0.104
				c0.388-0.054,0.698-0.11,0.933-0.173s0.403-0.122,0.512-0.177c0.111-0.054,0.186-0.098,0.232-0.126l6.342-7.949l1.188,1.213
				l-5.919,7.363l6.013,8.345L22.657,100l-5.801-8.041c-0.313,0.108-0.742,0.211-1.296,0.317c-0.551,0.1-1.286,0.165-2.2,0.197v7.27
				H11.704z"/>
			<path id="XMLID_81_" fill="#003A54" d="M43.493,99.744V82.685h1.652v17.059H43.493z"/>
			<path id="XMLID_79_" fill="#003A54" d="M70.921,99.766V84.341h-6.43v-1.678h14.541v1.678h-6.434v15.425H70.921z"/>
			<path id="XMLID_77_" fill="#003A54" d="M102.851,99.744c-0.061,0-0.227-0.01-0.49-0.036c-0.266-0.021-0.583-0.087-0.953-0.198
				c-0.375-0.106-0.786-0.273-1.239-0.5c-0.449-0.223-0.886-0.547-1.304-0.969c-1.568-1.518-2.354-3.806-2.354-6.849
				c0-3.063,0.786-5.339,2.354-6.829c0.437-0.436,0.889-0.771,1.365-1c0.472-0.234,0.904-0.4,1.292-0.502
				c0.389-0.101,0.839-0.161,1.351-0.176h4.174v1.656h-4.174c-0.356,0.015-0.673,0.058-0.955,0.126
				c-0.28,0.071-0.586,0.19-0.922,0.359c-0.334,0.175-0.662,0.414-0.988,0.725c-0.605,0.575-1.063,1.336-1.377,2.282
				c-0.309,0.95-0.463,2.067-0.463,3.358c0,2.593,0.611,4.481,1.84,5.66c0.326,0.315,0.654,0.555,0.988,0.724
				c0.336,0.174,0.642,0.293,0.922,0.361c0.282,0.071,0.599,0.114,0.955,0.128h4.174v1.679H102.851z"/>
			<path id="XMLID_75_" fill="#003A54" d="M136.083,99.744v-7.247h-7.811v7.247h-1.65V82.685h1.65v8.155h7.811v-8.155h1.651v17.059
				H136.083z"/>
			<path id="XMLID_73_" fill="#003A54" d="M158.01,99.723V82.685h8.738v1.656h-7.082v6.478h6.337v1.678h-6.337v5.568h8.831v1.658
				H158.01z"/>
			<path id="XMLID_71_" fill="#003A54" d="M187.84,99.766V83.338l1.12-0.56l11.583,13.749V82.664h1.677V99.3l-1.12,0.537
				l-11.603-13.75v13.679H187.84z"/>
		</g>
	</g>
	<g id="XMLID_67_">
		<g>
			<path fill="#003A54" d="M264.999,20.122h-2V19.4h4.869v0.722h-2.01v5.855h-0.859V20.122z"/>
			<path fill="#003A54" d="M275.315,23.088c-0.049-0.917-0.107-2.02-0.098-2.84h-0.029c-0.225,0.771-0.498,1.591-0.83,2.498
				l-1.161,3.191h-0.644l-1.063-3.133c-0.313-0.927-0.576-1.775-0.762-2.557h-0.02c-0.02,0.82-0.068,1.923-0.127,2.908l-0.175,2.82
				h-0.811l0.459-6.577h1.083l1.122,3.181c0.273,0.81,0.498,1.532,0.664,2.215h0.029c0.165-0.664,0.399-1.386,0.692-2.215
				l1.171-3.181h1.084l0.409,6.577h-0.829L275.315,23.088z"/>
		</g>
	</g>
	<path id="XMLID_47_" fill="#003A54" d="M270.649,39.19c-0.03-0.474-0.169-0.91-0.398-1.305c-0.238-0.394-0.533-0.725-0.887-0.994
		c-0.352-0.264-0.74-0.464-1.162-0.603c-0.421-0.137-0.84-0.19-1.254-0.161c-0.528,0.994-1.094,1.966-1.695,2.912
		c-0.601,0.955-1.228,1.797-1.886,2.537c-0.659,0.74-1.344,1.345-2.053,1.82c-0.702,0.471-1.423,0.734-2.149,0.784
		c-0.282,0.019-0.573-0.032-0.873-0.154c-0.301-0.122-0.584-0.292-0.867-0.511c-0.273-0.221-0.532-0.482-0.776-0.789
		c-0.246-0.303-0.446-0.631-0.604-0.977c0.756-1.367,1.4-2.643,1.921-3.827c0.526-1.185,0.944-2.304,1.254-3.351
		c0.309-1.053,0.521-2.042,0.639-2.968c0.118-0.925,0.146-1.8,0.088-2.617c-0.043-0.638-0.183-1.307-0.425-2.01
		c-0.24-0.698-0.564-1.382-0.972-2.049c-0.399-0.666-0.868-1.303-1.394-1.907c-0.524-0.609-1.091-1.135-1.695-1.577
		c-0.604-0.447-1.238-0.786-1.905-1.024c-0.665-0.24-1.334-0.338-2.001-0.291c-0.599,0.04-1.121,0.172-1.573,0.395
		c-0.459,0.228-0.864,0.559-1.226,0.994c-0.354,0.437-0.679,0.991-0.968,1.679c-0.291,0.683-0.559,1.504-0.807,2.461
		c-0.276,0.972-0.507,2.045-0.691,3.212c-0.18,1.17-0.321,2.366-0.413,3.59c-0.098,1.228-0.151,2.444-0.158,3.662
		c-0.007,1.217,0.027,2.377,0.104,3.479c0.038,0.59,0.096,1.156,0.169,1.688c0.075,0.533,0.148,1.027,0.223,1.488
		c-0.145,0.277-0.346,0.629-0.601,1.055c-0.253,0.429-0.547,0.886-0.88,1.375c-0.334,0.482-0.693,0.983-1.087,1.494
		c-0.389,0.512-0.787,0.998-1.188,1.459c-1.151-3.342-2.021-6.205-2.605-8.58c-0.587-2.381-0.922-4.148-1.002-5.308
		c-0.078-1.206-0.082-2.31,0-3.326c0.08-1.012,0.296-1.974,0.645-2.877c0.351-0.904,0.854-1.779,1.513-2.622
		c0.658-0.842,1.519-1.703,2.578-2.582c-0.048-0.728-0.195-1.379-0.433-1.94c-0.24-0.569-0.598-1.036-1.069-1.408
		c-0.472-0.37-1.073-0.637-1.793-0.796c-0.721-0.162-1.581-0.205-2.596-0.137c-1.069,0.072-2.146,0.324-3.237,0.756
		c-1.091,0.432-2.141,1.015-3.153,1.75c-1.009,0.732-1.947,1.599-2.824,2.6c-0.873,0.998-1.62,2.106-2.238,3.315
		c-0.619,1.218-1.083,2.518-1.4,3.907c-0.316,1.386-0.425,2.831-0.323,4.332c0.085,1.23,0.216,2.39,0.392,3.478
		c0.122,0.734,0.277,1.483,0.449,2.236c-0.276,0.564-0.561,1.127-0.856,1.674c-0.692,1.271-1.391,2.459-2.106,3.568
		c-0.712,1.109-1.432,2.123-2.153,3.042c-0.719,0.921-1.411,1.717-2.065,2.388c-0.655,0.666-1.265,1.202-1.829,1.598
		c-0.563,0.4-1.056,0.635-1.484,0.699c-0.604,0.097-1.043-0.04-1.32-0.41c-0.278-0.375-0.465-0.884-0.569-1.527
		c-0.088-0.562-0.091-1.261-0.004-2.105c0.087-0.843,0.229-1.769,0.433-2.784c0.202-1.011,0.452-2.081,0.759-3.208
		c0.303-1.123,1.649-6.222,2.002-7.338c0.505-1.569,0.894-2.944,1.17-4.118c0.273-1.174,0.339-2.214,0.195-3.129
		c-0.087-0.543-0.249-1.022-0.489-1.44c-0.238-0.414-0.624-0.778-1.156-1.094c-0.533-0.313-1.246-0.59-2.144-0.825
		c-0.898-0.234-2.041-0.438-3.422-0.612c-0.815-0.101-1.636-0.233-2.464-0.403c-0.826-0.172-1.509-0.349-2.052-0.537
		c0.442-1.108,1.061-2.088,1.854-2.938c0.796-0.85,1.69-1.652,2.683-2.416c0.091-0.587,0.084-1.202-0.018-1.854
		c-0.098-0.616-0.31-1.141-0.638-1.584c-0.327-0.436-0.738-0.788-1.241-1.047c-0.502-0.259-1.077-0.429-1.741-0.504
		c-0.662-0.076-1.374-0.054-2.137,0.068c-0.854,0.134-1.769,0.515-2.74,1.146c-0.969,0.63-1.934,1.419-2.892,2.37
		c-0.958,0.95-1.869,2.019-2.73,3.201c-0.86,1.185-1.597,2.408-2.214,3.665c-0.546,1.124-0.95,2.236-1.252,3.337
		c-0.85,0.673-1.794,1.29-2.845,1.753c-0.007-0.01-0.014-0.021-0.022-0.032c-0.46-0.543-1.043-0.968-1.741-1.274
		c-0.699-0.307-1.52-0.458-2.461-0.458c-0.877,0-1.698,0.23-2.47,0.692c-0.763,0.461-1.468,1.087-2.109,1.875
		c-0.014-0.76-0.189-1.397-0.536-1.908c-0.342-0.515-0.773-0.929-1.297-1.242c-0.517-0.313-1.097-0.537-1.731-0.67
		c-0.63-0.133-1.244-0.201-1.843-0.201c-1.609,0-3.212,0.356-4.814,1.074c-1.597,0.715-3.125,1.718-4.569,3.005
		c-1.444,1.286-2.79,2.819-4.031,4.591c-1.246,1.772-2.319,3.723-3.23,5.856c-0.561,1.316-1.022,2.702-1.436,4.128
		c-1.387,1.887-2.759,3.575-4.12,5.033c-1.534,1.646-3.009,3.019-4.424,4.112c-1.416,1.095-2.736,1.916-3.965,2.47
		c-1.228,0.552-2.314,0.825-3.25,0.825c-0.955,0-1.606-0.26-1.956-0.781c-0.349-0.522-0.526-1.324-0.526-2.416
		c0-0.342,0.051-0.925,0.158-1.75c0.102-0.828,0.279-1.918,0.522-3.273c0.249-1.357,0.577-2.988,0.986-4.896
		c0.407-1.904,0.927-4.115,1.549-6.631c0.66,0.1,1.274,0.19,1.858,0.266c0.58,0.075,1.138,0.129,1.674,0.17
		c0.536,0.035,1.063,0.061,1.573,0.075c0.516,0.015,1.041,0.025,1.576,0.025c0.762,0,1.46-0.158,2.101-0.472
		c0.64-0.313,1.198-0.746,1.678-1.297c0.476-0.551,0.849-1.198,1.115-1.943c0.27-0.745,0.403-1.549,0.403-2.413
		c0-0.342-0.039-0.694-0.114-1.062c-0.073-0.364-0.185-0.72-0.335-1.062c-0.147-0.342-0.329-0.663-0.545-0.958
		c-0.216-0.299-0.467-0.55-0.748-0.76c-0.299,0.058-0.741,0.124-1.328,0.188c-0.591,0.067-1.249,0.133-1.981,0.19
		c-0.731,0.058-1.494,0.108-2.29,0.144c-0.794,0.04-1.55,0.072-2.268,0.1c0.803-1.619,1.512-3.045,2.125-4.265
		c0.611-1.221,1.134-2.297,1.576-3.23c0.436-0.929,0.804-1.743,1.094-2.434s0.522-1.314,0.692-1.864
		c0.174-0.551,0.292-1.059,0.356-1.52c0.067-0.46,0.101-0.933,0.101-1.407c0-0.984-0.122-1.819-0.367-2.506
		c-0.249-0.685-0.62-1.243-1.12-1.675c-0.497-0.432-1.131-0.744-1.896-0.935c-0.771-0.196-1.681-0.292-2.736-0.292
		c-1.567,0-3.028,0.342-4.394,1.03c-1.36,0.684-2.572,1.638-3.629,2.858c-1.059,1.222-1.934,2.683-2.625,4.379
		c-0.695,1.699-1.145,3.553-1.35,5.566c-0.095,0.846-0.169,1.584-0.227,2.21c-0.059,0.626-0.108,1.196-0.145,1.708
		c-0.04,0.515-0.064,1-0.091,1.454c-0.021,0.454-0.051,0.918-0.075,1.397c-0.938,0.014-1.768,0.179-2.48,0.49
		c-0.716,0.313-1.322,0.724-1.813,1.228c-0.488,0.507-0.859,1.083-1.104,1.735c-0.248,0.645-0.371,1.328-0.371,2.042
		c0,0.508,0.089,0.908,0.27,1.195c0.18,0.292,0.422,0.516,0.725,0.673c0.306,0.155,0.662,0.267,1.072,0.336
		c0.412,0.063,0.847,0.122,1.309,0.165c-0.837,2.809-1.528,5.271-2.086,7.406c-1.477,2.041-2.941,3.854-4.393,5.407
		c-1.533,1.646-3.01,3.019-4.425,4.112c-1.414,1.095-2.737,1.916-3.964,2.47c-1.229,0.552-2.316,0.825-3.251,0.825
		c-0.955,0-1.606-0.26-1.956-0.781c-0.352-0.522-0.524-1.324-0.524-2.416c0-0.342,0.05-0.925,0.159-1.75
		c0.099-0.828,0.275-1.918,0.52-3.273c0.25-1.357,0.577-2.988,0.988-4.896c0.406-1.904,0.925-4.115,1.547-6.631
		c0.66,0.1,1.275,0.19,1.858,0.266c0.581,0.075,1.138,0.129,1.675,0.17c0.536,0.035,1.063,0.061,1.572,0.075
		c0.516,0.015,1.042,0.025,1.578,0.025c0.76,0,1.458-0.158,2.099-0.472c0.642-0.313,1.198-0.746,1.675-1.297
		c0.479-0.551,0.853-1.198,1.119-1.943c0.271-0.745,0.402-1.549,0.402-2.413c0-0.342-0.039-0.694-0.114-1.062
		c-0.071-0.364-0.185-0.72-0.335-1.062c-0.148-0.342-0.327-0.663-0.543-0.958c-0.221-0.299-0.469-0.55-0.749-0.76
		c-0.3,0.058-0.742,0.124-1.329,0.188c-0.59,0.067-1.249,0.133-1.98,0.19c-0.73,0.058-1.494,0.108-2.289,0.144
		c-0.797,0.04-1.553,0.072-2.27,0.1c0.803-1.619,1.514-3.045,2.125-4.265c0.611-1.221,1.134-2.297,1.576-3.23
		c0.436-0.929,0.803-1.743,1.096-2.434c0.287-0.691,0.518-1.314,0.689-1.864c0.175-0.551,0.289-1.059,0.357-1.52
		c0.068-0.46,0.102-0.933,0.102-1.407c0-0.984-0.122-1.819-0.368-2.506c-0.249-0.685-0.618-1.243-1.12-1.675
		c-0.496-0.432-1.131-0.744-1.897-0.935c-0.767-0.196-1.681-0.292-2.735-0.292c-1.566,0-3.027,0.342-4.395,1.03
		c-1.359,0.684-2.572,1.638-3.628,2.858c-1.06,1.222-1.933,2.683-2.624,4.379c-0.696,1.699-1.145,3.553-1.352,5.566
		c-0.094,0.846-0.168,1.584-0.226,2.21c-0.058,0.626-0.108,1.196-0.145,1.708c-0.04,0.515-0.064,1-0.089,1.454
		c0,0-4.181,6.099-10.4,7.097c-0.006-0.85-0.114-1.639-0.334-2.358c-0.233-0.756-0.579-1.401-1.039-1.944
		c-0.462-0.544-1.046-0.973-1.744-1.275c-0.701-0.306-1.52-0.461-2.458-0.461c-0.88,0-1.7,0.235-2.47,0.695
		c-0.766,0.461-1.471,1.087-2.111,1.877c-0.014-0.761-0.193-1.397-0.537-1.909c-0.34-0.515-0.772-0.929-1.295-1.242
		c-0.521-0.313-1.098-0.537-1.732-0.67c-0.63-0.133-1.245-0.202-1.843-0.202c-1.608,0-3.212,0.356-4.814,1.073
		c-1.601,0.717-3.125,1.717-4.569,3.006c-1.445,1.286-2.789,2.816-4.032,4.59c-1.245,1.772-2.319,3.724-3.229,5.854
		c-0.906,2.129-1.624,4.397-2.145,6.802c-0.52,2.409-0.782,4.875-0.782,7.41c0,1.08,0.075,2.092,0.216,3.038
		c-0.098,0.713-0.407,1.376-1.184,1.563c-0.188,0.014-0.365,0.021-0.504,0.021c-0.344,0-0.66-0.043-0.951-0.122
		c-0.287-0.083-0.57-0.228-0.84-0.437c-0.267-0.208-0.527-0.49-0.791-0.839c-0.26-0.35-0.533-0.799-0.813-1.35
		c-0.807-1.61-1.625-3.104-2.46-4.479c-0.835-1.38-1.639-2.622-2.412-3.734c-0.773-1.109-1.502-2.066-2.18-2.881
		c-0.676-0.813-1.256-1.447-1.73-1.911c2.592-2.397,4.868-4.713,6.826-6.945c1.96-2.236,3.601-4.44,4.927-6.619
		c1.323-2.174,2.325-4.341,2.994-6.513c0.671-2.167,1.005-4.382,1.005-6.646c0-2.696-0.492-5.177-1.473-7.438
		c-0.986-2.265-2.463-4.213-4.436-5.844c-1.976-1.631-4.436-2.905-7.385-3.82C42.517,0.458,39.075,0,35.14,0
		c-3.243,0-6.368,0.356-9.367,1.072c-3.004,0.717-5.809,1.671-8.416,2.859c-2.605,1.193-4.975,2.575-7.104,4.145
		c-2.131,1.573-3.956,3.215-5.475,4.929c-1.521,1.71-2.699,3.446-3.533,5.196C0.413,19.95,0,21.599,0,23.147
		c0,0.821,0.085,1.566,0.267,2.236c0.176,0.669,0.436,1.238,0.77,1.71c0.334,0.468,0.746,0.828,1.238,1.08
		c0.494,0.255,1.044,0.381,1.654,0.381c0.373,0,0.752-0.04,1.126-0.122c0.382-0.083,0.706-0.191,0.972-0.324
		c0.526-1.026,1.145-2.059,1.869-3.093c0.721-1.036,1.523-2.034,2.4-2.995c0.88-0.962,1.83-1.873,2.849-2.737
		c1.019-0.863,2.099-1.638,3.229-2.314c1.131-0.677,2.305-1.242,3.519-1.696c1.212-0.458,2.45-0.76,3.72-0.908
		c-1.65,5.395-3.246,10.38-4.782,14.961c-1.534,4.583-2.963,8.835-4.289,12.77c-0.655,1.919-1.22,3.633-1.698,5.139
		c-0.475,1.505-0.887,2.841-1.229,4.011c-0.342,1.167-0.619,2.193-0.824,3.071c-0.21,0.878-0.375,1.652-0.494,2.325
		c-0.117,0.67-0.201,1.254-0.244,1.753c-0.047,0.498-0.068,0.958-0.068,1.373c0,0.598,0.094,1.228,0.281,1.901
		c0.184,0.669,0.457,1.336,0.814,1.998c0.354,0.662,0.79,1.299,1.295,1.911c0.508,0.609,1.08,1.152,1.722,1.62
		c0.641,0.469,1.347,0.839,2.119,1.117c0.779,0.272,1.597,0.414,2.46,0.414c1.148,0,2.106-0.148,2.873-0.45
		c0.765-0.296,1.328-0.699,1.686-1.207c0.043-0.771,0.158-1.811,0.334-3.114c0.18-1.303,0.406-2.746,0.682-4.325
		c0.277-1.575,0.594-3.242,0.949-4.992c0.357-1.75,0.746-3.461,1.164-5.127c0,0,9.131,3.806,11.758,10.963
		c3.816,10.377,15.151,14.416,26.932,8.72c1.026,0.264,2.096,0.401,3.223,0.401c1.61,0,3.119-0.203,4.533-0.613
		c6.684-2.434,13.185-6.286,18.205-27.85c2.238-0.277,5.079-0.914,8.323-2.261l-1.76,6.002c-0.565,2.186-1.013,4.068-1.34,5.663
		c-0.327,1.596-0.56,2.92-0.69,3.979c-0.139,1.059-0.203,1.924-0.203,2.593c0,2.099,0.281,3.913,0.851,5.44
		c0.565,1.526,1.364,2.78,2.401,3.762c1.033,0.986,2.279,1.71,3.73,2.183c1.454,0.468,3.057,0.701,4.814,0.701
		c1.313,0,2.67-0.24,4.078-0.716c1.408-0.475,2.81-1.119,4.201-1.93c1.39-0.814,2.763-1.755,4.112-2.828
		c1.347-1.07,2.622-2.201,3.82-3.397c0.752-0.749,1.458-1.513,2.143-2.282c0.075,1.703,0.339,3.216,0.817,4.508
		c0.564,1.526,1.367,2.78,2.402,3.762c1.032,0.986,2.277,1.71,3.729,2.183c1.455,0.468,3.058,0.701,4.814,0.701
		c1.314,0,2.671-0.24,4.078-0.716c1.408-0.475,2.809-1.119,4.202-1.93c1.39-0.814,2.767-1.755,4.112-2.828
		c1.347-1.07,2.622-2.201,3.82-3.397c0.986-0.979,1.897-1.983,2.765-2.998c0.137,1.327,0.385,2.548,0.781,3.633
		c0.605,1.67,1.426,3.048,2.468,4.146c1.043,1.095,2.271,1.916,3.688,2.456c1.412,0.544,2.932,0.817,4.556,0.817
		c1.609,0,3.121-0.205,4.536-0.615c6.762-2.464,13.347-6.369,18.388-28.657c0.145-0.633,0.245-1.248,0.327-1.854
		c1.336-1.115,2.933-2.6,4.768-4.544l5.221,2.125c1.066,0.252,1.872,0.511,2.42,0.771c0.547,0.259,0.864,0.663,0.95,1.206
		c0.059,0.382-0.842,3.611-0.954,4.313c-0.114,0.703-1.288,5.491-1.477,6.396c-0.187,0.904-0.396,1.886-0.618,2.944
		c-0.223,1.067-0.415,2.146-0.573,3.248c-0.159,1.102-0.26,2.207-0.313,3.31c-0.055,1.101,0,2.151,0.158,3.154
		c0.407,2.57,1.455,4.364,3.138,5.371c1.681,1.009,3.897,1.296,6.648,0.86c1.045-0.165,2.146-0.579,3.298-1.245
		c1.156-0.667,2.323-1.498,3.508-2.498c1.185-1.005,2.356-2.14,3.521-3.411c1.163-1.271,2.261-2.591,3.297-3.971
		c1.035-1.375,1.984-2.769,2.855-4.174c0.394-0.629,0.749-1.245,1.089-1.854c0.093,0.271,0.176,0.511,0.276,0.792
		c0.573,1.66,1.085,3.147,1.533,4.454c0.448,1.304,0.847,2.473,1.2,3.51c0.353,1.038,0.669,1.963,0.95,2.779
		c0.281,0.818,0.525,1.567,0.745,2.244c0.216,0.68,0.415,1.311,0.587,1.891c0.176,0.575,0.342,1.147,0.496,1.721
		c-1.501,1.4-2.736,2.711-3.696,3.935c-0.961,1.222-1.71,2.355-2.239,3.403c-0.536,1.041-0.895,2.005-1.074,2.89
		c-0.175,0.886-0.236,1.707-0.187,2.468c0.05,0.771,0.212,1.476,0.479,2.117c0.267,0.641,0.652,1.185,1.164,1.634
		c0.506,0.45,1.137,0.785,1.893,1.001c0.753,0.221,1.643,0.293,2.668,0.224c1.426-0.098,2.771-0.422,4.044-0.97
		c1.271-0.546,2.434-1.27,3.492-2.162c1.06-0.894,2.002-1.935,2.834-3.126c0.831-1.191,1.519-2.481,2.066-3.87
		c0.546-1.39,0.944-2.848,1.191-4.378c0.249-1.533,0.316-3.094,0.209-4.685c-0.033-0.461-0.087-1.016-0.158-1.671
		c-0.071-0.652-0.169-1.354-0.288-2.106c-0.118-0.752-0.253-1.53-0.393-2.338c-0.147-0.802-0.302-1.579-0.471-2.328
		c0.402-0.417,0.85-0.878,1.336-1.39c0.485-0.512,0.963-1.033,1.428-1.563c0.462-0.533,0.9-1.066,1.315-1.603
		c0.409-0.537,0.747-1.029,1.02-1.479c0.416,0.45,0.877,0.821,1.384,1.116c0.506,0.292,1.042,0.521,1.613,0.684
		c0.574,0.162,1.164,0.271,1.779,0.317c0.616,0.047,1.242,0.047,1.883,0.003c1.099-0.072,2.207-0.334,3.327-0.785
		c1.12-0.445,2.192-1.022,3.22-1.717c1.029-0.698,1.99-1.494,2.884-2.391c0.896-0.896,1.667-1.836,2.318-2.823
		c0.648-0.981,1.145-1.979,1.486-2.991C270.571,41.057,270.711,40.095,270.649,39.19z M40.069,35.85
		c-0.975,1.588-2.193,3.363-3.654,5.328c-0.637-0.179-1.376-0.326-2.199-0.445c-0.824-0.119-1.679-0.178-2.562-0.178
		c-1.087,0-2.092,0.088-3.013,0.267c1.43-5.884,2.541-11.097,3.34-15.641c0.797-4.543,1.238-8.266,1.329-11.172
		c1.967,0.137,3.631,0.472,4.994,1.009c1.36,0.537,2.464,1.217,3.305,2.041c0.843,0.828,1.451,1.774,1.833,2.848
		c0.381,1.073,0.568,2.222,0.568,3.442c0,1.373-0.121,2.701-0.367,3.99c-0.246,1.285-0.658,2.632-1.242,4.033
		C41.821,32.772,41.045,34.266,40.069,35.85z M78.24,54.944c-0.313,0.504-0.662,0.985-1.05,1.439
		c-0.385,0.453-0.807,0.854-1.249,1.195c-0.45,0.342-0.923,0.615-1.423,0.816c-0.497,0.202-1.022,0.304-1.573,0.304
		c-0.418,0-0.82-0.094-1.218-0.27c-0.395-0.182-0.749-0.486-1.063-0.93c-0.313-0.436-0.561-1.03-0.747-1.775
		c-0.188-0.745-0.282-1.674-0.282-2.794c0-1.252,0.123-2.513,0.36-3.788c0.237-1.273,0.581-2.519,1.016-3.741
		c0.442-1.22,0.968-2.394,1.587-3.518c0.62-1.125,1.305-2.163,2.057-3.117c0.754-0.954,1.563-1.796,2.434-2.535
		c0.871-0.737,1.775-1.331,2.715-1.778c-0.475,0.908-0.528,0.843-0.9,1.887c0,0-1.277,3.341,1.052,4.61
		c2.329,1.266,4.097,0.567,4.097,0.567S80.643,51.476,78.24,54.944z M177.693,53.724c-0.313,0.502-0.662,0.984-1.047,1.438
		c-0.391,0.457-0.807,0.854-1.255,1.196c-0.449,0.342-0.921,0.614-1.418,0.816c-0.499,0.202-1.022,0.303-1.576,0.303
		c-0.418,0-0.822-0.093-1.218-0.271c-0.396-0.18-0.749-0.486-1.059-0.929c-0.317-0.436-0.565-1.03-0.753-1.774
		c-0.187-0.745-0.277-1.675-0.277-2.794c0-1.25,0.119-2.513,0.357-3.788c0.237-1.271,0.58-2.521,1.016-3.741
		c0.442-1.222,0.972-2.394,1.587-3.518c0.62-1.126,1.303-2.163,2.056-3.118c0.752-0.95,1.567-1.797,2.438-2.535
		c0.868-0.738,1.771-1.328,2.71-1.778c-0.475,0.908-0.529,0.842-0.9,1.887c0,0-1.273,3.344,1.053,4.608
		c2.329,1.268,4.097,0.569,4.097,0.569S180.095,50.256,177.693,53.724z"/>
</g>
</svg>
