<?xml version="1.0" encoding="utf-8"?>
<!-- Generator: Adobe Illustrator 16.0.0, SVG Export Plug-In . SVG Version: 6.00 Build 0)  -->
<!DOCTYPE svg PUBLIC "-//W3C//DTD SVG 1.1//EN" "http://www.w3.org/Graphics/SVG/1.1/DTD/svg11.dtd">
<svg version="1.1" id="Layer_1" xmlns="http://www.w3.org/2000/svg" xmlns:xlink="http://www.w3.org/1999/xlink" x="0px" y="0px"
	 width="247.252px" height="100px" viewBox="0 0 247.252 100" enable-background="new 0 0 247.252 100" xml:space="preserve">
<g>
	<path fill="#DF3029" d="M18.295,67.961c0,1.875,1.517,3.398,3.396,3.398c1.879,0,3.408-1.523,3.408-3.398
		c0-14.057,0-28.117,0-42.17c4.966,0,9.928,0,14.89,0c1.878,0,3.406-1.527,3.406-3.406c0-1.881-1.528-3.4-3.406-3.4
		c-12.199,0-24.392,0-36.59,0c-1.876,0-3.399,1.52-3.399,3.4c0,1.879,1.523,3.406,3.399,3.406c4.965,0,9.927,0,14.896,0
		C18.295,39.844,18.295,53.905,18.295,67.961z"/>
	<path fill="#DF3029" d="M148.368,18.51c-1.324-1.326-3.481-1.326-4.81,0c-1.331,1.33-1.331,3.486,0,4.814
		c7.462,7.461,14.925,14.924,22.389,22.383c0,7.416,0,14.834,0,22.254c0,1.875,1.519,3.398,3.401,3.398
		c1.879,0,3.402-1.523,3.402-3.398c0-7.42,0-14.838,0-22.254c7.462-7.459,14.927-14.922,22.386-22.383
		c1.329-1.328,1.329-3.484,0-4.814c-1.329-1.326-3.481-1.326-4.814,0c-6.991,6.992-13.98,13.986-20.974,20.975
		C162.359,32.497,155.364,25.502,148.368,18.51z"/>
	<path fill="#DF3029" d="M132.041,70.088c1.329,1.33,3.486,1.33,4.814,0c1.331-1.324,1.331-3.484,0-4.813
		c-6.993-6.996-13.98-13.98-20.972-20.975c6.992-6.994,13.979-13.984,20.972-20.977c1.331-1.328,1.331-3.484,0-4.814
		c-1.328-1.326-3.485-1.326-4.814,0c-7.557,7.564-15.113,15.113-22.67,22.674c0-12.594,0-25.186,0-37.785
		c0-1.885-1.522-3.398-3.404-3.398c-1.881,0-3.4,1.514-3.4,3.398c0,21.525,0,43.049,0,64.574c0,1.875,1.519,3.398,3.4,3.398
		c1.882,0,3.404-1.523,3.404-3.398c0-6.854,0-13.705,0-20.557C116.928,54.975,124.484,62.53,132.041,70.088z"/>
	<path fill="#DF3029" d="M70.262,64.565c-11.237,0-20.35-9.109-20.35-20.348s9.113-20.352,20.35-20.352
		c11.24,0,20.35,9.113,20.35,20.352S81.502,64.565,70.262,64.565z M97.421,44.217c0-14.998-12.159-27.16-27.159-27.16
		c-14.997,0-27.151,12.162-27.151,27.16s12.155,27.154,27.151,27.154C85.263,71.372,97.421,59.215,97.421,44.217z"/>
	<path fill="#DF3029" d="M219.247,71.372c-15,0-27.157-12.156-27.157-27.154s12.157-27.16,27.157-27.16
		c15.002,0,27.153,12.162,27.153,27.16S234.249,71.372,219.247,71.372z M239.596,44.217c0-11.238-9.109-20.352-20.349-20.352
		c-11.237,0-20.35,9.113-20.35,20.352s9.112,20.348,20.35,20.348C230.486,64.565,239.596,55.456,239.596,44.217z"/>
	<g>
		<path fill="#221F20" d="M11.915,80.571c0,1.543-0.04,2.881-0.112,4.012c-0.077,1.135-0.198,2.068-0.354,2.814
			c-0.035,0.191-0.103,0.426-0.201,0.703c-0.094,0.27-0.223,0.605-0.37,0.98c-0.15,0.383-0.292,0.725-0.431,1.02
			c-0.138,0.291-0.264,0.551-0.386,0.764c-0.063,0.094-0.142,0.213-0.239,0.367c-0.105,0.145-0.229,0.32-0.386,0.527
			c-0.555,0.73-1.146,1.277-1.758,1.627c-0.626,0.334-1.352,0.508-2.188,0.508c-0.607,0-1.228-0.049-1.88-0.15
			c-0.634-0.104-1.247-0.281-1.856-0.545c-0.595-0.266-1.06-0.607-1.411-1.029c-0.121-0.139-0.185-0.313-0.185-0.508
			c0-0.178,0.034-0.352,0.103-0.502c0.056-0.152,0.152-0.283,0.257-0.393c0.104-0.117,0.236-0.199,0.379-0.258
			c0.135-0.059,0.295-0.09,0.458-0.09c0.175,0,0.626,0.18,1.363,0.539c0.374,0.168,0.688,0.32,0.95,0.439
			c0.252,0.119,0.46,0.209,0.613,0.275c0.3,0.125,0.599,0.184,0.894,0.184c0.963,0,1.747-0.246,2.344-0.738
			c0.599-0.5,1.081-1.266,1.451-2.307c0.534-1.488,0.797-3.465,0.797-5.936c0-0.348-0.011-0.906-0.037-1.674
			c-0.026-0.77-0.064-1.76-0.112-2.971c-0.021-0.432-0.03-0.811-0.041-1.141c-0.021-0.322-0.023-0.592-0.023-0.814
			c-0.017-0.041,0-0.105,0.057-0.18c0.047-0.072,0.105-0.148,0.176-0.227c0.074-0.07,0.144-0.135,0.219-0.203
			c0.069-0.059,0.128-0.109,0.161-0.152c0.094-0.098,0.233-0.152,0.422-0.152c0.209,0,0.39,0.063,0.547,0.184
			c0.159,0.117,0.26,0.277,0.313,0.479c0.006,0.018,0.025,0.131,0.043,0.359c0.025,0.221,0.061,0.549,0.107,0.979
			c0.101,0.846,0.18,1.561,0.238,2.131C11.887,80.061,11.915,80.422,11.915,80.571z"/>
		<path fill="#221F20" d="M29.984,83.956c0,0.277-0.071,0.578-0.211,0.898c-0.136,0.32-0.295,0.605-0.468,0.871
			c-0.452,0.699-0.922,1.344-1.416,1.926c-0.496,0.584-0.993,1.133-1.496,1.654c-0.523,0.547-1.043,0.973-1.57,1.281
			c-0.521,0.303-0.989,0.457-1.405,0.457c-0.18,0-0.354-0.051-0.53-0.152c-0.18-0.094-0.345-0.23-0.501-0.385
			c-0.152-0.166-0.284-0.355-0.406-0.568c-0.118-0.211-0.215-0.439-0.278-0.67c-0.035-0.123-0.066-0.268-0.098-0.43
			c-0.022-0.154-0.054-0.307-0.086-0.439c-0.03-0.139-0.06-0.256-0.093-0.354c-0.037-0.092-0.077-0.139-0.121-0.139
			c-0.032,0-0.092,0.055-0.184,0.16c-0.092,0.104-0.204,0.246-0.326,0.414c-0.123,0.176-0.263,0.357-0.409,0.574
			c-0.138,0.207-0.285,0.408-0.424,0.607c-0.142,0.201-0.269,0.383-0.38,0.549c-0.11,0.164-0.201,0.287-0.257,0.375
			c-0.227,0.285-0.489,0.582-0.797,0.883c-0.303,0.299-0.616,0.574-0.916,0.82c-0.305,0.25-0.587,0.457-0.846,0.609
			c-0.253,0.162-0.441,0.24-0.558,0.24c-0.278,0-0.543-0.055-0.794-0.156c-0.26-0.104-0.484-0.262-0.676-0.459
			c-0.195-0.193-0.352-0.438-0.467-0.727c-0.119-0.285-0.178-0.619-0.178-0.988c0-0.617,0.102-1.313,0.317-2.1
			c0.212-0.781,0.488-1.582,0.84-2.389c0.346-0.814,0.751-1.59,1.204-2.334c0.454-0.752,0.917-1.387,1.413-1.932
			c0.563-0.621,1.157-1.074,1.784-1.363c0.611-0.301,1.261-0.445,1.909-0.445c0.122,0,0.23,0.027,0.319,0.09
			c0.087,0.055,0.165,0.127,0.237,0.219c0.058,0.094,0.116,0.191,0.167,0.303c0.055,0.115,0.101,0.229,0.153,0.344
			c0.027,0.072,0.089,0.158,0.177,0.246c0.096,0.094,0.199,0.189,0.296,0.281c0.106,0.094,0.188,0.186,0.264,0.279
			c0.079,0.092,0.114,0.172,0.114,0.254c0,0.182-0.032,0.373-0.095,0.578c-0.058,0.217-0.124,0.459-0.199,0.732
			c-0.075,0.275-0.139,0.588-0.2,0.941c-0.059,0.355-0.092,0.754-0.092,1.211c0,0.297,0.032,0.639,0.073,1.016
			c0.048,0.381,0.118,0.744,0.216,1.082c0.098,0.344,0.222,0.633,0.374,0.865c0.15,0.23,0.324,0.344,0.526,0.344
			c0.246,0,0.485-0.084,0.733-0.238c0.246-0.164,0.527-0.389,0.841-0.678c0.704-0.641,1.37-1.352,2.004-2.117
			c0.633-0.773,1.279-1.531,1.937-2.291c0.122-0.141,0.229-0.199,0.327-0.199C29.897,83.508,29.984,83.659,29.984,83.956z
			 M21.554,82.528c0-0.016-0.013-0.066-0.036-0.135c-0.021-0.074-0.051-0.154-0.093-0.23c-0.042-0.076-0.097-0.15-0.162-0.211
			c-0.06-0.061-0.129-0.092-0.199-0.092h-0.025c-0.265,0.031-0.549,0.133-0.844,0.303c-0.303,0.17-0.622,0.432-0.964,0.785
			c-0.335,0.346-0.691,0.801-1.068,1.35c-0.369,0.557-0.758,1.229-1.163,2.023c-0.121,0.238-0.258,0.502-0.404,0.789
			c-0.146,0.285-0.287,0.596-0.418,0.936c-0.136,0.35-0.245,0.709-0.335,1.1c-0.089,0.387-0.137,0.797-0.137,1.225
			c0,0.256,0.086,0.449,0.246,0.588c0.161,0.131,0.327,0.195,0.502,0.195c0.179,0,0.412-0.109,0.699-0.34
			c0.288-0.227,0.597-0.527,0.932-0.906c0.334-0.375,0.672-0.807,1.02-1.285c0.352-0.482,0.675-0.984,0.974-1.498
			c0.297-0.512,0.559-1.016,0.779-1.51c0.219-0.498,0.367-0.947,0.445-1.354c0.024-0.121,0.046-0.268,0.079-0.438
			c0.025-0.172,0.054-0.34,0.076-0.506c0.026-0.17,0.049-0.328,0.065-0.477C21.542,82.698,21.554,82.6,21.554,82.528z"/>
		<path fill="#221F20" d="M45.354,84.323c0,0.258-0.076,0.566-0.224,0.922c-0.03,0.09-0.097,0.184-0.189,0.289
			c-0.087,0.102-0.181,0.205-0.278,0.301c-0.099,0.102-0.193,0.188-0.282,0.268c-0.096,0.076-0.164,0.139-0.208,0.182
			c-0.234,0.229-0.542,0.473-0.917,0.752c-0.375,0.273-0.791,0.566-1.243,0.879c-0.46,0.313-0.937,0.623-1.454,0.939
			c-0.512,0.318-1.017,0.631-1.533,0.938c-0.503,0.307-1.003,0.592-1.483,0.865c-0.481,0.271-0.918,0.512-1.316,0.719
			c-0.284,0.148-0.561,0.316-0.819,0.504c-0.258,0.184-0.516,0.355-0.76,0.521c-0.246,0.16-0.497,0.287-0.752,0.4
			c-0.255,0.111-0.514,0.158-0.795,0.158c-0.167,0-0.326-0.021-0.479-0.064c-0.155-0.043-0.292-0.115-0.413-0.219
			c-0.129-0.098-0.227-0.223-0.296-0.375c-0.08-0.154-0.118-0.34-0.118-0.553c0-0.115,0.035-0.225,0.103-0.326
			c0.072-0.096,0.159-0.182,0.264-0.264c0.106-0.08,0.226-0.146,0.352-0.215c0.136-0.068,0.261-0.131,0.387-0.174
			c0.124-0.063,0.273-0.121,0.455-0.184c0.173-0.057,0.351-0.123,0.528-0.184c0.185-0.063,0.356-0.125,0.524-0.191
			c0.169-0.064,0.318-0.129,0.439-0.199c0.23-0.141,0.447-0.32,0.652-0.537c0.201-0.209,0.383-0.447,0.561-0.703
			c0.168-0.256,0.331-0.518,0.479-0.799c0.151-0.277,0.295-0.539,0.418-0.797c0.09-0.174,0.178-0.369,0.254-0.584
			c0.079-0.219,0.153-0.428,0.208-0.648c0.065-0.213,0.106-0.414,0.144-0.609c0.025-0.193,0.047-0.359,0.047-0.492
			c0-0.566-0.109-1.02-0.325-1.359c-0.216-0.342-0.487-0.512-0.81-0.512c-0.204,0-0.437,0.076-0.695,0.232
			c-0.266,0.152-0.528,0.34-0.785,0.553c-0.264,0.209-0.509,0.438-0.734,0.674c-0.227,0.236-0.408,0.436-0.542,0.6
			c-0.334,0.402-0.646,0.846-0.939,1.318c-0.291,0.479-0.562,0.963-0.822,1.461c-0.258,0.504-0.501,1.008-0.731,1.512
			s-0.441,0.984-0.641,1.449c-0.08,0.387-0.17,0.818-0.249,1.289c-0.087,0.465-0.145,0.986-0.193,1.553
			c-0.074,1.109-0.135,2.105-0.174,2.98c-0.043,0.875-0.121,1.678-0.239,2.408c-0.045,0.26-0.15,0.496-0.321,0.699
			C29.243,99.897,29.035,100,28.764,100c-0.074,0-0.175-0.023-0.28-0.066c-0.106-0.047-0.209-0.113-0.304-0.199
			c-0.103-0.078-0.182-0.174-0.247-0.27c-0.071-0.105-0.107-0.215-0.107-0.344c0-0.275,0.02-0.611,0.052-1.012
			c0.03-0.398,0.068-0.803,0.111-1.205c0.04-0.41,0.078-0.775,0.124-1.105c0.038-0.332,0.069-0.559,0.079-0.693
			c0.1-0.85,0.192-1.768,0.272-2.758c0.076-0.984,0.146-2.063,0.196-3.229c0.002-0.246,0.018-0.578,0.026-0.98
			c0.013-0.412,0.018-0.828,0.032-1.246c0.008-0.414,0.018-0.801,0.032-1.164c0.011-0.355,0.021-0.613,0.034-0.762
			c0.105-1.576,0.459-2.367,1.088-2.367c0.117,0,0.235,0.039,0.342,0.109c0.113,0.068,0.211,0.158,0.296,0.27
			c0.088,0.111,0.159,0.242,0.209,0.377c0.045,0.146,0.074,0.277,0.074,0.412c0,0.289-0.029,0.6-0.079,0.932
			c-0.062,0.332-0.116,0.682-0.178,1.029c-0.062,0.357-0.126,0.695-0.18,1.035c-0.051,0.336-0.08,0.648-0.08,0.932
			c0,0.238,0.02,0.354,0.064,0.354c0.5-1.035,0.996-1.949,1.475-2.736c0.482-0.795,0.963-1.447,1.445-1.969
			c0.31-0.33,0.615-0.633,0.914-0.908c0.308-0.279,0.612-0.518,0.913-0.721c0.305-0.203,0.625-0.355,0.945-0.471
			c0.329-0.113,0.677-0.174,1.048-0.182c0.25-0.004,0.506,0.066,0.778,0.211c0.267,0.154,0.511,0.377,0.729,0.67
			c0.21,0.299,0.392,0.662,0.53,1.088c0.141,0.426,0.205,0.91,0.202,1.443c0.003,0.414-0.047,0.824-0.165,1.236
			c-0.12,0.412-0.277,0.822-0.477,1.221c-0.2,0.398-0.424,0.791-0.68,1.156c-0.262,0.377-0.536,0.717-0.817,1.031
			c0.595-0.252,1.197-0.568,1.821-0.938c0.621-0.379,1.24-0.777,1.869-1.207c0.62-0.428,1.226-0.875,1.829-1.332
			c0.596-0.463,1.175-0.92,1.719-1.359c0.167-0.129,0.302-0.242,0.404-0.328c0.095-0.096,0.205-0.139,0.327-0.139
			c0.104,0,0.164,0.055,0.185,0.17C45.347,84.096,45.354,84.211,45.354,84.323z"/>
		<path fill="#221F20" d="M58.307,83.956c0,0.277-0.069,0.578-0.212,0.898c-0.141,0.32-0.296,0.605-0.467,0.871
			c-0.459,0.699-0.925,1.344-1.418,1.926c-0.493,0.584-0.994,1.133-1.493,1.654c-0.525,0.547-1.051,0.973-1.572,1.281
			c-0.521,0.303-0.993,0.457-1.407,0.457c-0.176,0-0.354-0.051-0.531-0.152c-0.176-0.094-0.345-0.23-0.498-0.385
			c-0.151-0.166-0.287-0.355-0.408-0.568c-0.118-0.211-0.213-0.439-0.276-0.67c-0.036-0.123-0.07-0.268-0.097-0.43
			c-0.028-0.154-0.064-0.307-0.086-0.439c-0.03-0.139-0.06-0.256-0.1-0.354c-0.033-0.092-0.073-0.139-0.115-0.139
			c-0.031,0-0.089,0.055-0.181,0.16c-0.1,0.104-0.207,0.246-0.335,0.414c-0.12,0.176-0.255,0.357-0.402,0.574
			c-0.144,0.207-0.285,0.408-0.428,0.607c-0.135,0.201-0.261,0.383-0.374,0.549c-0.113,0.164-0.204,0.287-0.265,0.375
			c-0.224,0.285-0.484,0.582-0.794,0.883c-0.309,0.299-0.604,0.574-0.916,0.82c-0.308,0.25-0.586,0.457-0.838,0.609
			c-0.258,0.162-0.446,0.24-0.573,0.24c-0.267,0-0.531-0.055-0.789-0.156c-0.254-0.104-0.478-0.262-0.673-0.459
			c-0.192-0.193-0.345-0.438-0.466-0.727c-0.116-0.285-0.179-0.619-0.179-0.988c0-0.617,0.11-1.313,0.321-2.1
			c0.21-0.781,0.492-1.582,0.836-2.389c0.35-0.814,0.755-1.59,1.204-2.334c0.452-0.752,0.925-1.387,1.411-1.932
			c0.565-0.621,1.164-1.074,1.785-1.363c0.627-0.301,1.263-0.445,1.914-0.445c0.123,0,0.226,0.027,0.323,0.09
			c0.084,0.055,0.164,0.127,0.227,0.219c0.064,0.094,0.125,0.191,0.175,0.303c0.049,0.115,0.101,0.229,0.15,0.344
			c0.025,0.072,0.088,0.158,0.185,0.246c0.093,0.094,0.19,0.189,0.29,0.281c0.099,0.094,0.189,0.186,0.262,0.279
			c0.074,0.092,0.118,0.172,0.118,0.254c0,0.182-0.036,0.373-0.096,0.578c-0.06,0.217-0.123,0.459-0.196,0.732
			c-0.077,0.275-0.138,0.588-0.201,0.941c-0.061,0.355-0.089,0.754-0.089,1.211c0,0.297,0.019,0.639,0.066,1.016
			c0.048,0.381,0.117,0.744,0.217,1.082c0.101,0.344,0.221,0.633,0.37,0.865c0.156,0.23,0.327,0.344,0.527,0.344
			c0.251,0,0.491-0.084,0.734-0.238c0.247-0.164,0.529-0.389,0.846-0.678c0.706-0.641,1.37-1.352,2.002-2.117
			c0.637-0.773,1.284-1.531,1.943-2.291c0.114-0.141,0.218-0.199,0.319-0.199C58.224,83.508,58.307,83.659,58.307,83.956z
			 M49.875,82.528c0-0.016-0.014-0.066-0.032-0.135c-0.024-0.074-0.056-0.154-0.1-0.23c-0.041-0.076-0.093-0.15-0.155-0.211
			c-0.06-0.061-0.125-0.092-0.199-0.092h-0.024c-0.261,0.031-0.541,0.133-0.846,0.303c-0.31,0.17-0.622,0.432-0.964,0.785
			c-0.338,0.346-0.688,0.801-1.065,1.35c-0.371,0.557-0.763,1.229-1.162,2.023c-0.125,0.238-0.26,0.502-0.41,0.789
			c-0.143,0.285-0.284,0.596-0.418,0.936c-0.131,0.35-0.245,0.709-0.336,1.1c-0.084,0.387-0.131,0.797-0.131,1.225
			c0,0.256,0.082,0.449,0.241,0.588c0.162,0.131,0.329,0.195,0.501,0.195c0.177,0,0.415-0.109,0.699-0.34
			c0.291-0.227,0.601-0.527,0.933-0.906c0.337-0.375,0.679-0.807,1.029-1.285c0.346-0.482,0.673-0.984,0.964-1.498
			c0.302-0.512,0.562-1.016,0.78-1.51c0.215-0.498,0.366-0.947,0.449-1.354c0.019-0.121,0.045-0.268,0.074-0.438
			c0.031-0.172,0.054-0.34,0.081-0.506c0.024-0.17,0.043-0.328,0.063-0.477C49.861,82.698,49.875,82.6,49.875,82.528z"/>
		<path fill="#221F20" d="M74.954,86.928c0.04-0.018,0.07-0.031,0.074-0.031c0.051,0,0.08,0.055,0.08,0.152
			c0,0.102-0.026,0.23-0.07,0.385c-0.044,0.146-0.105,0.314-0.188,0.484s-0.181,0.346-0.306,0.523
			c-0.121,0.166-0.263,0.328-0.411,0.467c-0.34,0.314-0.711,0.607-1.114,0.891c-0.41,0.271-0.835,0.518-1.279,0.725
			c-0.445,0.203-0.906,0.365-1.384,0.482c-0.472,0.115-0.951,0.172-1.433,0.172c-0.517,0-0.974-0.09-1.354-0.275
			c-0.393-0.176-0.731-0.418-1.01-0.719c-0.276-0.297-0.513-0.633-0.697-1.012c-0.187-0.385-0.343-0.77-0.465-1.166
			c-0.114-0.398-0.224-0.787-0.288-1.168c-0.071-0.379-0.132-0.715-0.181-1.016c-0.045-0.297-0.09-0.535-0.116-0.721
			c-0.03-0.174-0.077-0.273-0.126-0.273c-0.172,0-0.352,0.119-0.543,0.354c-0.182,0.23-0.376,0.535-0.568,0.914
			c-0.199,0.383-0.409,0.814-0.632,1.299c-0.216,0.48-0.445,0.975-0.68,1.484c-0.234,0.508-0.471,1.006-0.722,1.486
			c-0.241,0.482-0.502,0.914-0.773,1.295c-0.27,0.379-0.547,0.688-0.833,0.918c-0.282,0.236-0.574,0.344-0.874,0.344
			c-0.303,0-0.547-0.129-0.73-0.398c-0.183-0.262-0.326-0.604-0.423-1.016c-0.109-0.42-0.17-0.891-0.2-1.408
			c-0.034-0.516-0.051-1.039-0.051-1.549c0-0.455,0.008-0.883,0.024-1.287c0.014-0.41,0.023-0.752,0.023-1.043
			c0-0.119-0.006-0.219-0.013-0.307c-0.007-0.082-0.018-0.168-0.025-0.244c-0.006-0.066-0.009-0.145-0.016-0.219
			c-0.015-0.07-0.016-0.158-0.016-0.258c0-0.283,0.031-0.559,0.1-0.834c0.063-0.271,0.144-0.516,0.247-0.721
			c0.097-0.213,0.211-0.385,0.332-0.516c0.125-0.131,0.243-0.201,0.374-0.201c0.122,0,0.248,0.025,0.358,0.066
			c0.12,0.041,0.217,0.117,0.312,0.234c0.084,0.111,0.159,0.271,0.214,0.479c0.052,0.199,0.082,0.455,0.082,0.773
			c0,0.379-0.016,0.818-0.054,1.307c-0.036,0.484-0.079,0.982-0.12,1.482c-0.044,0.496-0.079,0.965-0.118,1.41
			c-0.036,0.445-0.055,0.818-0.055,1.117c0,0.4,0.042,0.6,0.128,0.6c0.171,0,0.35-0.086,0.523-0.266
			c0.178-0.184,0.357-0.426,0.533-0.736c0.176-0.299,0.352-0.658,0.538-1.064c0.179-0.398,0.364-0.832,0.541-1.283
			c0.332-0.844,0.646-1.582,0.943-2.203c0.303-0.621,0.611-1.143,0.923-1.561c0.316-0.422,0.661-0.727,1.032-0.926
			c0.367-0.207,0.796-0.309,1.277-0.309c0.08,0,0.154,0.031,0.217,0.094c0.06,0.063,0.118,0.146,0.16,0.242
			c0.042,0.111,0.076,0.227,0.1,0.354c0.029,0.123,0.035,0.256,0.035,0.377c0,0.715,0.027,1.365,0.076,1.939
			c0.044,0.576,0.127,1.082,0.227,1.531c0.112,0.451,0.254,0.828,0.422,1.148c0.175,0.32,0.385,0.596,0.63,0.809
			c0.088,0.092,0.221,0.172,0.389,0.256c0.161,0.078,0.342,0.143,0.538,0.193c0.2,0.061,0.4,0.104,0.611,0.133
			c0.199,0.035,0.384,0.053,0.556,0.053c0.187,0,0.443-0.027,0.742-0.074c0.309-0.051,0.641-0.129,0.989-0.236
			c0.352-0.113,0.706-0.24,1.083-0.402c0.364-0.164,0.707-0.354,1.032-0.576c0.11-0.08,0.209-0.143,0.302-0.213
			c0.098-0.068,0.192-0.133,0.295-0.203c0.103-0.07,0.221-0.15,0.354-0.234C74.63,87.149,74.781,87.045,74.954,86.928z"/>
		<path fill="#221F20" d="M86.823,85.293c0,0.123-0.082,0.342-0.24,0.65c-0.371,0.625-0.79,1.242-1.254,1.859
			c-0.463,0.625-0.952,1.211-1.478,1.771c-0.521,0.553-1.063,1.074-1.625,1.559c-0.567,0.484-1.135,0.898-1.709,1.254
			c-0.576,0.35-1.151,0.617-1.721,0.811c-0.57,0.189-1.122,0.275-1.655,0.273c-1.149,0-2.039-0.381-2.677-1.154
			c-0.638-0.77-0.957-1.93-0.957-3.48c0-1.299,0.176-2.557,0.526-3.779c0.351-1.229,0.94-2.404,1.786-3.533
			c0.156-0.199,0.331-0.387,0.527-0.57c0.198-0.182,0.414-0.344,0.63-0.484c0.22-0.137,0.443-0.25,0.68-0.332
			c0.234-0.082,0.468-0.133,0.707-0.148c0.05,0,0.132,0.01,0.233,0.018c0.101,0.021,0.208,0.053,0.32,0.092
			c0.121,0.043,0.23,0.094,0.342,0.158c0.102,0.057,0.187,0.135,0.257,0.232c0.201,0.258,0.356,0.531,0.479,0.813
			c0.118,0.283,0.182,0.59,0.197,0.932c0.016,0.373-0.019,0.754-0.114,1.121c-0.089,0.367-0.242,0.742-0.452,1.125
			c-0.207,0.387-0.489,0.781-0.834,1.189c-0.348,0.41-0.762,0.848-1.253,1.322c-0.3,0.299-0.647,0.623-1.027,0.982
			c-0.376,0.363-0.832,0.736-1.364,1.137c0,0.797,0.21,1.41,0.633,1.824c0.418,0.418,1,0.625,1.725,0.625
			c0.417,0,0.828-0.057,1.247-0.184c0.412-0.125,0.827-0.287,1.229-0.486c0.4-0.205,0.79-0.436,1.17-0.697
			c0.375-0.258,0.731-0.529,1.059-0.803c0.61-0.51,1.166-1.02,1.66-1.525c0.493-0.508,0.99-1.045,1.479-1.609l0.581-0.666
			c0.357-0.357,0.607-0.531,0.762-0.531C86.778,85.057,86.823,85.139,86.823,85.293z M78.589,82.831
			c-0.013-0.127-0.024-0.252-0.046-0.371c-0.028-0.119-0.07-0.225-0.119-0.322c-0.052-0.082-0.106-0.16-0.171-0.211
			c-0.065-0.049-0.138-0.078-0.224-0.078c-0.383,0.029-0.768,0.289-1.146,0.791c-0.381,0.514-0.743,1.184-1.073,2.02
			c-0.082,0.184-0.157,0.389-0.213,0.609c-0.059,0.23-0.122,0.461-0.177,0.699c-0.047,0.232-0.097,0.469-0.139,0.697
			c-0.044,0.232-0.078,0.436-0.106,0.625c0.375-0.326,0.725-0.625,1.036-0.896c0.322-0.27,0.612-0.551,0.889-0.844
			c0.169-0.18,0.346-0.369,0.523-0.588c0.18-0.213,0.341-0.428,0.495-0.664c0.144-0.229,0.267-0.473,0.349-0.719
			C78.552,83.331,78.594,83.084,78.589,82.831z"/>
		<path fill="#221F20" d="M95.142,88.35c0,0.078-0.031,0.184-0.106,0.324c-0.079,0.143-0.188,0.299-0.328,0.479
			c-0.138,0.18-0.303,0.363-0.497,0.57c-0.194,0.199-0.417,0.402-0.66,0.602c-0.599,0.488-1.246,0.996-1.954,1.508
			c-0.703,0.516-1.411,1.02-2.114,1.518c-0.563,0.393-1.104,0.754-1.615,1.078c-0.512,0.33-0.958,0.602-1.347,0.828
			c-0.243,0.139-0.458,0.256-0.643,0.355c-0.185,0.105-0.349,0.184-0.499,0.248c-0.157,0.068-0.292,0.111-0.426,0.143
			c-0.137,0.031-0.265,0.045-0.399,0.045c-0.058,0-0.14-0.021-0.238-0.066c-0.084-0.049-0.176-0.107-0.254-0.188
			c-0.077-0.076-0.148-0.168-0.206-0.268c-0.054-0.096-0.08-0.203-0.08-0.309c0-0.527,0.174-0.949,0.532-1.268
			c0.086-0.072,0.173-0.137,0.246-0.197c0.082-0.055,0.177-0.113,0.272-0.162c0.104-0.053,0.225-0.107,0.362-0.16
			c0.141-0.045,0.312-0.098,0.521-0.146c0.39-0.092,0.762-0.209,1.12-0.346c0.358-0.145,0.621-0.293,0.804-0.453
			c0.173-0.148,0.298-0.35,0.368-0.588c0.071-0.24,0.104-0.498,0.104-0.771c0-0.275-0.249-0.824-0.744-1.662
			c-0.246-0.416-0.464-0.783-0.649-1.102c-0.191-0.316-0.354-0.605-0.497-0.887c-0.131-0.289-0.233-0.611-0.305-0.953
			c-0.066-0.344-0.101-0.668-0.101-0.984c0-0.57,0.088-1.152,0.27-1.746c0.085-0.348,0.219-0.697,0.399-1.033
			c0.185-0.348,0.391-0.652,0.612-0.93c0.229-0.266,0.449-0.486,0.678-0.66c0.226-0.18,0.422-0.266,0.592-0.266h0.036
			c0.632,0,0.946,0.434,0.946,1.293c0,0.328-0.108,0.654-0.314,0.961c-0.205,0.311-0.491,0.635-0.856,0.982
			c-0.178,0.17-0.347,0.328-0.498,0.457c-0.15,0.133-0.27,0.246-0.347,0.34c0,0.211,0.028,0.461,0.087,0.746
			c0.06,0.285,0.146,0.57,0.259,0.859c0.125,0.281,0.28,0.574,0.474,0.885c0.193,0.303,0.383,0.596,0.573,0.891
			c0.112,0.18,0.233,0.383,0.361,0.602c0.122,0.217,0.245,0.453,0.351,0.695c0.105,0.242,0.194,0.486,0.265,0.73
			c0.078,0.25,0.116,0.49,0.13,0.723c0,0.014,0.018,0.035,0.047,0.066c0.03,0.031,0.055,0.045,0.095,0.045
			c0.056,0,0.171-0.053,0.336-0.152c0.171-0.107,0.376-0.24,0.61-0.404c0.239-0.158,0.496-0.336,0.775-0.535
			c0.287-0.211,0.562-0.41,0.83-0.613c0.273-0.205,0.537-0.396,0.788-0.576c0.246-0.182,0.455-0.34,0.627-0.455
			c0.23-0.17,0.407-0.32,0.523-0.441c0.122-0.131,0.228-0.197,0.33-0.197c0.125,0,0.209,0.051,0.269,0.158
			C95.12,88.063,95.142,88.194,95.142,88.35z"/>
		<path fill="#221F20" d="M104.694,87.682c0,0.291-0.088,0.598-0.275,0.941c-0.188,0.336-0.456,0.721-0.801,1.143
			c-0.394,0.48-0.829,0.922-1.301,1.33c-0.477,0.412-0.963,0.76-1.469,1.066c-0.499,0.299-1.012,0.537-1.528,0.715
			c-0.515,0.176-1.018,0.262-1.498,0.262c-1.124,0-2.01-0.424-2.622-1.256c-0.616-0.836-0.928-2.057-0.928-3.664
			c0-0.514,0.04-1.041,0.117-1.572c0.081-0.527,0.2-1.059,0.352-1.578c0.157-0.525,0.352-1.027,0.583-1.512
			c0.233-0.488,0.506-0.943,0.809-1.361c0.197-0.262,0.416-0.52,0.649-0.781c0.24-0.266,0.5-0.504,0.792-0.711
			c0.287-0.215,0.599-0.391,0.936-0.516c0.345-0.133,0.715-0.199,1.123-0.199c0.289,0,0.546,0.064,0.771,0.191
			c0.235,0.125,0.428,0.289,0.589,0.488c0.154,0.199,0.276,0.422,0.359,0.674c0.078,0.242,0.122,0.486,0.122,0.725
			c0,0.51-0.12,1.018-0.354,1.533c-0.239,0.514-0.574,1.041-1.003,1.559c-0.432,0.527-0.951,1.051-1.551,1.574
			c-0.602,0.531-1.276,1.047-2.018,1.57c-0.102,0.064-0.202,0.139-0.306,0.217c-0.096,0.078-0.146,0.18-0.146,0.291
			c0,0.248,0.025,0.51,0.084,0.779c0.058,0.273,0.166,0.52,0.309,0.75c0.152,0.229,0.356,0.418,0.614,0.563
			c0.252,0.152,0.573,0.223,0.973,0.223c0.503,0,1.015-0.092,1.539-0.277c0.521-0.188,1.031-0.443,1.531-0.777
			c0.493-0.328,0.981-0.719,1.449-1.174c0.476-0.451,0.916-0.943,1.327-1.471c0.23-0.293,0.41-0.436,0.55-0.436
			c0.079,0,0.138,0.055,0.171,0.16C104.681,87.256,104.694,87.436,104.694,87.682z M99.694,82.393c0-0.096-0.019-0.18-0.062-0.256
			c-0.043-0.07-0.096-0.129-0.16-0.178c-0.06-0.055-0.125-0.092-0.19-0.119c-0.07-0.025-0.127-0.043-0.184-0.043
			c-0.312,0-0.638,0.129-0.968,0.391c-0.327,0.258-0.638,0.621-0.929,1.088c-0.281,0.455-0.532,1.002-0.751,1.645
			c-0.217,0.641-0.364,1.324-0.442,2.07c0.102-0.078,0.23-0.184,0.4-0.326c0.161-0.139,0.34-0.295,0.537-0.465
			c0.19-0.17,0.379-0.338,0.569-0.514c0.187-0.176,0.36-0.332,0.511-0.484c0.322-0.32,0.603-0.605,0.816-0.859
			c0.216-0.254,0.383-0.482,0.51-0.695c0.131-0.207,0.217-0.412,0.267-0.615C99.675,82.831,99.694,82.614,99.694,82.393z"/>
		<path fill="#221F20" d="M125.681,84.881c0,0.133-0.035,0.277-0.1,0.438c-0.064,0.164-0.154,0.33-0.26,0.504
			c-0.104,0.176-0.229,0.348-0.367,0.525c-0.133,0.184-0.27,0.354-0.406,0.529c-0.115,0.139-0.219,0.281-0.347,0.426
			c-0.122,0.146-0.264,0.305-0.415,0.486c-0.152,0.18-0.341,0.381-0.546,0.615c-0.207,0.236-0.45,0.514-0.733,0.826
			c-0.249,0.281-0.532,0.578-0.832,0.887c-0.31,0.309-0.616,0.613-0.929,0.914c-0.318,0.295-0.614,0.578-0.911,0.852
			c-0.297,0.275-0.553,0.514-0.767,0.721c-0.518,0.492-1.008,0.947-1.478,1.383c-0.469,0.43-0.93,0.82-1.379,1.168
			c-0.901,0.695-1.613,1.043-2.134,1.043c-0.178,0-0.389-0.053-0.629-0.164c-0.241-0.105-0.361-0.258-0.361-0.445
			c0-0.539,0.179-0.963,0.525-1.258c0.347-0.299,0.888-0.611,1.62-0.945c0.716-0.33,1.253-0.658,1.619-0.971
			c0.353-0.314,0.537-0.742,0.537-1.289c0-0.275-0.252-0.824-0.739-1.662c-0.245-0.416-0.466-0.801-0.658-1.156
			c-0.188-0.346-0.351-0.664-0.49-0.951c-0.269-0.57-0.408-1.18-0.408-1.818c0-0.551,0.088-1.137,0.269-1.746
			c0.088-0.348,0.221-0.701,0.415-1.045c0.193-0.354,0.393-0.668,0.625-0.941c0.218-0.275,0.445-0.5,0.677-0.664
			c0.225-0.168,0.432-0.246,0.6-0.238c0.632,0,0.95,0.434,0.95,1.293c0,0.328-0.104,0.654-0.314,0.961
			c-0.101,0.154-0.226,0.307-0.366,0.471c-0.142,0.158-0.31,0.332-0.496,0.512c-0.176,0.17-0.333,0.328-0.457,0.457
			c-0.125,0.133-0.232,0.246-0.31,0.34c0,0.43,0.118,0.93,0.35,1.508c0.121,0.283,0.262,0.592,0.417,0.912
			c0.154,0.334,0.342,0.686,0.548,1.072c0.208,0.377,0.385,0.719,0.526,1.021c0.147,0.297,0.254,0.523,0.329,0.66
			c0.006,0.037,0.046,0.051,0.121,0.051c0.096,0,0.272-0.078,0.518-0.254c0.247-0.168,0.546-0.395,0.889-0.68
			c0.339-0.281,0.713-0.619,1.113-0.992c0.398-0.381,0.805-0.779,1.21-1.193c0.411-0.434,0.758-0.809,1.031-1.133
			c0.273-0.32,0.532-0.621,0.775-0.902c0.248-0.283,0.426-0.5,0.548-0.654c0.118-0.146,0.185-0.225,0.199-0.225
			c0.062,0,0.108,0.021,0.159,0.068c0.053,0.061,0.098,0.119,0.136,0.197c0.037,0.078,0.066,0.158,0.091,0.248
			C125.665,84.723,125.681,84.811,125.681,84.881z"/>
		<path fill="#221F20" d="M123.994,90.336c0-0.695,0.059-1.379,0.155-2.045c0.11-0.676,0.228-1.313,0.348-1.918
			c0.126-0.605,0.241-1.164,0.349-1.674c0.099-0.516,0.157-0.959,0.157-1.344c0-0.121-0.032-0.199-0.103-0.23
			c-0.059-0.031-0.148-0.041-0.255-0.041c-0.09,0-0.184,0.01-0.287,0.039c-0.101,0.023-0.208,0.047-0.322,0.072
			c-0.117,0.027-0.217,0.053-0.327,0.08c-0.102,0.018-0.197,0.035-0.276,0.035c-0.239,0-0.454-0.008-0.642-0.008
			c-0.189-0.004-0.345-0.033-0.473-0.096c-0.13-0.057-0.23-0.154-0.291-0.295c-0.067-0.141-0.101-0.346-0.101-0.623
			c0-0.117,0.034-0.211,0.106-0.289c0.066-0.078,0.156-0.141,0.253-0.193c0.111-0.045,0.223-0.086,0.35-0.107
			c0.121-0.018,0.245-0.023,0.359-0.023c0.085,0,0.217-0.016,0.397-0.031c0.172-0.027,0.358-0.047,0.56-0.078
			c0.199-0.031,0.385-0.059,0.562-0.078c0.178-0.031,0.317-0.043,0.397-0.055c0.117-0.006,0.229-0.074,0.342-0.201
			c0.105-0.129,0.193-0.279,0.281-0.455c0.074-0.168,0.143-0.348,0.195-0.531c0.054-0.186,0.088-0.33,0.113-0.461
			c0.036-0.219,0.082-0.5,0.131-0.832c0.058-0.34,0.115-0.674,0.183-1.02c0.061-0.342,0.132-0.666,0.206-0.979
			c0.079-0.303,0.152-0.549,0.232-0.734c0.09-0.197,0.188-0.352,0.305-0.457c0.11-0.102,0.26-0.152,0.432-0.152
			c0.508,0,0.765,0.32,0.765,0.959c0,0.379-0.078,0.832-0.226,1.348c-0.042,0.168-0.094,0.361-0.152,0.598
			c-0.055,0.23-0.114,0.469-0.165,0.709c-0.044,0.246-0.09,0.475-0.125,0.691c-0.033,0.213-0.058,0.385-0.058,0.516
			c0,0.291,0.131,0.436,0.391,0.436c0.311,0,0.578-0.004,0.813-0.012c0.223-0.008,0.449-0.025,0.675-0.053
			c0.224-0.025,0.462-0.061,0.728-0.105c0.266-0.053,0.582-0.123,0.969-0.209c0.301-0.078,0.54-0.141,0.706-0.188
			c0.157-0.045,0.3-0.086,0.424-0.125c0.121-0.045,0.243-0.088,0.383-0.137c0.133-0.041,0.316-0.102,0.554-0.176
			c0,0.014,0.02,0.043,0.063,0.082c0.059,0.037,0.101,0.082,0.158,0.123c0.057,0.053,0.101,0.105,0.145,0.15
			c0.043,0.043,0.064,0.078,0.064,0.098c0,0.146-0.022,0.271-0.073,0.387c-0.054,0.109-0.112,0.213-0.193,0.301
			c-0.077,0.09-0.155,0.174-0.248,0.24c-0.099,0.068-0.19,0.135-0.287,0.189c-0.456,0.234-0.968,0.42-1.52,0.547
			c-0.562,0.133-1.11,0.252-1.641,0.35c-0.366,0.066-0.688,0.121-0.978,0.17c-0.283,0.055-0.538,0.105-0.747,0.166
			c-0.209,0.055-0.39,0.115-0.535,0.186c-0.144,0.074-0.248,0.172-0.31,0.283c-0.038,0.119-0.09,0.34-0.159,0.645
			c-0.066,0.299-0.144,0.648-0.23,1.02c-0.078,0.383-0.159,0.766-0.238,1.16c-0.077,0.4-0.144,0.754-0.194,1.072
			c-0.032,0.145-0.058,0.354-0.091,0.619c-0.033,0.27-0.064,0.547-0.098,0.832c-0.032,0.293-0.058,0.566-0.078,0.822
			c-0.018,0.258-0.028,0.445-0.028,0.57c0.016,0.727,0.14,1.246,0.362,1.563c0.218,0.311,0.604,0.473,1.143,0.473
			c0.366-0.027,0.724-0.074,1.057-0.148c0.333-0.064,0.668-0.188,1.016-0.352c0.352-0.164,0.723-0.379,1.127-0.666
			c0.409-0.268,0.868-0.623,1.389-1.053c0.162-0.129,0.313-0.275,0.467-0.418c0.146-0.141,0.281-0.279,0.41-0.393
			c0.128-0.111,0.253-0.209,0.37-0.289c0.111-0.076,0.215-0.117,0.323-0.117c0.123,0,0.207,0.027,0.237,0.08
			c0.038,0.053,0.048,0.154,0.048,0.287c0,0.109-0.029,0.248-0.1,0.404c-0.071,0.154-0.157,0.322-0.284,0.504
			c-0.113,0.184-0.26,0.371-0.427,0.57c-0.174,0.188-0.348,0.371-0.55,0.543c-0.423,0.391-0.861,0.762-1.316,1.107
			c-0.46,0.346-0.921,0.65-1.388,0.908c-0.471,0.262-0.944,0.471-1.409,0.623c-0.468,0.152-0.926,0.23-1.38,0.23
			c-0.52,0-0.958-0.096-1.326-0.291c-0.364-0.188-0.665-0.443-0.901-0.756c-0.23-0.32-0.394-0.686-0.507-1.09
			C124.053,91.196,123.994,90.774,123.994,90.336z"/>
		<path fill="#221F20" d="M146.271,85.293c0,0.123-0.083,0.342-0.237,0.65c-0.372,0.625-0.791,1.242-1.251,1.859
			c-0.472,0.625-0.959,1.211-1.48,1.771c-0.524,0.553-1.066,1.074-1.631,1.559c-0.563,0.484-1.13,0.898-1.706,1.254
			c-0.576,0.35-1.15,0.617-1.722,0.811c-0.569,0.189-1.125,0.275-1.657,0.273c-1.148,0-2.043-0.381-2.675-1.154
			c-0.637-0.77-0.959-1.93-0.959-3.48c0-1.299,0.182-2.557,0.53-3.779c0.342-1.229,0.939-2.404,1.774-3.533
			c0.168-0.199,0.342-0.387,0.541-0.57c0.199-0.182,0.402-0.344,0.628-0.484c0.215-0.137,0.44-0.25,0.674-0.332
			c0.234-0.082,0.472-0.133,0.706-0.148c0.06,0,0.141,0.01,0.24,0.018c0.103,0.021,0.207,0.053,0.327,0.092
			c0.109,0.043,0.225,0.094,0.327,0.158c0.112,0.057,0.198,0.135,0.26,0.232c0.202,0.258,0.364,0.531,0.48,0.813
			c0.121,0.283,0.186,0.59,0.197,0.932c0.014,0.373-0.021,0.754-0.112,1.121c-0.089,0.367-0.237,0.742-0.447,1.125
			c-0.218,0.387-0.497,0.781-0.842,1.189c-0.343,0.41-0.761,0.848-1.246,1.322c-0.312,0.299-0.653,0.623-1.032,0.982
			c-0.375,0.363-0.829,0.736-1.365,1.137c0,0.797,0.214,1.41,0.634,1.824c0.42,0.418,0.998,0.625,1.728,0.625
			c0.413,0,0.826-0.057,1.241-0.184c0.417-0.125,0.823-0.287,1.232-0.486c0.403-0.205,0.794-0.436,1.167-0.697
			c0.382-0.258,0.732-0.529,1.065-0.803c0.607-0.51,1.162-1.02,1.661-1.525c0.49-0.508,0.987-1.045,1.472-1.609l0.588-0.666
			c0.35-0.357,0.601-0.531,0.762-0.531C146.227,85.057,146.271,85.139,146.271,85.293z M138.037,82.831
			c-0.01-0.127-0.027-0.252-0.055-0.371c-0.02-0.119-0.055-0.225-0.114-0.322c-0.043-0.082-0.104-0.16-0.168-0.211
			c-0.066-0.049-0.143-0.078-0.225-0.078c-0.383,0.029-0.764,0.289-1.145,0.791c-0.382,0.514-0.74,1.184-1.079,2.02
			c-0.082,0.184-0.147,0.389-0.21,0.609c-0.065,0.23-0.116,0.461-0.17,0.699c-0.059,0.232-0.101,0.469-0.145,0.697
			c-0.04,0.232-0.068,0.436-0.102,0.625c0.376-0.326,0.723-0.625,1.035-0.896c0.318-0.27,0.613-0.551,0.888-0.844
			c0.173-0.18,0.349-0.369,0.522-0.588c0.183-0.213,0.344-0.428,0.492-0.664c0.148-0.229,0.263-0.473,0.35-0.719
			C138.003,83.331,138.039,83.084,138.037,82.831z"/>
		<path fill="#221F20" d="M159.229,83.516c0,0.076-0.049,0.281-0.151,0.623c-0.105,0.34-0.258,0.754-0.454,1.234
			c-0.198,0.484-0.441,1.008-0.723,1.59c-0.284,0.578-0.605,1.143-0.958,1.686c-0.428,0.678-0.857,1.264-1.279,1.77
			c-0.428,0.51-0.828,0.924-1.216,1.264c-0.384,0.332-0.739,0.586-1.061,0.758c-0.325,0.164-0.608,0.248-0.839,0.248
			c-0.396,0-0.719-0.061-0.968-0.191c-0.236-0.129-0.438-0.324-0.596-0.58c-0.156-0.262-0.29-0.596-0.383-0.994
			c-0.098-0.398-0.192-0.871-0.285-1.418h-0.152c-0.302,0.525-0.627,1.053-0.985,1.572c-0.355,0.514-0.73,0.971-1.114,1.385
			c-0.382,0.412-0.777,0.738-1.18,0.996c-0.413,0.256-0.813,0.387-1.209,0.387c-0.204,0-0.424-0.045-0.651-0.135
			c-0.231-0.082-0.444-0.221-0.643-0.41c-0.188-0.191-0.35-0.434-0.482-0.732c-0.128-0.291-0.192-0.639-0.192-1.051
			c0-0.371,0.035-0.783,0.122-1.25c0.07-0.467,0.183-0.953,0.316-1.461c0.142-0.51,0.298-1.025,0.474-1.537
			c0.174-0.516,0.362-1.008,0.56-1.469c0.197-0.463,0.397-0.879,0.599-1.256c0.198-0.383,0.396-0.678,0.58-0.9
			c0.214-0.264,0.47-0.533,0.761-0.809c0.292-0.268,0.611-0.516,0.96-0.738c0.357-0.219,0.732-0.41,1.137-0.555
			c0.404-0.143,0.825-0.217,1.274-0.217c0.36,0,0.624,0.133,0.81,0.404c0.176,0.27,0.303,0.674,0.366,1.223
			c0.018,0.045,0.037,0.105,0.093,0.172c0.042,0.066,0.092,0.139,0.144,0.221c0.055,0.082,0.106,0.168,0.148,0.256
			c0.041,0.086,0.065,0.18,0.065,0.266c0,0.131-0.024,0.295-0.072,0.486c-0.051,0.195-0.109,0.416-0.177,0.662
			c-0.054,0.242-0.108,0.508-0.164,0.793c-0.047,0.285-0.077,0.578-0.077,0.895c0,0.432,0.004,0.887,0.019,1.375
			c0.005,0.49,0.048,0.938,0.124,1.344c0.072,0.412,0.197,0.752,0.372,1.025c0.18,0.273,0.432,0.404,0.775,0.404
			c0.169,0,0.373-0.076,0.614-0.244c0.24-0.162,0.512-0.395,0.805-0.695c0.287-0.295,0.592-0.648,0.914-1.068
			c0.321-0.406,0.646-0.857,0.988-1.357c0.386-0.572,0.727-1.137,1.006-1.693c0.288-0.559,0.545-1.051,0.759-1.484
			c0.218-0.436,0.397-0.785,0.552-1.055c0.15-0.266,0.279-0.402,0.387-0.402h0.012c0.12,0.002,0.201,0.045,0.234,0.121
			c0.038,0.076,0.055,0.17,0.055,0.283c0,0.049,0,0.088,0,0.133C159.24,83.426,159.236,83.469,159.229,83.516z M150.465,84.088
			c0-0.084-0.032-0.172-0.084-0.281c-0.05-0.1-0.121-0.201-0.197-0.295c-0.084-0.092-0.18-0.178-0.278-0.236
			c-0.105-0.072-0.19-0.105-0.281-0.105c-0.224,0-0.429,0.041-0.62,0.123c-0.193,0.086-0.366,0.189-0.533,0.316
			c-0.171,0.133-0.318,0.273-0.459,0.441c-0.143,0.17-0.261,0.334-0.373,0.492c-0.257,0.389-0.521,0.85-0.788,1.396
			c-0.274,0.551-0.518,1.129-0.735,1.73c-0.219,0.602-0.398,1.197-0.539,1.783c-0.141,0.59-0.213,1.111-0.213,1.563
			c0,0.23,0.094,0.432,0.272,0.594c0.181,0.164,0.421,0.246,0.722,0.246c0.175,0,0.38-0.088,0.622-0.266
			c0.236-0.176,0.487-0.412,0.754-0.701c0.262-0.295,0.519-0.627,0.777-1.002c0.255-0.371,0.48-0.754,0.676-1.148
			c0.364-0.744,0.671-1.494,0.913-2.252C150.344,85.729,150.465,84.936,150.465,84.088z"/>
		<path fill="#221F20" d="M171.886,92.305c0,0.172-0.085,0.34-0.252,0.5c-0.164,0.156-0.366,0.303-0.608,0.416
			c-0.235,0.119-0.479,0.205-0.728,0.281c-0.247,0.068-0.45,0.109-0.611,0.109c-0.645,0-1.249-0.084-1.806-0.236
			c-0.56-0.162-1.121-0.377-1.694-0.654c-0.479-0.221-0.932-0.477-1.362-0.762c-0.425-0.287-0.854-0.592-1.284-0.904
			c-0.429-0.316-0.863-0.637-1.302-0.961c-0.438-0.328-0.902-0.65-1.393-0.961c-0.011,0.02-0.045,0.055-0.104,0.117
			c-0.05,0.063-0.112,0.133-0.18,0.203c-0.066,0.078-0.141,0.154-0.216,0.23c-0.075,0.082-0.135,0.143-0.188,0.191
			c-0.185,0.189-0.333,0.355-0.442,0.494c-0.101,0.145-0.182,0.279-0.251,0.404c-0.075,0.129-0.131,0.258-0.168,0.379
			c-0.045,0.125-0.095,0.258-0.154,0.406c0.028,0.16,0.022,0.352-0.013,0.568c-0.038,0.217-0.063,0.418-0.063,0.594
			c0,0.541-0.095,0.943-0.29,1.223c-0.198,0.27-0.514,0.402-0.934,0.402c-0.258,0-0.426-0.07-0.493-0.215
			c-0.069-0.145-0.107-0.379-0.107-0.701c0-0.098,0.014-0.311,0.05-0.637c0.033-0.326,0.077-0.725,0.128-1.203
			c0.049-0.473,0.106-1.004,0.179-1.582c0.072-0.588,0.135-1.182,0.212-1.781c0.077-0.613,0.148-1.215,0.223-1.816
			c0.075-0.596,0.138-1.15,0.202-1.662c0.067-0.506,0.122-0.945,0.163-1.316c0.057-0.373,0.088-0.637,0.106-0.807
			c0.017-0.146,0.035-0.373,0.06-0.666c0.02-0.299,0.044-0.635,0.066-1.006c0.024-0.375,0.052-0.762,0.081-1.168
			c0.029-0.412,0.063-0.799,0.084-1.158c0.023-0.367,0.047-0.691,0.062-0.969c0.018-0.281,0.03-0.48,0.04-0.598l0.086-1.217
			c0.008-0.135,0.055-0.264,0.149-0.395c0.092-0.123,0.205-0.229,0.338-0.322c0.135-0.086,0.281-0.16,0.426-0.217
			c0.148-0.051,0.295-0.076,0.424-0.076c0.126,0,0.226,0.025,0.32,0.08c0.093,0.064,0.172,0.131,0.237,0.213
			c0.06,0.082,0.099,0.176,0.132,0.273c0.028,0.102,0.04,0.186,0.04,0.262c0,0.115-0.015,0.328-0.052,0.629
			c-0.033,0.311-0.083,0.678-0.152,1.111c-0.064,0.428-0.127,0.893-0.209,1.406c-0.084,0.508-0.166,1.031-0.248,1.557
			c-0.084,0.523-0.163,1.041-0.238,1.529c-0.084,0.504-0.154,0.955-0.218,1.357c-0.066,0.398-0.12,0.734-0.158,1.004
			c-0.044,0.254-0.07,0.422-0.082,0.475c-0.107,1-0.195,1.855-0.275,2.559c-0.083,0.697-0.154,1.252-0.208,1.656
			c0.073-0.092,0.205-0.258,0.396-0.5c0.188-0.242,0.409-0.525,0.657-0.844c0.252-0.313,0.519-0.654,0.8-1.01
			c0.278-0.352,0.544-0.695,0.789-1.012c0.243-0.32,0.459-0.594,0.641-0.832c0.185-0.234,0.304-0.391,0.36-0.473
			c0.295-0.443,0.6-0.885,0.91-1.328c0.313-0.453,0.624-0.861,0.94-1.229c0.309-0.359,0.621-0.656,0.932-0.883
			c0.313-0.227,0.607-0.34,0.907-0.34c0.455,0,0.689,0.141,0.689,0.434c0,0.129-0.038,0.289-0.116,0.477
			c-0.071,0.184-0.164,0.373-0.277,0.563c-0.104,0.193-0.22,0.375-0.335,0.555c-0.118,0.174-0.224,0.326-0.316,0.439
			c-0.114,0.146-0.262,0.324-0.439,0.525c-0.176,0.199-0.366,0.418-0.57,0.65c-0.206,0.234-0.418,0.465-0.645,0.715
			c-0.224,0.242-0.436,0.479-0.637,0.695c-0.202,0.223-0.391,0.428-0.564,0.615c-0.169,0.184-0.297,0.338-0.405,0.451
			c-0.085,0.102-0.167,0.191-0.246,0.271c-0.079,0.086-0.155,0.164-0.233,0.25c-0.071,0.082-0.146,0.174-0.221,0.275
			c-0.067,0.109-0.148,0.23-0.231,0.367c0.69,0.49,1.396,0.963,2.103,1.42c0.707,0.457,1.417,0.871,2.112,1.246
			c0.703,0.367,1.395,0.691,2.082,0.963c0.688,0.27,1.354,0.459,2.016,0.578c0.256,0.045,0.486,0.063,0.683,0.061
			c0.196,0,0.363,0,0.494,0c0.134,0.002,0.236,0.023,0.302,0.053C171.855,92.129,171.886,92.2,171.886,92.305z"/>
		<path fill="#221F20" d="M199.485,85.698c0,0.178-0.107,0.445-0.319,0.818c-0.083,0.148-0.185,0.32-0.304,0.498
			c-0.125,0.18-0.248,0.363-0.383,0.551c-0.134,0.186-0.262,0.363-0.397,0.523c-0.124,0.168-0.245,0.311-0.342,0.422
			c-0.417,0.484-0.864,0.953-1.328,1.4c-0.461,0.449-0.949,0.852-1.441,1.201c-0.507,0.346-1.021,0.635-1.558,0.848
			c-0.536,0.213-1.081,0.322-1.637,0.33c-0.423,0-0.797-0.086-1.12-0.268c-0.334-0.186-0.591-0.475-0.777-0.885
			c-0.185-0.404-0.321-0.857-0.419-1.359c-0.093-0.51-0.166-1.047-0.227-1.621c-0.004-0.094-0.016-0.229-0.036-0.408
			c-0.011-0.191-0.022-0.385-0.046-0.6c-0.015-0.225-0.041-0.449-0.065-0.678c-0.029-0.23-0.063-0.445-0.099-0.637
			c-0.036-0.186-0.078-0.346-0.119-0.461c-0.049-0.121-0.104-0.18-0.162-0.18c-0.224,0-0.534,0.172-0.913,0.508
			c-0.389,0.346-0.814,0.797-1.273,1.355c-0.463,0.557-0.933,1.184-1.413,1.889c-0.481,0.703-0.927,1.418-1.352,2.145
			c-0.364,0.629-0.695,1.258-0.992,1.893c-0.302,0.631-0.559,1.184-0.781,1.652c-0.125,0.213-0.255,0.367-0.389,0.449
			c-0.14,0.09-0.235,0.133-0.281,0.133c-0.116,0-0.232-0.033-0.355-0.09c-0.113-0.068-0.223-0.145-0.317-0.244
			c-0.101-0.1-0.18-0.213-0.24-0.342s-0.091-0.252-0.091-0.375c0-0.107,0.018-0.289,0.048-0.529
			c0.033-0.246,0.074-0.518,0.112-0.822c0.044-0.309,0.085-0.623,0.131-0.947c0.045-0.332,0.076-0.627,0.109-0.91
			c0.045-0.547,0.107-1.145,0.171-1.797c0.066-0.658,0.126-1.318,0.184-1.982c0.057-0.662,0.109-1.313,0.162-1.953
			c0.049-0.633,0.087-1.203,0.118-1.717c0.01-0.166,0.015-0.385,0.034-0.658c0.01-0.273,0.027-0.572,0.042-0.898
			c0.011-0.328,0.028-0.67,0.043-1.035c0.017-0.365,0.03-0.719,0.043-1.063c0.014-0.34,0.03-0.662,0.036-0.967
			c0.016-0.297,0.025-0.553,0.03-0.76c0.009-0.23,0.018-0.443,0.039-0.645c0.015-0.199,0.038-0.395,0.073-0.586
			c0.03-0.193,0.075-0.387,0.141-0.588c0.06-0.193,0.136-0.404,0.235-0.635c0.022-0.08,0.07-0.154,0.141-0.246
			c0.056-0.09,0.133-0.17,0.218-0.246c0.081-0.08,0.169-0.141,0.267-0.195c0.1-0.055,0.2-0.082,0.295-0.082
			c0.211,0,0.397,0.098,0.568,0.283c0.171,0.193,0.248,0.455,0.248,0.799c0,0.105-0.008,0.252-0.044,0.43
			c-0.033,0.186-0.069,0.371-0.11,0.563c-0.043,0.195-0.087,0.389-0.125,0.563c-0.038,0.176-0.069,0.309-0.078,0.398
			c-0.063,0.34-0.113,0.729-0.157,1.164c-0.038,0.443-0.081,0.887-0.119,1.346c-0.045,0.453-0.073,0.9-0.104,1.336
			c-0.033,0.449-0.054,0.84-0.078,1.186c-0.018,0.398-0.046,0.771-0.081,1.117c-0.025,0.348-0.063,0.691-0.094,1.037
			c-0.031,0.338-0.063,0.689-0.09,1.039c-0.03,0.352-0.062,0.729-0.09,1.133c-0.052,0.613-0.102,1.15-0.173,1.621
			c-0.065,0.465-0.095,0.861-0.095,1.191c0,0.051,0.021,0.105,0.067,0.176c0.043,0.066,0.096,0.098,0.121,0.098h0.048
			c0.065-0.088,0.147-0.232,0.25-0.406c0.1-0.186,0.214-0.385,0.346-0.594c0.127-0.219,0.258-0.438,0.4-0.678
			c0.136-0.236,0.283-0.451,0.414-0.656c0.141-0.195,0.287-0.408,0.45-0.645c0.164-0.236,0.332-0.477,0.504-0.715
			c0.18-0.238,0.359-0.475,0.542-0.719c0.179-0.24,0.36-0.465,0.535-0.668c0.224-0.254,0.471-0.523,0.737-0.807
			c0.276-0.275,0.562-0.533,0.863-0.768c0.298-0.227,0.596-0.418,0.9-0.572c0.304-0.146,0.584-0.223,0.859-0.223
			c0.048,0,0.119,0.02,0.198,0.055c0.082,0.035,0.169,0.08,0.244,0.137c0.084,0.064,0.167,0.141,0.236,0.229
			c0.072,0.086,0.123,0.189,0.164,0.305c0.145,0.445,0.249,0.885,0.309,1.334c0.069,0.447,0.124,0.916,0.18,1.412
			c0.039,0.422,0.085,0.859,0.132,1.305c0.053,0.447,0.121,0.848,0.196,1.213c0.082,0.367,0.184,0.664,0.309,0.893
			c0.126,0.23,0.29,0.346,0.48,0.346c0.885,0,1.733-0.227,2.543-0.686c0.431-0.238,0.807-0.463,1.113-0.691
			c0.316-0.227,0.611-0.455,0.877-0.695c0.271-0.236,0.533-0.5,0.807-0.791c0.26-0.285,0.572-0.623,0.923-1.002
			c0.692-0.734,1.101-1.102,1.222-1.102C199.428,85.194,199.485,85.366,199.485,85.698z"/>
		<path fill="#221F20" d="M212.704,82.913c0,0.141-0.045,0.291-0.129,0.457c-0.083,0.168-0.195,0.334-0.337,0.502
			c-0.134,0.164-0.289,0.334-0.462,0.496c-0.172,0.162-0.344,0.311-0.514,0.445c-0.173,0.139-0.338,0.256-0.492,0.367
			c-0.159,0.096-0.286,0.174-0.379,0.223c-0.191,0.094-0.434,0.172-0.738,0.244c-0.314,0.07-0.628,0.125-0.959,0.176
			c-0.328,0.053-0.654,0.086-0.969,0.117c-0.318,0.031-0.577,0.045-0.799,0.045c-0.084,0-0.205-0.018-0.357-0.049
			c-0.146-0.035-0.301-0.074-0.462-0.121c-0.156-0.053-0.31-0.113-0.44-0.168c-0.146-0.066-0.25-0.125-0.314-0.195
			c0.064,0.311,0.125,0.635,0.172,0.949c0.047,0.322,0.074,0.645,0.074,0.984c0,0.145-0.008,0.332-0.049,0.543
			c-0.028,0.221-0.072,0.434-0.131,0.654c-0.055,0.217-0.109,0.43-0.176,0.627c-0.066,0.203-0.136,0.377-0.202,0.5
			c-0.188,0.373-0.381,0.701-0.578,0.994c-0.198,0.303-0.416,0.576-0.669,0.824c-0.246,0.254-0.527,0.494-0.836,0.711
			c-0.305,0.229-0.66,0.443-1.072,0.65c-0.43,0.213-0.857,0.365-1.29,0.451c-0.439,0.084-0.893,0.131-1.354,0.131
			c-0.299,0-0.561-0.096-0.787-0.299c-0.23-0.197-0.425-0.465-0.585-0.801c-0.157-0.336-0.281-0.717-0.359-1.16
			c-0.084-0.432-0.122-0.891-0.122-1.369c0-0.133,0.004-0.279,0.024-0.459c0.02-0.188,0.048-0.369,0.078-0.559
			c0.029-0.191,0.061-0.377,0.098-0.553c0.037-0.166,0.075-0.316,0.112-0.441c0.093-0.346,0.243-0.746,0.429-1.188
			c0.186-0.445,0.408-0.904,0.657-1.375c0.252-0.467,0.536-0.918,0.841-1.367c0.307-0.453,0.633-0.857,0.973-1.215
			c0.333-0.354,0.687-0.637,1.052-0.857c0.366-0.211,0.734-0.32,1.097-0.32c0.125,0,0.228,0.025,0.302,0.066
			c0.076,0.041,0.138,0.094,0.194,0.16s0.103,0.143,0.146,0.209c0.038,0.078,0.097,0.152,0.151,0.221
			c0.025,0.043,0.051,0.068,0.096,0.068c0.058,0,0.131-0.021,0.216-0.055c0.085-0.027,0.187-0.047,0.288-0.047
			c0.14,0,0.309,0.104,0.507,0.305c0.205,0.203,0.409,0.42,0.637,0.668c0.22,0.244,0.438,0.463,0.66,0.676
			c0.215,0.199,0.411,0.297,0.58,0.297c0.196,0,0.406-0.004,0.63-0.014c0.227-0.006,0.445-0.027,0.676-0.041
			c0.234-0.02,0.46-0.047,0.679-0.08c0.224-0.035,0.43-0.072,0.612-0.117c0.058-0.014,0.169-0.045,0.36-0.107
			c0.188-0.055,0.406-0.125,0.654-0.205c0.249-0.076,0.508-0.164,0.788-0.258c0.271-0.088,0.531-0.17,0.766-0.248
			c0.238-0.08,0.435-0.15,0.588-0.193c0.155-0.049,0.245-0.076,0.257-0.076c0.04,0,0.08,0.016,0.115,0.037
			C212.69,82.801,212.704,82.85,212.704,82.913z M204.297,84.895c-0.047-0.166-0.129-0.33-0.25-0.482
			c-0.128-0.156-0.273-0.303-0.436-0.42c-0.161-0.127-0.335-0.229-0.514-0.307c-0.177-0.08-0.352-0.119-0.504-0.119
			c-0.129,0-0.253,0.025-0.376,0.076c-0.128,0.045-0.247,0.113-0.365,0.189c-0.117,0.084-0.229,0.17-0.336,0.264
			c-0.109,0.094-0.212,0.182-0.307,0.264c-0.276,0.275-0.55,0.658-0.802,1.146c-0.252,0.496-0.479,1.025-0.672,1.586
			c-0.187,0.57-0.336,1.135-0.451,1.691c-0.114,0.564-0.174,1.049-0.174,1.463c0,0.18,0.027,0.359,0.084,0.527
			c0.055,0.17,0.128,0.316,0.23,0.445c0.098,0.131,0.219,0.23,0.351,0.309c0.142,0.078,0.288,0.117,0.457,0.117
			c0.427,0,0.827-0.086,1.195-0.268c0.364-0.172,0.694-0.416,0.996-0.729c0.299-0.309,0.561-0.676,0.79-1.107
			c0.235-0.43,0.43-0.893,0.587-1.393c0.155-0.502,0.278-1.027,0.36-1.58C204.244,86.014,204.29,85.456,204.297,84.895z"/>
		<path fill="#221F20" d="M229.933,83.817c0,0.316-0.065,0.674-0.201,1.076c-0.14,0.4-0.321,0.77-0.562,1.117
			c-0.301,0.445-0.645,0.887-1.018,1.32c-0.381,0.441-0.775,0.863-1.181,1.262c-0.412,0.4-0.829,0.779-1.252,1.117
			c-0.424,0.344-0.843,0.635-1.235,0.893c-0.4,0.248-0.774,0.453-1.127,0.594s-0.661,0.215-0.928,0.215
			c-0.338,0-0.63-0.061-0.883-0.199c-0.255-0.131-0.473-0.309-0.655-0.535c-0.184-0.227-0.339-0.498-0.457-0.801
			c-0.123-0.307-0.224-0.625-0.319-0.967c-0.085-0.334-0.159-0.682-0.218-1.045c-0.062-0.357-0.11-0.707-0.16-1.047
			c-0.179,0.311-0.382,0.668-0.611,1.059c-0.226,0.389-0.461,0.793-0.709,1.195c-0.247,0.402-0.499,0.797-0.754,1.172
			c-0.259,0.375-0.497,0.703-0.721,0.988c-0.249,0.297-0.525,0.594-0.828,0.875c-0.294,0.281-0.609,0.529-0.949,0.74
			c-0.327,0.209-0.683,0.377-1.048,0.508c-0.366,0.125-0.742,0.191-1.132,0.191c-0.566,0-1.013-0.27-1.337-0.807
			c-0.313-0.535-0.474-1.156-0.474-1.859c0-0.324,0.021-0.676,0.064-1.031c0.054-0.357,0.107-0.715,0.162-1.076
			c0.066-0.355,0.128-0.701,0.186-1.045c0.052-0.342,0.093-0.67,0.116-0.971c0.004-0.133,0.012-0.279,0.017-0.465
			c0.002-0.189,0.002-0.406,0.002-0.648c0-0.227,0-0.434,0-0.621c0-0.184,0.009-0.361,0.01-0.527c0.01-0.172,0.021-0.34,0.039-0.502
			c0.014-0.17,0.03-0.342,0.061-0.523c0.043-0.279,0.142-0.521,0.286-0.732c0.156-0.203,0.396-0.305,0.718-0.305
			c0.661,0,0.994,0.521,0.994,1.57c0,0.182-0.021,0.383-0.056,0.602c-0.032,0.219-0.063,0.445-0.109,0.684
			c-0.039,0.234-0.089,0.473-0.136,0.715c-0.044,0.246-0.082,0.48-0.122,0.715c-0.074,0.324-0.146,0.639-0.221,0.965
			c-0.066,0.324-0.134,0.635-0.193,0.941c-0.06,0.311-0.112,0.604-0.147,0.889c-0.036,0.287-0.053,0.547-0.053,0.789
			c0,0.117,0.015,0.264,0.043,0.406c0.031,0.156,0.07,0.305,0.131,0.438c0.059,0.135,0.134,0.254,0.229,0.346
			c0.098,0.084,0.211,0.135,0.34,0.135c0.385,0,0.764-0.123,1.151-0.365c0.393-0.244,0.758-0.553,1.12-0.908
			c0.355-0.359,0.692-0.738,1.003-1.152c0.313-0.406,0.589-0.783,0.826-1.123c0.228-0.332,0.457-0.742,0.686-1.199
			c0.221-0.465,0.437-0.945,0.643-1.445c0.202-0.496,0.402-0.996,0.59-1.49c0.188-0.498,0.353-0.945,0.507-1.342
			c0.338-0.906,0.638-1.359,0.91-1.359c0.186,0,0.317,0.029,0.38,0.104c0.068,0.07,0.1,0.213,0.1,0.426
			c0,0.164-0.016,0.393-0.048,0.674c-0.034,0.277-0.069,0.57-0.114,0.873c-0.045,0.311-0.078,0.604-0.112,0.879
			c-0.03,0.285-0.046,0.504-0.046,0.66c0,0.141,0,0.318,0.004,0.518c0.002,0.201,0.006,0.41,0.017,0.625
			c0.002,0.217,0.021,0.426,0.035,0.637c0.021,0.207,0.039,0.396,0.066,0.541c0.033,0.17,0.084,0.381,0.157,0.633
			c0.068,0.254,0.16,0.498,0.273,0.742c0.104,0.236,0.248,0.441,0.404,0.613c0.157,0.174,0.333,0.248,0.555,0.248
			c0.378,0,0.822-0.123,1.313-0.393c0.491-0.266,0.998-0.604,1.516-1.02c0.517-0.42,1.03-0.885,1.541-1.402
			c0.515-0.512,0.988-1.025,1.424-1.529c0.168-0.199,0.347-0.395,0.524-0.594c0.177-0.199,0.335-0.365,0.483-0.496
			c0.148-0.135,0.262-0.219,0.36-0.262C229.894,83.678,229.933,83.713,229.933,83.817z"/>
		<path fill="#221F20" d="M237.696,88.35c0,0.078-0.038,0.184-0.111,0.324c-0.074,0.143-0.186,0.299-0.326,0.479
			s-0.307,0.363-0.498,0.57c-0.196,0.199-0.414,0.402-0.66,0.602c-0.595,0.488-1.248,0.996-1.954,1.508
			c-0.702,0.516-1.403,1.02-2.11,1.518c-0.571,0.393-1.108,0.754-1.62,1.078c-0.506,0.33-0.956,0.602-1.349,0.828
			c-0.24,0.139-0.45,0.256-0.635,0.355c-0.181,0.105-0.355,0.184-0.504,0.248c-0.146,0.068-0.293,0.111-0.424,0.143
			c-0.136,0.031-0.265,0.045-0.396,0.045c-0.063,0-0.146-0.021-0.233-0.066c-0.097-0.049-0.182-0.107-0.257-0.188
			c-0.088-0.076-0.151-0.168-0.212-0.268c-0.057-0.096-0.083-0.203-0.083-0.309c0-0.527,0.178-0.949,0.536-1.268
			c0.091-0.072,0.174-0.137,0.249-0.197c0.082-0.055,0.173-0.113,0.269-0.162c0.104-0.053,0.22-0.107,0.366-0.16
			c0.138-0.045,0.313-0.098,0.525-0.146c0.387-0.092,0.755-0.209,1.114-0.346c0.351-0.145,0.622-0.293,0.797-0.453
			c0.182-0.148,0.307-0.35,0.378-0.588c0.061-0.24,0.1-0.498,0.1-0.771c0-0.275-0.247-0.824-0.744-1.662
			c-0.241-0.416-0.46-0.783-0.652-1.102c-0.193-0.316-0.353-0.605-0.486-0.887c-0.137-0.289-0.249-0.611-0.31-0.953
			c-0.072-0.344-0.108-0.668-0.108-0.984c0-0.57,0.091-1.152,0.274-1.746c0.086-0.348,0.224-0.697,0.403-1.033
			c0.179-0.348,0.388-0.652,0.611-0.93c0.222-0.266,0.447-0.486,0.675-0.66c0.22-0.18,0.421-0.266,0.597-0.266h0.028
			c0.632,0,0.95,0.434,0.95,1.293c0,0.328-0.103,0.654-0.318,0.961c-0.203,0.311-0.487,0.635-0.854,0.982
			c-0.183,0.17-0.346,0.328-0.5,0.457c-0.148,0.133-0.266,0.246-0.345,0.34c0,0.211,0.032,0.461,0.089,0.746s0.143,0.57,0.256,0.859
			c0.125,0.281,0.281,0.574,0.476,0.885c0.193,0.303,0.388,0.596,0.576,0.891c0.11,0.18,0.238,0.383,0.358,0.602
			c0.125,0.217,0.241,0.453,0.355,0.695c0.099,0.242,0.197,0.486,0.265,0.73c0.068,0.25,0.116,0.49,0.129,0.723
			c0,0.014,0.014,0.035,0.044,0.066c0.026,0.031,0.064,0.045,0.093,0.045c0.063,0,0.173-0.053,0.348-0.152
			c0.166-0.107,0.363-0.24,0.605-0.404c0.235-0.158,0.494-0.336,0.777-0.535c0.279-0.211,0.556-0.41,0.826-0.613
			c0.27-0.205,0.538-0.396,0.784-0.576c0.247-0.182,0.46-0.34,0.628-0.455c0.229-0.17,0.404-0.32,0.524-0.441
			c0.12-0.131,0.225-0.197,0.33-0.197c0.119,0,0.21,0.051,0.274,0.158C237.666,88.063,237.696,88.194,237.696,88.35z"/>
		<path fill="#221F20" d="M247.252,87.682c0,0.291-0.099,0.598-0.282,0.941c-0.187,0.336-0.451,0.721-0.795,1.143
			c-0.397,0.48-0.829,0.922-1.308,1.33c-0.471,0.412-0.963,0.76-1.467,1.066c-0.502,0.299-1.014,0.537-1.529,0.715
			c-0.521,0.176-1.021,0.262-1.5,0.262c-1.125,0-2.001-0.424-2.621-1.256c-0.618-0.836-0.923-2.057-0.923-3.664
			c0-0.514,0.037-1.041,0.118-1.572c0.076-0.527,0.194-1.059,0.35-1.578c0.148-0.525,0.342-1.027,0.581-1.512
			c0.232-0.488,0.502-0.943,0.814-1.361c0.188-0.262,0.404-0.52,0.647-0.781c0.233-0.266,0.497-0.504,0.786-0.711
			c0.289-0.215,0.598-0.391,0.94-0.516c0.341-0.133,0.716-0.199,1.115-0.199c0.288,0,0.552,0.064,0.778,0.191
			c0.23,0.125,0.426,0.289,0.581,0.488c0.161,0.199,0.277,0.422,0.365,0.674c0.081,0.242,0.119,0.486,0.119,0.725
			c0,0.51-0.115,1.018-0.354,1.533c-0.24,0.514-0.569,1.041-1.004,1.559c-0.432,0.527-0.947,1.051-1.548,1.574
			c-0.605,0.531-1.277,1.047-2.023,1.57c-0.1,0.064-0.197,0.139-0.298,0.217s-0.153,0.18-0.153,0.291
			c0,0.248,0.028,0.51,0.089,0.779c0.056,0.273,0.16,0.52,0.312,0.75c0.156,0.229,0.356,0.418,0.611,0.563
			c0.258,0.152,0.578,0.223,0.979,0.223c0.5,0,1.005-0.092,1.532-0.277c0.522-0.188,1.029-0.443,1.534-0.777
			c0.5-0.328,0.984-0.719,1.453-1.174c0.473-0.451,0.915-0.943,1.322-1.471c0.225-0.293,0.411-0.436,0.552-0.436
			c0.076,0,0.131,0.055,0.166,0.16C247.232,87.256,247.252,87.436,247.252,87.682z M242.251,82.393c0-0.096-0.023-0.18-0.071-0.256
			c-0.045-0.07-0.094-0.129-0.152-0.178c-0.063-0.055-0.129-0.092-0.197-0.119c-0.068-0.025-0.126-0.043-0.181-0.043
			c-0.311,0-0.639,0.129-0.968,0.391c-0.326,0.258-0.639,0.621-0.923,1.088c-0.291,0.455-0.54,1.002-0.755,1.645
			c-0.218,0.641-0.368,1.324-0.447,2.07c0.102-0.078,0.24-0.184,0.405-0.326c0.162-0.139,0.338-0.295,0.53-0.465
			c0.191-0.17,0.383-0.338,0.569-0.514c0.191-0.176,0.368-0.332,0.513-0.484c0.333-0.32,0.604-0.605,0.823-0.859
			c0.212-0.254,0.383-0.482,0.509-0.695c0.129-0.207,0.217-0.412,0.267-0.615C242.223,82.831,242.251,82.614,242.251,82.393z"/>
	</g>
</g>
</svg>
