<?xml version="1.0" encoding="utf-8"?>
<!-- Generator: Adobe Illustrator 16.0.0, SVG Export Plug-In . SVG Version: 6.00 Build 0)  -->
<!DOCTYPE svg PUBLIC "-//W3C//DTD SVG 1.1//EN" "http://www.w3.org/Graphics/SVG/1.1/DTD/svg11.dtd">
<svg version="1.1" id="Layer_1" xmlns="http://www.w3.org/2000/svg" xmlns:xlink="http://www.w3.org/1999/xlink" x="0px" y="0px"
	 width="166.537px" height="100px" viewBox="0 0 166.537 100" enable-background="new 0 0 166.537 100" xml:space="preserve">
<g>
	<g id="XMLID_961_">
		<path fill="#111127" d="M77.845,90.519L15.667,60.573c-8.227-4.485-8.227-16.296,0-20.781L77.845,9.846
			c3.531-1.926,7.798-1.926,11.33,0l62.178,29.945c8.227,4.485,8.227,16.296,0,20.781L89.175,90.519
			C85.644,92.445,81.376,92.445,77.845,90.519z"/>
	</g>
	<g id="XMLID_960_">
		<path fill="#EC8D34" d="M83.729,95.404c-2.215,0-4.437-0.548-6.462-1.647L14.072,63.321C8.965,60.714,6,55.679,6.122,49.84
			c0.118-5.695,3.133-10.583,7.872-12.758L77.289,6.598c4.008-2.186,8.848-2.186,12.901,0.023l63.641,30.649
			c4.379,2.386,7.071,7.313,7.071,12.883c0,5.604-2.711,10.562-7.074,12.941L90.145,93.767
			C88.146,94.856,85.94,95.404,83.729,95.404z M83.705,6.966c-1.896,0-3.783,0.469-5.505,1.409L14.843,38.89
			C10.79,40.75,8.22,44.959,8.118,49.881c-0.104,5.056,2.452,9.41,6.841,11.65L78.2,91.99c3.455,1.884,7.579,1.884,11.035,0
			l63.683-30.672c3.676-2.006,5.988-6.292,5.988-11.165c0-4.838-2.293-9.094-5.984-11.107L89.278,8.397
			C87.523,7.441,85.611,6.966,83.705,6.966z"/>
	</g>
	<g id="XMLID_959_">
		<g>
			<g>
				<path fill="#FFFFFF" d="M78.091,37.349h-1.198v-1.133h3.518v1.133h-1.192v6.337h-1.127V37.349z"/>
			</g>
			<g>
				<path fill="#FFFFFF" d="M85.653,36.121c0.497,0,0.919,0.175,1.267,0.524c0.349,0.35,0.521,0.771,0.521,1.264v4.078
					c0,0.497-0.175,0.919-0.524,1.267s-0.771,0.522-1.264,0.522c-0.497,0-0.918-0.176-1.264-0.524
					c-0.347-0.35-0.519-0.771-0.519-1.264V37.91c0-0.497,0.174-0.918,0.524-1.267C84.745,36.295,85.164,36.121,85.653,36.121z
					 M86.267,37.886c0-0.178-0.063-0.331-0.187-0.456c-0.126-0.125-0.277-0.188-0.456-0.188c-0.18,0-0.332,0.063-0.46,0.188
					c-0.127,0.125-0.19,0.278-0.19,0.456v4.089c0,0.179,0.063,0.332,0.19,0.457c0.128,0.125,0.28,0.188,0.46,0.188
					c0.179,0,0.33-0.063,0.456-0.188c0.124-0.125,0.187-0.277,0.187-0.457V37.886z"/>
			</g>
		</g>
	</g>
	<g id="XMLID_958_">
		<g>
			<g>
				<path fill="#FFFFFF" d="M60.252,74.584h-0.808v-5.367h2.302v0.813h-1.494v1.464h1.092v0.814h-1.092V74.584z"/>
			</g>
			<g>
				<path fill="#FFFFFF" d="M65.512,69.153c0.356,0,0.659,0.124,0.91,0.377c0.25,0.251,0.375,0.553,0.375,0.906v2.928
					c0,0.358-0.126,0.661-0.377,0.911c-0.251,0.249-0.553,0.374-0.907,0.374c-0.357,0-0.659-0.126-0.908-0.377
					c-0.248-0.251-0.372-0.554-0.372-0.908v-2.928c0-0.356,0.125-0.66,0.376-0.909C64.859,69.277,65.161,69.153,65.512,69.153z
					 M65.953,70.419c0-0.128-0.045-0.237-0.135-0.328c-0.09-0.088-0.2-0.135-0.327-0.135c-0.128,0-0.239,0.047-0.33,0.135
					c-0.091,0.091-0.137,0.2-0.137,0.328v2.936c0,0.129,0.046,0.239,0.137,0.328c0.091,0.09,0.202,0.135,0.33,0.135
					c0.127,0,0.237-0.045,0.327-0.135c0.089-0.089,0.135-0.199,0.135-0.328V70.419z"/>
			</g>
			<g>
				<path fill="#FFFFFF" d="M70.702,69.153c0.357,0,0.66,0.124,0.91,0.377c0.25,0.251,0.374,0.553,0.374,0.906v2.928
					c0,0.358-0.125,0.661-0.376,0.911c-0.25,0.249-0.554,0.374-0.907,0.374c-0.357,0-0.659-0.126-0.907-0.377
					c-0.25-0.251-0.373-0.554-0.373-0.908v-2.928c0-0.356,0.125-0.66,0.376-0.909C70.05,69.277,70.351,69.153,70.702,69.153z
					 M71.143,70.419c0-0.128-0.045-0.237-0.134-0.328c-0.09-0.088-0.2-0.135-0.328-0.135c-0.128,0-0.239,0.047-0.33,0.135
					c-0.091,0.091-0.137,0.2-0.137,0.328v2.936c0,0.129,0.046,0.239,0.137,0.328c0.091,0.09,0.202,0.135,0.33,0.135
					c0.127,0,0.237-0.045,0.328-0.135c0.089-0.089,0.134-0.199,0.134-0.328V70.419z"/>
			</g>
			<g>
				<path fill="#FFFFFF" d="M77.168,73.299c0,0.354-0.125,0.657-0.373,0.909c-0.248,0.249-0.548,0.376-0.899,0.376h-1.271v-5.367
					h1.271c0.354,0,0.654,0.124,0.9,0.375c0.248,0.251,0.372,0.554,0.372,0.905V73.299z M75.435,73.784h0.488
					c0.127,0,0.236-0.046,0.324-0.14c0.089-0.092,0.133-0.202,0.133-0.326v-2.809c0-0.129-0.045-0.239-0.135-0.329
					c-0.09-0.092-0.198-0.138-0.323-0.138h-0.488V73.784z"/>
			</g>
			<g>
				<path fill="#FFFFFF" d="M82.998,70.035h-0.86V69.22h2.526v0.814h-0.856v4.55h-0.809V70.035z"/>
			</g>
			<g>
				<path fill="#FFFFFF" d="M88.519,69.22c0.45,0,0.781,0.125,0.993,0.372c0.185,0.219,0.278,0.521,0.278,0.908v0.779
					c0,0.379-0.145,0.7-0.434,0.964l0.6,2.341h-0.875l-0.49-2.021c-0.022,0-0.047,0-0.072,0h-0.468v2.021h-0.808V69.22H88.519z
					 M89.002,70.514c0-0.312-0.154-0.468-0.463-0.468h-0.488v1.718h0.488c0.129,0,0.237-0.047,0.328-0.137
					c0.09-0.092,0.135-0.203,0.135-0.331V70.514z"/>
			</g>
			<g>
				<path fill="#FFFFFF" d="M93.722,74.644c-0.356,0-0.659-0.124-0.907-0.372c-0.249-0.248-0.373-0.55-0.373-0.903V69.22h0.792v4.14
					c0,0.129,0.046,0.237,0.138,0.327c0.091,0.09,0.2,0.136,0.329,0.136c0.128,0,0.238-0.046,0.328-0.136
					c0.089-0.09,0.135-0.198,0.135-0.327v-4.14h0.843v4.148c0,0.359-0.126,0.661-0.377,0.907
					C94.378,74.523,94.075,74.644,93.722,74.644z"/>
			</g>
			<g>
				<path fill="#FFFFFF" d="M98.925,74.652c-0.356,0-0.66-0.125-0.909-0.374c-0.251-0.25-0.375-0.55-0.375-0.904v-2.929
					c0-0.356,0.125-0.66,0.376-0.909c0.252-0.249,0.554-0.374,0.908-0.374c0.356,0,0.659,0.125,0.907,0.376
					c0.248,0.25,0.372,0.554,0.372,0.907v0.613h-0.839v-0.632c0-0.127-0.046-0.237-0.137-0.329c-0.092-0.09-0.201-0.137-0.33-0.137
					c-0.128,0-0.237,0.047-0.327,0.137c-0.09,0.092-0.135,0.202-0.135,0.329v2.938c0,0.13,0.045,0.239,0.135,0.328
					c0.09,0.09,0.199,0.135,0.327,0.135c0.129,0,0.238-0.045,0.33-0.135c0.091-0.089,0.137-0.198,0.137-0.328v-0.74h0.839v0.75
					c0,0.357-0.125,0.659-0.376,0.907C99.576,74.529,99.275,74.652,98.925,74.652z"/>
			</g>
			<g>
				<path fill="#FFFFFF" d="M103.605,72.883v1.701h-0.809v-5.367h0.809v1.912l0.988-1.912h0.862l-1.106,2.188l1.299,3.18h-0.951
					l-0.85-2.179L103.605,72.883z"/>
			</g>
		</g>
	</g>
	<g>
		<g>
			<path fill="#EC8D34" d="M61.037,31.925c-0.406,0-0.718-0.166-0.936-0.5c-0.166-0.239-0.275-0.601-0.328-1.084
				c-0.052-0.482-0.063-1.016-0.032-1.598c-0.478,0.874-0.956,1.575-1.434,2.105c-0.646,0.708-1.279,1.061-1.903,1.061
				c-0.406,0-0.718-0.143-0.936-0.429c-0.218-0.286-0.367-0.652-0.444-1.1c-0.078-0.447-0.096-0.946-0.055-1.496
				c0.042-0.552,0.125-1.089,0.25-1.615c0.125-0.524,0.278-1.008,0.46-1.45c0.182-0.442,0.376-0.777,0.584-1.006
				c0.301-0.343,0.616-0.551,0.944-0.625c0.327-0.072,0.616-0.08,0.865-0.023c0.25,0.057,0.442,0.154,0.578,0.288
				c0.135,0.135,0.156,0.241,0.062,0.313c-0.155,0.135-0.303,0.37-0.444,0.702c-0.141,0.333-0.265,0.694-0.375,1.084
				c-0.109,0.39-0.208,0.782-0.296,1.177c-0.089,0.396-0.153,0.723-0.194,0.982c-0.052,0.281-0.092,0.554-0.117,0.819
				c-0.026,0.266-0.031,0.486-0.016,0.664c0.016,0.176,0.06,0.286,0.133,0.327c0.073,0.042,0.181-0.025,0.327-0.203
				c0.24-0.271,0.489-0.6,0.749-0.99c0.26-0.39,0.52-0.839,0.78-1.349c0.208-0.396,0.385-0.741,0.53-1.037
				c0.146-0.296,0.265-0.548,0.358-0.756c0.083-0.27,0.169-0.51,0.258-0.717c0.088-0.208,0.19-0.375,0.304-0.499
				c0.301-0.353,0.621-0.582,0.958-0.687c0.338-0.104,0.64-0.138,0.905-0.102c0.265,0.037,0.466,0.116,0.601,0.242
				c0.135,0.125,0.14,0.24,0.016,0.343c-0.053,0.042-0.128,0.217-0.226,0.522c-0.099,0.307-0.203,0.676-0.313,1.108
				c-0.109,0.431-0.213,0.894-0.311,1.387c-0.099,0.495-0.167,0.952-0.203,1.373c-0.037,0.421-0.034,0.77,0.008,1.045
				c0.041,0.275,0.145,0.413,0.312,0.413c0.28,0,0.583-0.164,0.905-0.49c0.322-0.328,0.635-0.731,0.935-1.209
				c0.302-0.478,0.573-0.99,0.812-1.537c0.239-0.545,0.411-1.042,0.515-1.489c0.051-0.229,0.087-0.438,0.108-0.625
				s0.016-0.337-0.015-0.452c-0.031-0.114-0.093-0.189-0.187-0.226c-0.094-0.036-0.224-0.013-0.39,0.07
				c-0.136,0.063-0.245,0.014-0.327-0.148c-0.083-0.161-0.125-0.353-0.125-0.578c0-0.223,0.054-0.431,0.164-0.623
				c0.109-0.193,0.288-0.289,0.538-0.289c0.271,0,0.483,0.064,0.64,0.195c0.156,0.13,0.271,0.293,0.343,0.492
				c0.072,0.197,0.117,0.407,0.132,0.63c0.016,0.225,0.023,0.43,0.023,0.617c0,0.302-0.036,0.628-0.109,0.982
				c-0.073,0.353-0.176,0.717-0.312,1.092c-0.135,0.374-0.299,0.753-0.492,1.138c-0.192,0.385-0.408,0.749-0.646,1.092
				c-0.594,0.863-1.214,1.522-1.865,1.98C62.453,31.697,61.764,31.925,61.037,31.925z"/>
		</g>
		<g>
			<path fill="#EC8D34" d="M74.044,27.917c0.083,0.073,0.129,0.159,0.141,0.258c0.01,0.099-0.011,0.194-0.063,0.288
				c-0.209,0.426-0.487,0.845-0.834,1.256c-0.349,0.41-0.739,0.779-1.17,1.106s-0.892,0.591-1.38,0.788
				c-0.489,0.198-0.973,0.296-1.451,0.296c-0.396,0-0.78-0.047-1.155-0.141c-0.374-0.093-0.696-0.306-0.967-0.64
				c-0.218-0.271-0.364-0.569-0.437-0.896c-0.073-0.328-0.089-0.667-0.047-1.014c0.042-0.348,0.127-0.7,0.257-1.053
				c0.13-0.353,0.286-0.694,0.468-1.022c0.182-0.327,0.382-0.633,0.6-0.919c0.219-0.286,0.432-0.538,0.64-0.756
				c0.395-0.396,0.798-0.712,1.208-0.952c0.411-0.239,0.793-0.369,1.147-0.39c0.228-0.01,0.459,0.039,0.693,0.148
				c0.233,0.109,0.392,0.289,0.476,0.539c0.135,0.312,0.151,0.687,0.047,1.123c-0.104,0.437-0.312,0.89-0.625,1.356
				c-0.271,0.396-0.624,0.784-1.06,1.163c-0.437,0.378-0.942,0.689-1.513,0.928c-0.053,0.416,0,0.781,0.155,1.092
				c0.156,0.312,0.411,0.467,0.765,0.467c0.239,0,0.503-0.057,0.796-0.171c0.29-0.114,0.594-0.291,0.912-0.53
				c0.317-0.24,0.634-0.544,0.952-0.913c0.316-0.37,0.615-0.813,0.896-1.333c0.052-0.094,0.135-0.145,0.25-0.156
				C73.862,27.829,73.961,27.854,74.044,27.917z M70.94,26.841c0.208-0.303,0.353-0.575,0.437-0.819
				c0.083-0.245,0.125-0.456,0.125-0.632c-0.416,0.291-0.829,0.694-1.24,1.209c-0.411,0.514-0.741,1.114-0.99,1.801
				c0.364-0.208,0.686-0.45,0.967-0.726C70.52,27.399,70.753,27.121,70.94,26.841z"/>
		</g>
		<g>
			<path fill="#EC8D34" d="M74.761,31.91c-0.343,0-0.613-0.135-0.811-0.406c-0.198-0.27-0.338-0.629-0.421-1.077
				c-0.083-0.446-0.117-0.958-0.101-1.536c0.015-0.577,0.062-1.18,0.14-1.81c0.078-0.628,0.179-1.254,0.304-1.879
				c0.125-0.624,0.257-1.207,0.398-1.747c0.14-0.541,0.275-1.014,0.405-1.419c0.13-0.406,0.242-0.697,0.335-0.874
				c0.125-0.25,0.286-0.441,0.483-0.577c0.197-0.135,0.4-0.226,0.608-0.273c0.208-0.046,0.416-0.06,0.624-0.039
				c0.208,0.021,0.388,0.06,0.539,0.117c0.15,0.057,0.26,0.122,0.327,0.195c0.068,0.073,0.076,0.135,0.024,0.186
				c-0.053,0.053-0.128,0.234-0.227,0.546c-0.099,0.313-0.206,0.7-0.32,1.162c-0.114,0.463-0.234,0.983-0.358,1.56
				c-0.125,0.577-0.244,1.162-0.359,1.755c-0.114,0.593-0.219,1.172-0.312,1.739c-0.094,0.568-0.167,1.069-0.218,1.505
				c-0.053,0.438-0.078,0.788-0.078,1.053c0,0.265,0.036,0.397,0.109,0.397c0.083,0,0.169-0.028,0.257-0.086
				c0.089-0.056,0.171-0.124,0.25-0.202c0.078-0.077,0.151-0.162,0.219-0.25c0.067-0.088,0.127-0.158,0.179-0.21
				c0.177-0.209,0.344-0.414,0.499-0.616c0.156-0.203,0.289-0.385,0.397-0.546c0.11-0.161,0.232-0.345,0.367-0.554
				c0.053-0.093,0.131-0.152,0.234-0.179c0.104-0.026,0.203-0.008,0.297,0.054c0.093,0.052,0.152,0.13,0.179,0.234
				c0.025,0.104,0.013,0.203-0.039,0.296c-0.011,0.011-0.05,0.068-0.117,0.172c-0.068,0.104-0.161,0.242-0.281,0.413
				c-0.12,0.172-0.26,0.364-0.421,0.577c-0.161,0.212-0.335,0.43-0.522,0.647C76.384,31.354,75.521,31.91,74.761,31.91z"/>
		</g>
		<g>
			<path fill="#EC8D34" d="M80.064,29.29c-0.052,0.208-0.068,0.41-0.047,0.608c0.021,0.198,0.073,0.375,0.156,0.53
				c0.083,0.156,0.192,0.281,0.328,0.375c0.135,0.093,0.291,0.14,0.468,0.14c0.24,0,0.504-0.057,0.796-0.171
				c0.291-0.114,0.595-0.291,0.912-0.53c0.317-0.24,0.635-0.544,0.952-0.913c0.317-0.37,0.616-0.813,0.896-1.333
				c0.052-0.094,0.136-0.145,0.25-0.156c0.114-0.01,0.213,0.016,0.297,0.078c0.083,0.073,0.13,0.159,0.14,0.258
				c0.011,0.099-0.01,0.194-0.062,0.288c-0.209,0.426-0.486,0.845-0.835,1.256c-0.349,0.41-0.738,0.779-1.17,1.106
				c-0.431,0.328-0.892,0.591-1.38,0.788c-0.489,0.198-0.973,0.296-1.451,0.296c-0.396,0-0.78-0.047-1.154-0.141
				c-0.374-0.093-0.697-0.306-0.967-0.64c-0.218-0.271-0.364-0.569-0.437-0.896c-0.072-0.328-0.088-0.667-0.047-1.014
				c0.042-0.348,0.128-0.7,0.258-1.053c0.129-0.353,0.286-0.694,0.468-1.022c0.182-0.327,0.381-0.633,0.6-0.919
				c0.218-0.286,0.431-0.538,0.639-0.756c0.396-0.396,0.798-0.712,1.209-0.952c0.41-0.239,0.792-0.369,1.146-0.39
				c0.229-0.01,0.459,0.039,0.694,0.148c0.234,0.109,0.393,0.289,0.476,0.539c0.104,0.24,0.133,0.536,0.086,0.89
				c-0.047,0.354-0.164,0.706-0.351,1.061c-0.062,0.114-0.148,0.181-0.257,0.203c-0.109,0.02-0.21,0.012-0.305-0.024
				c-0.093-0.037-0.166-0.093-0.218-0.171c-0.053-0.078-0.053-0.159,0-0.242c0.146-0.24,0.244-0.449,0.296-0.632
				c0.053-0.183,0.078-0.351,0.078-0.507c-0.208,0.146-0.427,0.317-0.655,0.515c-0.229,0.198-0.452,0.446-0.671,0.748
				c-0.218,0.301-0.426,0.666-0.624,1.092C80.381,28.172,80.21,28.686,80.064,29.29z"/>
		</g>
		<g>
			<path fill="#EC8D34" d="M87.051,32.003c-0.737,0-1.317-0.174-1.738-0.523c-0.421-0.348-0.713-0.788-0.874-1.317
				c-0.161-0.53-0.205-1.113-0.132-1.748c0.073-0.634,0.242-1.237,0.507-1.809c0.266-0.572,0.613-1.074,1.045-1.505
				c0.432-0.431,0.923-0.71,1.474-0.835c0.426-0.094,0.832-0.067,1.217,0.078c0.094,0.042,0.163,0.109,0.211,0.203
				c0.046,0.093,0.049,0.193,0.007,0.296c-0.041,0.104-0.108,0.159-0.201,0.164c-0.095,0.006-0.193,0.029-0.297,0.071
				c-0.146,0.053-0.292,0.185-0.437,0.397c-0.146,0.214-0.286,0.471-0.422,0.772c-0.135,0.301-0.26,0.637-0.374,1.005
				c-0.114,0.37-0.218,0.742-0.312,1.116c-0.24,0.978-0.315,1.69-0.227,2.137c0.088,0.448,0.289,0.667,0.601,0.655
				c0.322-0.01,0.679-0.22,1.068-0.632c0.391-0.411,0.715-0.965,0.975-1.661c-0.197-0.167-0.343-0.356-0.437-0.569
				c-0.094-0.212-0.147-0.437-0.163-0.671c-0.016-0.234,0.004-0.468,0.062-0.701c0.057-0.235,0.133-0.445,0.226-0.632
				c0.125-0.25,0.305-0.429,0.539-0.539c0.233-0.109,0.449-0.112,0.646-0.007c0.208,0.114,0.38,0.265,0.515,0.452
				c0.136,0.187,0.234,0.398,0.297,0.632c0.063,0.233,0.091,0.481,0.086,0.74c-0.006,0.261-0.045,0.515-0.117,0.765
				c0.26,0,0.522-0.033,0.788-0.102c0.265-0.067,0.579-0.164,0.943-0.289c0.104-0.031,0.202-0.023,0.296,0.023
				c0.094,0.047,0.156,0.123,0.188,0.226c0.042,0.104,0.039,0.203-0.008,0.297c-0.047,0.093-0.122,0.162-0.226,0.203
				c-0.406,0.145-0.763,0.252-1.068,0.319c-0.308,0.068-0.616,0.102-0.929,0.102c-0.052,0-0.096-0.003-0.133-0.007
				c-0.036-0.005-0.08-0.008-0.133-0.008c-0.177,0.364-0.376,0.72-0.6,1.069c-0.224,0.348-0.481,0.657-0.772,0.927
				c-0.291,0.271-0.611,0.49-0.959,0.655C87.834,31.919,87.458,32.003,87.051,32.003z"/>
		</g>
		<g>
			<path fill="#EC8D34" d="M91.513,31.161c0.125-0.156,0.252-0.411,0.382-0.764c0.13-0.353,0.255-0.756,0.374-1.208
				c0.12-0.453,0.229-0.926,0.328-1.42c0.098-0.494,0.18-0.958,0.241-1.396c0.063-0.437,0.109-0.819,0.141-1.146
				s0.036-0.548,0.016-0.663c-0.021-0.094,0.021-0.18,0.125-0.258c0.104-0.078,0.236-0.137,0.397-0.179
				c0.161-0.041,0.337-0.055,0.53-0.039c0.191,0.016,0.374,0.062,0.546,0.14s0.313,0.199,0.421,0.359
				c0.109,0.162,0.164,0.367,0.164,0.616c0,0.115-0.003,0.222-0.009,0.32c-0.005,0.098-0.007,0.194-0.007,0.289
				c0.135-0.229,0.275-0.447,0.421-0.655c0.541-0.769,1.128-1.195,1.763-1.279c0.291-0.032,0.538,0.018,0.741,0.148
				c0.202,0.131,0.368,0.32,0.498,0.569c0.131,0.25,0.227,0.546,0.289,0.89s0.099,0.707,0.109,1.091
				c0.166-0.322,0.343-0.632,0.53-0.928c0.188-0.296,0.388-0.559,0.6-0.788c0.214-0.228,0.439-0.407,0.68-0.538
				c0.238-0.13,0.493-0.195,0.764-0.195c0.614,0,1.04,0.12,1.279,0.359c0.239,0.24,0.368,0.545,0.39,0.92
				c0.021,0.374-0.025,0.792-0.141,1.256c-0.114,0.462-0.218,0.917-0.312,1.364c-0.083,0.396-0.151,0.752-0.202,1.069
				c-0.053,0.317-0.087,0.587-0.102,0.812c-0.016,0.223-0.006,0.389,0.03,0.498s0.107,0.154,0.212,0.133
				c0.187-0.052,0.492-0.317,0.919-0.794c0.178-0.209,0.344-0.414,0.5-0.616c0.155-0.203,0.288-0.388,0.397-0.554
				c0.108-0.166,0.231-0.348,0.366-0.546c0.052-0.093,0.13-0.152,0.233-0.179c0.104-0.026,0.203-0.013,0.297,0.039
				c0.094,0.062,0.152,0.146,0.179,0.25s0.013,0.203-0.039,0.296c-0.011,0.011-0.05,0.068-0.116,0.172
				c-0.068,0.104-0.161,0.242-0.281,0.413c-0.119,0.172-0.26,0.364-0.421,0.577c-0.161,0.212-0.335,0.43-0.522,0.647
				c-0.167,0.187-0.347,0.379-0.538,0.576c-0.192,0.199-0.397,0.378-0.616,0.539c-0.218,0.161-0.447,0.294-0.687,0.397
				c-0.238,0.104-0.489,0.157-0.748,0.157c-0.396,0-0.687-0.099-0.874-0.296c-0.187-0.197-0.307-0.458-0.358-0.78
				c-0.052-0.322-0.049-0.688,0.008-1.099c0.058-0.41,0.139-0.832,0.242-1.264c0.104-0.431,0.219-0.852,0.343-1.264
				c0.125-0.41,0.227-0.777,0.305-1.099c0.077-0.323,0.119-0.583,0.124-0.78c0.005-0.197-0.06-0.297-0.194-0.297
				c-0.188,0-0.396,0.162-0.624,0.484c-0.229,0.323-0.466,0.723-0.71,1.202c-0.245,0.477-0.48,0.987-0.71,1.527
				c-0.229,0.542-0.437,1.03-0.623,1.466c-0.167,0.52-0.339,0.915-0.515,1.185c-0.167,0.25-0.352,0.44-0.554,0.57
				c-0.203,0.13-0.403,0.218-0.602,0.265c-0.196,0.047-0.385,0.061-0.561,0.039c-0.177-0.021-0.328-0.06-0.453-0.117
				c-0.124-0.057-0.212-0.123-0.265-0.195c-0.052-0.072-0.052-0.14,0-0.203c0.135-0.156,0.271-0.406,0.405-0.749
				c0.136-0.342,0.253-0.717,0.352-1.123c0.098-0.406,0.182-0.805,0.249-1.201c0.067-0.395,0.106-0.727,0.117-0.999
				c0.01-0.291,0.015-0.572,0.015-0.841s-0.02-0.491-0.062-0.664c-0.042-0.171-0.099-0.27-0.171-0.296
				c-0.073-0.025-0.172,0.054-0.297,0.242c-0.427,0.603-0.837,1.44-1.232,2.511l-0.078,0.156c-0.083,0.394-0.2,0.806-0.351,1.232
				c-0.15,0.426-0.347,0.919-0.585,1.481c-0.114,0.26-0.268,0.46-0.46,0.6c-0.193,0.141-0.396,0.234-0.607,0.281
				c-0.215,0.046-0.424,0.056-0.633,0.031c-0.207-0.025-0.385-0.075-0.53-0.148c-0.146-0.072-0.243-0.164-0.296-0.273
				C91.398,31.387,91.419,31.275,91.513,31.161z"/>
		</g>
		<g>
			<path fill="#EC8D34" d="M111.929,27.917c0.083,0.073,0.129,0.159,0.141,0.258c0.01,0.099-0.012,0.194-0.063,0.288
				c-0.207,0.426-0.485,0.845-0.834,1.256c-0.349,0.41-0.738,0.779-1.169,1.106c-0.433,0.328-0.893,0.591-1.381,0.788
				c-0.488,0.198-0.973,0.296-1.45,0.296c-0.396,0-0.78-0.047-1.155-0.141c-0.374-0.093-0.696-0.306-0.967-0.64
				c-0.219-0.271-0.363-0.569-0.437-0.896c-0.072-0.328-0.088-0.667-0.046-1.014c0.041-0.348,0.127-0.7,0.257-1.053
				c0.13-0.353,0.285-0.694,0.468-1.022c0.182-0.327,0.382-0.633,0.601-0.919c0.219-0.286,0.431-0.538,0.639-0.756
				c0.396-0.396,0.798-0.712,1.209-0.952c0.41-0.239,0.793-0.369,1.146-0.39c0.229-0.01,0.46,0.039,0.694,0.148
				c0.233,0.109,0.393,0.289,0.476,0.539c0.135,0.312,0.151,0.687,0.047,1.123s-0.313,0.89-0.624,1.356
				c-0.271,0.396-0.623,0.784-1.06,1.163c-0.438,0.378-0.942,0.689-1.514,0.928c-0.053,0.416,0,0.781,0.155,1.092
				c0.156,0.312,0.411,0.467,0.765,0.467c0.239,0,0.504-0.057,0.796-0.171c0.29-0.114,0.595-0.291,0.912-0.53
				c0.317-0.24,0.635-0.544,0.951-0.913c0.317-0.37,0.616-0.813,0.897-1.333c0.052-0.094,0.135-0.145,0.249-0.156
				C111.746,27.829,111.846,27.854,111.929,27.917z M108.824,26.841c0.208-0.303,0.354-0.575,0.437-0.819
				c0.084-0.245,0.125-0.456,0.125-0.632c-0.416,0.291-0.829,0.694-1.239,1.209c-0.411,0.514-0.741,1.114-0.99,1.801
				c0.363-0.208,0.686-0.45,0.967-0.726C108.403,27.399,108.638,27.121,108.824,26.841z"/>
		</g>
	</g>
	<g>
		<g>
			<path fill="#FCEAC4" d="M37.665,64.743l-3.173-17.755h2.807l2.229,13.841l2.244-13.841h2.808l-3.23,17.755H37.665z"/>
		</g>
		<g>
			<path fill="#FCEAC4" d="M47.617,64.743V46.972h7.624v2.693h-4.945v4.847h3.614v2.692h-3.614v4.846h4.945v2.692H47.617z"/>
		</g>
		<g>
			<path fill="#FCEAC4" d="M62.132,64.969c-1.182,0-2.185-0.416-3.012-1.247c-0.826-0.831-1.24-1.828-1.24-2.99V51.04
				c0-1.181,0.417-2.184,1.248-3.011c0.832-0.827,1.833-1.24,3.004-1.24c1.181,0,2.182,0.416,3.003,1.247
				c0.823,0.832,1.233,1.833,1.233,3.004v2.026H63.59v-2.082c0-0.426-0.151-0.789-0.453-1.092c-0.303-0.302-0.667-0.453-1.091-0.453
				c-0.425,0-0.787,0.151-1.084,0.453c-0.298,0.303-0.447,0.667-0.447,1.092v9.72c0,0.426,0.149,0.787,0.447,1.085
				s0.659,0.446,1.084,0.446c0.424,0,0.788-0.148,1.091-0.446c0.302-0.296,0.453-0.656,0.453-1.08v-3.49h-1.487v-2.693h4.266v6.207
				c0,1.182-0.416,2.182-1.247,3.004C64.29,64.558,63.294,64.969,62.132,64.969z"/>
		</g>
		<g>
			<path fill="#FCEAC4" d="M72.448,60.662l-0.651,4.081h-2.789l3.018-17.755h3.685l2.975,17.755h-2.816l-0.626-4.081H72.448z
				 M73.854,51.054l-0.992,7.001h1.984L73.854,51.054z"/>
		</g>
		<g>
			<path fill="#FCEAC4" d="M89.787,60.322c0.019,1.237-0.303,2.295-0.964,3.174c-0.434,0.597-1.049,1.016-1.842,1.262
				c-0.426,0.131-0.921,0.198-1.488,0.198c-1.048,0-1.918-0.26-2.607-0.779c-0.576-0.426-1.032-1.004-1.368-1.737
				c-0.335-0.731-0.531-1.57-0.587-2.514l2.55-0.185c0.114,1.035,0.387,1.785,0.822,2.251c0.321,0.35,0.69,0.517,1.105,0.497
				c0.586-0.019,1.054-0.307,1.402-0.864c0.18-0.274,0.27-0.667,0.27-1.178c0-0.736-0.335-1.47-1.006-2.198
				c-0.529-0.502-1.322-1.252-2.38-2.254c-0.888-0.86-1.516-1.632-1.885-2.313c-0.396-0.766-0.595-1.599-0.595-2.495
				c0-1.618,0.543-2.843,1.629-3.675c0.671-0.501,1.502-0.752,2.495-0.752c0.954,0,1.771,0.212,2.451,0.638
				c0.528,0.332,0.956,0.794,1.282,1.39c0.326,0.595,0.521,1.279,0.588,2.054l-2.565,0.467c-0.075-0.727-0.283-1.293-0.622-1.7
				c-0.247-0.293-0.601-0.439-1.063-0.439c-0.491,0-0.864,0.218-1.12,0.652c-0.208,0.35-0.312,0.784-0.312,1.304
				c0,0.813,0.349,1.639,1.048,2.48c0.265,0.319,0.661,0.698,1.19,1.133c0.623,0.52,1.034,0.884,1.232,1.091
				c0.661,0.661,1.172,1.313,1.53,1.956c0.171,0.302,0.308,0.58,0.412,0.836C89.646,59.253,89.777,59.822,89.787,60.322z"/>
		</g>
		<g>
			<path fill="#FCEAC4" d="M97.915,49.68h-2.849v-2.693h8.361v2.693h-2.835v15.063h-2.678V49.68z"/>
		</g>
		<g>
			<path fill="#FCEAC4" d="M107.381,60.662l-0.65,4.081h-2.788l3.019-17.755h3.684l2.976,17.755h-2.816l-0.626-4.081H107.381z
				 M108.788,51.054l-0.991,7.001h1.983L108.788,51.054z"/>
		</g>
		<g>
			<path fill="#FCEAC4" d="M120.512,64.969c-1.182,0-2.185-0.413-3.012-1.239c-0.826-0.828-1.239-1.826-1.239-2.998V51.04
				c0-1.181,0.415-2.184,1.247-3.011c0.831-0.827,1.832-1.24,3.004-1.24c1.182,0,2.182,0.416,3.004,1.247
				c0.822,0.832,1.232,1.833,1.232,3.004v2.026h-2.777v-2.082c0-0.426-0.15-0.789-0.453-1.092c-0.303-0.302-0.666-0.453-1.091-0.453
				c-0.426,0-0.786,0.151-1.084,0.453c-0.298,0.303-0.447,0.667-0.447,1.092v9.72c0,0.426,0.149,0.787,0.447,1.085
				s0.658,0.446,1.084,0.446c0.425,0,0.788-0.148,1.091-0.446s0.453-0.659,0.453-1.085v-2.45h2.777v2.479
				c0,1.182-0.415,2.182-1.247,3.004C122.67,64.558,121.674,64.969,120.512,64.969z"/>
		</g>
		<g>
			<path fill="#FCEAC4" d="M131.938,46.76c1.18,0,2.185,0.417,3.011,1.247c0.826,0.833,1.24,1.834,1.24,3.004v9.692
				c0,1.181-0.416,2.185-1.248,3.011c-0.83,0.827-1.832,1.241-3.003,1.241c-1.182,0-2.183-0.416-3.005-1.247
				c-0.821-0.831-1.232-1.833-1.232-3.005v-9.692c0-1.18,0.415-2.184,1.247-3.011C129.778,47.174,130.775,46.76,131.938,46.76z
				 M133.396,50.956c0-0.426-0.149-0.787-0.446-1.085c-0.298-0.297-0.659-0.445-1.084-0.445s-0.789,0.148-1.091,0.445
				c-0.303,0.298-0.454,0.659-0.454,1.085v9.72c0,0.425,0.151,0.787,0.454,1.085c0.302,0.297,0.666,0.446,1.091,0.446
				s0.786-0.149,1.084-0.446c0.297-0.298,0.446-0.66,0.446-1.085V50.956z"/>
		</g>
	</g>
	<g id="XMLID_890_">
		<g id="XMLID_756_">
			<g id="XMLID_770_">
				<circle fill="#FCEAC4" cx="4.189" cy="40.632" r="1.634"/>
			</g>
			<g id="XMLID_769_">
				<circle fill="#FCEAC4" cx="8.202" cy="35.765" r="1.633"/>
			</g>
			<g id="XMLID_768_">
				<circle fill="#FCEAC4" cx="14.083" cy="32.649" r="1.633"/>
			</g>
			<g id="XMLID_767_">
				<circle fill="#FCEAC4" cx="19.778" cy="29.917" r="1.634"/>
			</g>
			<g id="XMLID_766_">
				<circle fill="#FCEAC4" cx="25.222" cy="27.303" r="1.633"/>
			</g>
			<g id="XMLID_765_">
				<circle fill="#FCEAC4" cx="30.667" cy="24.69" r="1.634"/>
			</g>
			<g id="XMLID_764_">
				<circle fill="#FCEAC4" cx="36.111" cy="22.077" r="1.633"/>
			</g>
			<g id="XMLID_763_">
				<circle fill="#FCEAC4" cx="41.555" cy="19.463" r="1.634"/>
			</g>
			<g id="XMLID_762_">
				<circle fill="#FCEAC4" cx="47" cy="16.85" r="1.633"/>
			</g>
			<g id="XMLID_761_">
				<circle fill="#FCEAC4" cx="52.444" cy="14.236" r="1.634"/>
			</g>
			<g id="XMLID_760_">
				<circle fill="#FCEAC4" cx="57.889" cy="11.623" r="1.634"/>
			</g>
			<g id="XMLID_759_">
				<circle fill="#FCEAC4" cx="63.333" cy="9.01" r="1.634"/>
			</g>
			<g id="XMLID_758_">
				<circle fill="#FCEAC4" cx="68.778" cy="6.396" r="1.633"/>
			</g>
			<g id="XMLID_757_">
				<circle fill="#FCEAC4" cx="74.222" cy="3.783" r="1.633"/>
			</g>
		</g>
		<g id="XMLID_740_">
			<g id="XMLID_755_">
				<circle fill="#FCEAC4" cx="162.831" cy="41.289" r="1.633"/>
			</g>
			<g id="XMLID_754_">
				<circle fill="#FCEAC4" cx="164.5" cy="47.114" r="1.633"/>
			</g>
			<g id="XMLID_753_">
				<circle fill="#FCEAC4" cx="158.301" cy="35.249" r="1.633"/>
			</g>
			<g id="XMLID_752_">
				<circle fill="#FCEAC4" cx="152.42" cy="32.133" r="1.633"/>
			</g>
			<g id="XMLID_751_">
				<circle fill="#FCEAC4" cx="146.725" cy="29.4" r="1.633"/>
			</g>
			<g id="XMLID_750_">
				<circle fill="#FCEAC4" cx="141.281" cy="26.787" r="1.633"/>
			</g>
			<g id="XMLID_749_">
				<circle fill="#FCEAC4" cx="135.836" cy="24.173" r="1.633"/>
			</g>
			<g id="XMLID_748_">
				<circle fill="#FCEAC4" cx="130.392" cy="21.561" r="1.633"/>
			</g>
			<g id="XMLID_747_">
				<circle fill="#FCEAC4" cx="124.948" cy="18.947" r="1.633"/>
			</g>
			<g id="XMLID_746_">
				<circle fill="#FCEAC4" cx="119.503" cy="16.334" r="1.633"/>
			</g>
			<g id="XMLID_745_">
				<circle fill="#FCEAC4" cx="114.059" cy="13.72" r="1.633"/>
			</g>
			<g id="XMLID_744_">
				<circle fill="#FCEAC4" cx="108.614" cy="11.107" r="1.633"/>
			</g>
			<g id="XMLID_743_">
				<circle fill="#FCEAC4" cx="103.169" cy="8.494" r="1.633"/>
			</g>
			<g id="XMLID_742_">
				<circle fill="#FCEAC4" cx="97.725" cy="5.88" r="1.633"/>
			</g>
			<g id="XMLID_741_">
				<circle fill="#FCEAC4" cx="92.281" cy="3.267" r="1.633"/>
			</g>
		</g>
		<g id="XMLID_739_">
			<circle fill="#FCEAC4" cx="80.222" cy="1.634" r="1.633"/>
		</g>
		<g id="XMLID_738_">
			<circle fill="#FCEAC4" cx="86.353" cy="1.634" r="1.633"/>
		</g>
	</g>
	<g id="XMLID_774_">
		<g id="XMLID_737_">
			<circle fill="#FCEAC4" cx="164.904" cy="53.55" r="1.633"/>
		</g>
		<g id="XMLID_722_">
			<g id="XMLID_736_">
				<circle fill="#FCEAC4" cx="162.795" cy="59.368" r="1.633"/>
			</g>
			<g id="XMLID_735_">
				<circle fill="#FCEAC4" cx="159.125" cy="64.235" r="1.633"/>
			</g>
			<g id="XMLID_734_">
				<circle fill="#FCEAC4" cx="153.244" cy="67.351" r="1.633"/>
			</g>
			<g id="XMLID_733_">
				<circle fill="#FCEAC4" cx="147.548" cy="70.084" r="1.633"/>
			</g>
			<g id="XMLID_732_">
				<circle fill="#FCEAC4" cx="142.104" cy="72.697" r="1.634"/>
			</g>
			<g id="XMLID_731_">
				<circle fill="#FCEAC4" cx="136.66" cy="75.31" r="1.633"/>
			</g>
			<g id="XMLID_730_">
				<circle fill="#FCEAC4" cx="131.215" cy="77.924" r="1.633"/>
			</g>
			<g id="XMLID_729_">
				<circle fill="#FCEAC4" cx="125.771" cy="80.538" r="1.633"/>
			</g>
			<g id="XMLID_728_">
				<circle fill="#FCEAC4" cx="120.326" cy="83.15" r="1.634"/>
			</g>
			<g id="XMLID_727_">
				<circle fill="#FCEAC4" cx="114.882" cy="85.763" r="1.633"/>
			</g>
			<g id="XMLID_726_">
				<circle fill="#FCEAC4" cx="109.438" cy="88.377" r="1.634"/>
			</g>
			<g id="XMLID_725_">
				<circle fill="#FCEAC4" cx="103.993" cy="90.991" r="1.633"/>
			</g>
			<g id="XMLID_724_">
				<circle fill="#FCEAC4" cx="98.548" cy="93.603" r="1.633"/>
			</g>
			<g id="XMLID_723_">
				<circle fill="#FCEAC4" cx="93.104" cy="96.217" r="1.633"/>
			</g>
		</g>
		<g id="XMLID_704_">
			<g id="XMLID_721_">
				<circle fill="#FCEAC4" cx="4.9" cy="59.718" r="1.633"/>
			</g>
			<g id="XMLID_720_">
				<circle fill="#FCEAC4" cx="1.737" cy="53.373" r="1.633"/>
			</g>
			<g id="XMLID_719_">
				<circle fill="#FCEAC4" cx="1.633" cy="46.686" r="1.633"/>
			</g>
			<g id="XMLID_718_">
				<circle fill="#FCEAC4" cx="9.025" cy="64.751" r="1.633"/>
			</g>
			<g id="XMLID_717_">
				<circle fill="#FCEAC4" cx="14.906" cy="67.867" r="1.633"/>
			</g>
			<g id="XMLID_716_">
				<circle fill="#FCEAC4" cx="20.601" cy="70.599" r="1.633"/>
			</g>
			<g id="XMLID_715_">
				<circle fill="#FCEAC4" cx="26.045" cy="73.212" r="1.634"/>
			</g>
			<g id="XMLID_714_">
				<circle fill="#FCEAC4" cx="31.49" cy="75.827" r="1.633"/>
			</g>
			<g id="XMLID_712_">
				<circle fill="#FCEAC4" cx="36.934" cy="78.44" r="1.634"/>
			</g>
			<g id="XMLID_711_">
				<circle fill="#FCEAC4" cx="42.378" cy="81.052" r="1.633"/>
			</g>
			<g id="XMLID_710_">
				<circle fill="#FCEAC4" cx="47.823" cy="83.667" r="1.633"/>
			</g>
			<g id="XMLID_709_">
				<circle fill="#FCEAC4" cx="53.267" cy="86.28" r="1.633"/>
			</g>
			<g id="XMLID_708_">
				<circle fill="#FCEAC4" cx="58.712" cy="88.893" r="1.634"/>
			</g>
			<g id="XMLID_707_">
				<circle fill="#FCEAC4" cx="64.156" cy="91.505" r="1.633"/>
			</g>
			<g id="XMLID_706_">
				<circle fill="#FCEAC4" cx="69.601" cy="94.121" r="1.633"/>
			</g>
			<g id="XMLID_705_">
				<circle fill="#FCEAC4" cx="75.045" cy="96.733" r="1.633"/>
			</g>
		</g>
		<g id="XMLID_703_">
			<circle fill="#FCEAC4" cx="87.104" cy="98.367" r="1.633"/>
		</g>
		<g id="XMLID_702_">
			<circle fill="#FCEAC4" cx="80.973" cy="98.367" r="1.633"/>
		</g>
	</g>
</g>
</svg>
